SplineFontDB: 1.0
FontName: FreeSerifItalic
FullName: Free Serif Italic
FamilyName: FreeSerif
Weight: Medium
Copyright: Copyleft 2002, 2003 Free Software Foundation.
Version: $Revision: 1.11 $
ItalicAngle: -15.5
UnderlinePosition: -100
UnderlineWidth: 50
Ascent: 800
Descent: 200
NeedsXUIDChange: 1
FSType: 0
PfmFamily: 17
TTFWeight: 400
TTFWidth: 5
Panose: 2 2 6 3 5 4 5 9 3 4
LineGap: 90
VLineGap: 0
ScriptLang: 2
 1 latn 1 dflt 
 1 DFLT 1 dflt 
LangName: 1033 "" "" "" "" "" "" "" "" "" "" "" "" "" "The use of this font is granted subject to GNU General Public License." "http://www.gnu.org/copyleft/gpl.html" "" "" "" "" "The quick brown fox jumps over the lazy dog." 
LangName: 1060 "" "" "le+AX4A-e+AQ0A-e" "" "" "" "" "" "" "" "" "" "" "Dovoljena je uporaba v skladu z licenco GNU General Public License." "http://www.gnu.org/copyleft/gpl.html" "" "" "" "" "+AWAA-erif bo za vajo spet kuhal doma+AQ0A-e +AX4A-gance." 
Encoding: unicode
DisplaySize: -36
AntiAlias: 1
FitToEm: 1
WinInfo: 736 16 13
BeginPrivate: 8
UniqueID 7 5020937
BlueValues 23 [-20 0 432 452 653 673]
BlueScale 8 0.039625
StdHW 4 [23]
StdVW 4 [78]
StemSnapH 206 [19 23 32 38 43 47 53 69] 
systemdict /internaldict known
{1183615869 systemdict /internaldict get exec
/StemSnapLength 2 copy known { get 8 lt } { pop pop true } ifelse }
{ true } ifelse { pop [23 32] } if
StemSnapV 2 []
ForceBold 5 false
EndPrivate
BeginChars: 65536 1448
StartChar: exclam
Encoding: 33 33 1
Width: 333
Flags: W
HStem: -11 106<87 93>
VStem: 39 106<37 45>
Fore
137 177 m 1
 120 181 l 1
 161 370 168 407 192 551 c 0
 206 634 225 667 262 667 c 0
 288 667 302 649 302 616 c 0
 302 587 292 555 264 493 c 0
 217 391 194 332 137 177 c 1
91 95 m 0
 120 95 145 70 145 41 c 0
 145 13 120 -11 90 -11 c 0
 61 -11 39 12 39 43 c 0
 39 70 64 95 91 95 c 0
EndSplineSet
MinimumDistance: x7,-1 
EndChar
StartChar: quotedbl
Encoding: 34 34 2
Width: 420
Flags: W
Fore
344 421 m 1
 323 421 l 1
 331 523 340 600 346 625 c 0
 351 647 376 666 400 666 c 0
 418 666 432 653 432 637 c 128
 432 621 401 545 344 421 c 1
165 421 m 1
 144 421 l 1
 152 523 161 600 167 625 c 0
 172 647 197 666 222 666 c 0
 239 666 253 653 253 637 c 128
 253 621 223 547 165 421 c 1
EndSplineSet
EndChar
StartChar: numbersign
Encoding: 35 35 3
Width: 500
Flags: W
HStem: 0 21G<17 79 208 270> 213 54<13 96 180 287 371 454> 410 54<87 171 254 362 445 529>
DStem: 97 213 158 213 17 0 79 0 172 410 233 410 118 267 179 267 272 676 333 676 192 464 253 464 288 213 349 213 208 0 270 0 363 410 424 410 309 267 370 267 463 676 524 676 383 464 444 464
Fore
465 267 m 1
 454 213 l 1
 349 213 l 1
 270 0 l 1
 208 0 l 1
 288 213 l 1
 158 213 l 1
 79 0 l 1
 17 0 l 1
 97 213 l 1
 2 213 l 1
 13 267 l 1
 118 267 l 1
 172 410 l 1
 76 410 l 1
 87 464 l 1
 192 464 l 1
 272 676 l 1
 333 676 l 1
 253 464 l 1
 383 464 l 1
 463 676 l 1
 524 676 l 1
 444 464 l 1
 540 464 l 1
 529 410 l 1
 424 410 l 1
 370 267 l 1
 465 267 l 1
363 410 m 1
 233 410 l 1
 179 267 l 1
 309 267 l 1
 363 410 l 1
EndSplineSet
EndChar
StartChar: dollar
Encoding: 36 36 4
Width: 500
Flags: W
HStem: 641 26.3615<303 335>
VStem: 123.003 77.9966<513 538> 379.998 75.002<162 190>
DStem: 181 2 215 0 159 -89 194 -89 258 329 289 306 189 32 221 25 336 641 369 633 282 420 313 396
Fore
497 612 m 1
 469 498 l 1
 454 500 l 1
 452 574 430 609 369 633 c 1
 313 396 l 1
 430 305 455 269 455 190 c 0
 455 120 420 60 361 30 c 0
 322 10 288 3 215 0 c 1
 194 -89 l 1
 159 -89 l 1
 181 2 l 1
 119 14 67 37 31 67 c 1
 58 190 l 1
 74 193 l 1
 85 88 111 51 189 32 c 1
 258 329 l 1
 206 366 186 383 165 410 c 0
 135 446 123 476 123 513 c 0
 123 565 151 612 198 639 c 0
 239 663 266 668 341 668 c 1
 358 731 l 1
 392 731 l 1
 376 663 l 1
 423 652 465 635 497 612 c 1
282 420 m 1
 336 641 l 1
 296 641 287 640 268 633 c 0
 226 618 201 583 201 538 c 128
 201 493 220 465 282 420 c 1
289 306 m 1
 221 25 l 1
 327 33 380 79 380 162 c 0
 380 216 363 245 295 301 c 2
 289 306 l 1
EndSplineSet
MinimumDistance: x2,-1 
EndChar
StartChar: percent
Encoding: 37 37 5
Width: 833
Flags: W
HStem: 0.80659 29.1934<604 605> 289.271 33.729<207 215> 339 32<682 696> 583 25<447 470> 632 30<296 303>
VStem: 79.8471 75.8172<386 419> 377 26<531 551> 468.933 75.7766<101 136> 765 25<243 265>
DStem: 570 613 653 676 220 -13 267 -13
Fore
683 371 m 0
 750 371 790 330 790 263 c 0
 790 187 758 108 704 51 c 0
 672 18 632 0 588 0 c 0
 512 0 468 50 468 136 c 0
 468 252 577 371 683 371 c 0
694 339 m 0
 662 339 634 320 607 280 c 0
 573 232 544 149 544 101 c 0
 544 54 564 30 605 30 c 0
 634 30 663 44 685 68 c 0
 733 119 765 196 765 259 c 0
 765 303 733 339 694 339 c 0
653 676 m 1
 267 -13 l 1
 220 -13 l 1
 570 613 l 1
 528 590 504 583 458 583 c 0
 431 583 416 585 396 593 c 1
 397 590 397 590 397 587 c 0
 401 570 403 554 403 541 c 0
 403 489 374 413 335 363 c 0
 297 315 249 289 198 289 c 0
 131 289 79 346 79 419 c 0
 79 542 187 662 297 662 c 0
 323 662 351 653 365 641 c 2
 383 625 l 2
 395 614 420 608 452 608 c 0
 519 608 563 627 613 676 c 1
 653 676 l 1
368 600 m 1
 341 607 332 611 316 624 c 0
 309 630 305 632 301 632 c 0
 238 632 155 493 155 386 c 0
 155 347 178 323 214 323 c 0
 296 323 377 436 377 549 c 0
 377 565 375 578 368 600 c 1
EndSplineSet
MinimumDistance: x1,-1 
EndChar
StartChar: ampersand
Encoding: 38 38 6
Width: 778
Flags: W
HStem: -17.9974 48.9975<594 642> -17.0432 51.7548<258 298> 634 32<471 484>
VStem: 76.9191 93.2055<140 164> 324.152 81.6985<460 504> 517 69<571 579> 530 185<333 349>
Fore
530 350 m 1
 715 350 l 1
 715 333 l 1
 665 328 658 322 607 247 c 0
 596 230 558 177 520 125 c 1
 560 58 595 31 642 31 c 0
 665 31 683 39 712 61 c 1
 723 50 l 1
 680 1 644 -18 594 -18 c 0
 541 -18 502 4 457 61 c 1
 354 -5 321 -18 258 -18 c 0
 147 -18 76 43 76 140 c 0
 76 194 100 240 148 280 c 0
 184 309 228 333 331 378 c 1
 330 393 329 403 328 409 c 0
 325 435 324 451 324 460 c 0
 324 581 390 666 484 666 c 0
 542 666 586 625 586 572 c 0
 586 538 567 503 532 471 c 0
 505 447 476 428 414 397 c 1
 438 295 469 209 501 160 c 1
 564 236 580 265 580 299 c 0
 580 321 569 328 530 331 c 1
 530 350 l 1
333 345 m 1
 233 307 170 236 170 164 c 0
 170 91 225 34 298 34 c 0
 348 34 391 51 438 90 c 1
 404 133 369 218 333 345 c 1
410 428 m 1
 454 456 456 458 473 473 c 0
 504 502 517 532 517 577 c 0
 517 617 504 634 472 634 c 0
 427 634 405 592 405 504 c 0
 405 478 406 458 410 428 c 1
EndSplineSet
MinimumDistance: x1,-1 
EndChar
StartChar: quotesingle
Encoding: 39 39 7
Width: 214
Flags: W
Fore
153 421 m 1
 132 421 l 1
 140 523 149 600 155 625 c 0
 160 647 185 666 209 666 c 0
 227 666 241 653 241 637 c 128
 241 621 210 545 153 421 c 1
EndSplineSet
EndChar
StartChar: parenleft
Encoding: 40 40 8
Width: 333
Flags: W
Fore
159 -175 m 1
 141 -181 l 1
 105 -115 90 -84 76 -41 c 0
 54 28 42 103 42 180 c 0
 42 256 53 318 79 381 c 0
 121 485 172 551 302 669 c 1
 315 654 l 1
 250 586 218 539 186 460 c 0
 140 349 111 205 111 85 c 0
 111 -11 123 -74 159 -175 c 1
EndSplineSet
EndChar
StartChar: parenright
Encoding: 41 41 9
Width: 333
Flags: W
Fore
29 -180 m 1
 16 -165 l 1
 77 -101 107 -59 136 6 c 0
 186 113 220 275 220 402 c 0
 220 502 205 583 171 664 c 1
 190 669 l 1
 235 589 250 553 267 485 c 0
 281 425 289 361 289 304 c 0
 289 230 277 167 249 101 c 0
 204 -8 153 -72 29 -180 c 1
EndSplineSet
EndChar
StartChar: asterisk
Encoding: 42 42 10
Width: 500
Flags: W
HStem: 255 411<302 312>
VStem: 273 74<287 297 623 629> 302 17<418 436 476.063 503>
Fore
319 500 m 2
 319 473 l 1
 362 502 367 506 418 561 c 0
 433 578 441 582 454 582 c 0
 476 582 492 567 492 545 c 0
 492 519 477 508 435 501 c 0
 388 493 371 486 328 459 c 1
 365 440 l 2
 380 432 403 425 431 420 c 0
 475 413 492 401 492 378 c 0
 492 356 475 339 454 339 c 0
 439 339 427 347 408 371 c 0
 382 403 359 423 326 442 c 2
 319 446 l 1
 320 393 324 371 339 329 c 0
 345 311 347 303 347 295 c 0
 347 272 331 255 308 255 c 0
 288 255 273 271 273 293 c 0
 273 302 276 314 283 334 c 0
 297 371 302 395 302 417 c 0
 302 422 302 429 300 446 c 1
 297 443 294 441 285 436 c 0
 254 417 240 405 213 371 c 0
 197 351 180 340 163 340 c 0
 144 340 128 357 128 377 c 0
 128 400 145 413 187 420 c 0
 233 428 251 435 294 461 c 1
 282 468 l 2
 258 483 226 493 189 500 c 0
 143 508 128 519 128 546 c 0
 128 566 143 581 163 581 c 0
 179 581 190 574 210 551 c 0
 242 515 262 498 301 476 c 1
 301 519 297 542 284 587 c 0
 277 608 275 617 275 626 c 0
 275 651 288 666 310 666 c 0
 331 666 346 650 346 627 c 0
 346 616 343 603 335 577 c 0
 323 543 319 522 319 500 c 2
EndSplineSet
MinimumDistance: x0,-1 
EndChar
StartChar: plus
Encoding: 43 43 11
Width: 675
Flags: W
HStem: 0 21G<305 371> 220 66<87 305 371 589>
VStem: 305 66<1 220 286 505>
Fore
305 286 m 1
 305 506 l 1
 371 506 l 1
 371 286 l 1
 590 286 l 1
 590 220 l 1
 371 220 l 1
 371 0 l 1
 305 0 l 1
 305 220 l 1
 86 220 l 1
 86 286 l 1
 305 286 l 1
EndSplineSet
MinimumDistance: x4,-1 y6,8 y6,7 y3,1 y3,2 x3,5 x3,4 x0,10 x0,11 
EndChar
StartChar: comma
Encoding: 44 44 12
Width: 250
Flags: W
VStem: 26 108.995<30 54>
Fore
5 -129 m 1
 -4 -112 l 1
 48 -77 71 -50 71 -23 c 0
 71 -13 66 -5 51 9 c 0
 32 26 26 37 26 54 c 0
 26 81 48 101 77 101 c 0
 110 101 135 70 135 30 c 0
 135 -26 89 -82 5 -129 c 1
EndSplineSet
KernsSLIF: 8217 -39 1 0 8221 -39 1 0 63196 -40 1 0
EndChar
StartChar: hyphen
Encoding: 45 45 13
Width: 333
Flags: W
HStem: 192 63<63 269>
Fore
282 255 m 1
 269 192 l 1
 49 192 l 1
 63 255 l 1
 282 255 l 1
EndSplineSet
KernsSLIF: 89 -53 1 0 87 -34 1 0 86 -43 1 0 84 -46 1 0 197 3 1 0 196 3 1 0 193 3 1 0 198 -23 1 0 65 3 1 0
EndChar
StartChar: period
Encoding: 46 46 14
Width: 250
Flags: W
HStem: -11 111<75 91>
VStem: 27 111<37 53>
Fore
82 100 m 0
 112 100 138 74 138 43 c 0
 138 13 112 -11 80 -11 c 0
 52 -11 27 14 27 43 c 0
 27 74 52 100 82 100 c 0
EndSplineSet
MinimumDistance: x1,-1 
KernsSLIF: 8217 -38 1 0 8221 -38 1 0 63196 -39 1 0
EndChar
StartChar: slash
Encoding: 47 47 15
Width: 278
Flags: W
HStem: 646 20G<313 386>
DStem: 313 666 386 666 -65 -18 8 -18
Fore
313 666 m 1
 386 666 l 1
 8 -18 l 1
 -65 -18 l 1
 313 666 l 1
EndSplineSet
EndChar
StartChar: zero
Encoding: 48 48 16
Width: 500
Flags: W
HStem: -7 28<192 208> 648 28<323 343>
VStem: 32 79.0015<156 213>
Fore
341 676 m 0
 438 676 497 581 497 423 c 0
 497 279 420 113 320 39 c 0
 278 8 236 -7 193 -7 c 0
 96 -7 32 81 32 213 c 0
 32 448 184 676 341 676 c 0
334 648 m 0
 290 648 251 617 215 553 c 0
 163 461 111 262 111 156 c 0
 111 71 143 21 197 21 c 0
 242 21 283 55 321 121 c 0
 378 223 418 388 418 522 c 0
 418 602 388 648 334 648 c 0
EndSplineSet
MinimumDistance: x7,-1 
EndChar
StartChar: one
Encoding: 49 49 17
Width: 500
Flags: W
HStem: 0 15<289 327>
VStem: 49 279<1 14>
DStem: 299 560 403 640 161 68 260 121
Fore
49 0 m 1
 49 14 l 1
 128 21 149 31 161 68 c 1
 299 560 l 2
 304 578 306 588 306 594 c 0
 306 614 291 626 268 625 c 2
 211 623 l 1
 211 638 l 1
 222 640 230 642 232 642 c 2
 322 660 l 1
 401 675 l 2
 402 676 404 676 404 676 c 2
 407 676 409 673 409 669 c 0
 409 664 407 655 403 640 c 2
 260 121 l 1
 259 116 l 1
 258 113 256 107 254 99 c 0
 246 74 242 56 242 47 c 0
 242 25 263 15 312 15 c 2
 328 15 l 1
 328 0 l 1
 49 0 l 1
EndSplineSet
MinimumDistance: x13,-1 
EndChar
StartChar: two
Encoding: 50 50 18
Width: 500
Flags: W
HStem: 0 76<112 316> 602.997 73.0034<241 290>
VStem: 365.154 86.5881<481 506>
Fore
400 139 m 1
 417 132 l 1
 367 0 l 1
 12 0 l 1
 12 17 l 1
 222 241 l 2
 288 311 333 374 357 428 c 0
 363 441 366 460 366 481 c 0
 366 551 312 603 241 603 c 0
 181 603 138 574 101 509 c 1
 80 516 l 1
 109 588 136 622 187 650 c 0
 217 666 255 676 290 676 c 0
 381 676 452 602 452 506 c 0
 452 440 420 390 303 273 c 2
 111 81 l 1
 111 76 l 1
 301 76 l 2
 355 76 376 89 400 139 c 1
EndSplineSet
EndChar
StartChar: three
Encoding: 51 51 19
Width: 500
Flags: W
HStem: 633.996 42.0044<290 326>
VStem: 325.998 80.0018<195 249> 379 87<537 553>
Fore
178 567 m 1
 162 572 l 1
 195 636 257 676 326 676 c 0
 406 676 466 622 466 549 c 0
 466 481 431 448 310 401 c 1
 310 398 l 1
 377 367 406 321 406 249 c 0
 406 160 356 76 277 30 c 0
 234 5 184 -7 127 -7 c 0
 56 -7 15 14 15 52 c 0
 15 77 31 91 59 91 c 0
 78 91 94 84 123 63 c 0
 153 41 176 31 195 31 c 0
 235 31 281 59 304 99 c 0
 318 123 326 159 326 195 c 0
 326 274 293 329 232 350 c 0
 206 360 193 361 140 361 c 1
 140 377 l 1
 229 392 272 407 314 436 c 0
 358 465 379 501 379 543 c 0
 379 597 343 634 290 634 c 0
 248 634 213 613 178 567 c 1
EndSplineSet
MinimumDistance: x3,-1 
EndChar
StartChar: four
Encoding: 52 52 20
Width: 500
Flags: W
HStem: 0 21G<214 293> 178 63<66 262 359 439>
DStem: 438 676 369 563 21 245 65 245
Fore
453 241 m 1
 439 176 l 1
 339 176 l 1
 293 0 l 1
 214 0 l 1
 263 178 l 1
 1 178 l 1
 21 245 l 1
 438 676 l 1
 479 676 l 1
 358 241 l 1
 453 241 l 1
277 241 m 1
 373 563 l 1
 369 563 l 1
 65 245 l 1
 65 241 l 1
 277 241 l 1
EndSplineSet
MinimumDistance: x13,-1 
EndChar
StartChar: five
Encoding: 53 53 21
Width: 500
Flags: W
HStem: 595 71<238 468>
VStem: 349.997 69.0025<242 280>
Fore
238 595 m 1
 199 507 l 1
 280 487 316 471 353 436 c 0
 396 395 419 342 419 280 c 0
 419 121 286 -7 121 -7 c 0
 55 -7 15 15 15 50 c 0
 15 74 32 90 56 90 c 0
 71 90 86 83 111 64 c 0
 140 43 158 35 179 35 c 0
 269 35 350 133 350 242 c 0
 350 295 329 345 297 371 c 0
 261 400 228 412 131 433 c 1
 131 448 l 1
 235 666 l 1
 491 666 l 1
 468 595 l 1
 238 595 l 1
EndSplineSet
MinimumDistance: x3,-1 
EndChar
StartChar: six
Encoding: 54 54 22
Width: 500
Flags: W
HStem: -7 26<198 215> 410.997 36.0034<259 292>
VStem: 30 76.0015<150 204> 373 89<265 286>
Fore
521 686 m 1
 521 670 l 1
 403 656 269 555 199 428 c 1
 203 426 l 1
 231 439 264 447 292 447 c 0
 391 447 462 373 462 271 c 0
 462 120 348 -7 213 -7 c 0
 102 -7 30 76 30 204 c 0
 30 347 107 489 234 583 c 0
 320 646 387 671 521 686 c 1
259 411 m 0
 212 411 180 391 152 345 c 0
 126 301 106 217 106 150 c 0
 106 68 142 19 203 19 c 0
 246 19 281 40 312 85 c 0
 349 137 373 216 373 284 c 0
 373 361 329 411 259 411 c 0
EndSplineSet
MinimumDistance: x5,-1 
EndChar
StartChar: seven
Encoding: 55 55 23
Width: 500
Flags: W
HStem: 593 73<203 444>
DStem: 156 666 537 656 75 530 149 -8 446 590 537 656 79 -8 149 -8
Fore
537 656 m 1
 149 -8 l 1
 79 -8 l 1
 446 590 l 1
 444 593 l 1
 222 593 l 2
 164 593 137 578 89 521 c 1
 75 530 l 1
 156 666 l 1
 531 666 l 1
 537 656 l 1
EndSplineSet
EndChar
StartChar: eight
Encoding: 56 56 24
Width: 500
Flags: W
HStem: -7 22<216 249> 653 23<302 331>
VStem: 30 68<153 173> 138 78<525 542> 369 75<155 175> 425 68<521 542>
Fore
329 382 m 1
 414 294 444 240 444 173 c 0
 444 70 352 -7 229 -7 c 0
 146 -7 86 22 53 79 c 0
 38 104 30 134 30 161 c 0
 30 249 99 319 225 360 c 1
 159 433 138 472 138 526 c 0
 138 615 211 676 318 676 c 0
 420 676 493 617 493 535 c 0
 493 464 447 421 329 382 c 1
247 344 m 1
 229 337 229 337 225 335 c 0
 148 300 98 230 98 155 c 0
 98 74 154 15 233 15 c 0
 311 15 369 74 369 155 c 0
 369 211 357 229 247 344 c 1
311 399 m 1
 344 415 l 2
 400 444 425 482 425 535 c 0
 425 605 382 653 318 653 c 0
 255 653 216 610 216 540 c 0
 216 498 233 472 311 399 c 1
EndSplineSet
MinimumDistance: x8,-1 
EndChar
StartChar: nine
Encoding: 57 57 25
Width: 500
Flags: W
HStem: 229.002 45.9976<219 257> 650 26<307 327>
VStem: 69 88<399 416> 417 74.9986<458 518>
Fore
23 -17 m 1
 23 1 l 1
 102 18 152 44 224 105 c 1
 286 162 336 227 352 272 c 1
 348 274 l 1
 296 241 260 229 219 229 c 0
 131 229 69 304 69 408 c 0
 69 548 185 676 311 676 c 0
 420 676 492 589 492 458 c 0
 492 323 424 189 308 98 c 0
 225 33 158 6 23 -17 c 1
318 650 m 0
 284 650 253 637 229 612 c 0
 186 568 157 488 157 414 c 0
 157 326 194 275 257 275 c 0
 295 275 336 292 362 318 c 0
 392 347 417 440 417 518 c 0
 417 601 380 650 318 650 c 0
EndSplineSet
EndChar
StartChar: colon
Encoding: 58 58 26
Width: 333
Flags: W
HStem: -11 111<98 114> 330 111<203 210>
VStem: 50 111<37 53> 150 111<373.714 389>
Fore
106 100 m 0
 136 100 161 74 161 43 c 0
 161 13 136 -11 104 -11 c 0
 75 -11 50 14 50 43 c 0
 50 74 75 100 106 100 c 0
205 441 m 0
 236 441 261 416 261 384 c 0
 261 354 236 330 204 330 c 0
 174 330 150 354 150 384 c 0
 150 416 174 441 205 441 c 0
EndSplineSet
MinimumDistance: x5,-1 
EndChar
StartChar: semicolon
Encoding: 59 59 27
Width: 333
Flags: W
HStem: 330 111<203 207>
VStem: 57 108.995<30 54> 150 111<373.714 386>
Fore
36 -129 m 1
 27 -112 l 1
 79 -77 102 -50 102 -23 c 0
 102 -13 97 -5 82 9 c 0
 63 26 57 37 57 54 c 0
 57 81 79 101 108 101 c 0
 141 101 166 70 166 30 c 0
 166 -26 120 -82 36 -129 c 1
205 441 m 0
 236 441 261 416 261 384 c 0
 261 354 236 330 204 330 c 0
 174 330 150 354 150 384 c 0
 150 416 174 441 205 441 c 0
EndSplineSet
MinimumDistance: x8,-1 
EndChar
StartChar: less
Encoding: 60 60 28
Width: 675
Flags: W
DStem: 84 220 172 253 592 -10 592 62 592 516 592 444 84 286 172 253
Fore
592 -10 m 1
 84 220 l 1
 84 286 l 1
 592 516 l 1
 592 444 l 1
 172 253 l 1
 592 62 l 1
 592 -10 l 1
EndSplineSet
MinimumDistance: x0,-1 
EndChar
StartChar: equal
Encoding: 61 61 29
Width: 675
Flags: W
HStem: 120 66<87 589> 320 66<87 589>
VStem: 86 504<121 185 321 385>
Fore
590 386 m 1
 590 320 l 1
 86 320 l 1
 86 386 l 1
 590 386 l 1
590 186 m 1
 590 120 l 1
 86 120 l 1
 86 186 l 1
 590 186 l 1
EndSplineSet
MinimumDistance: x0,-1 
EndChar
StartChar: greater
Encoding: 62 62 30
Width: 675
Flags: W
DStem: 84 444 84 516 504 253 592 286 504 253 592 220 84 62 84 -10
Fore
84 -10 m 1
 84 62 l 1
 504 253 l 1
 84 444 l 1
 84 516 l 1
 592 286 l 1
 592 220 l 1
 84 -10 l 1
EndSplineSet
MinimumDistance: x5,-1 
EndChar
StartChar: question
Encoding: 63 63 31
Width: 500
Flags: W
HStem: -12 105<180 187> 642 22<308 326>
VStem: 132 105<36 42> 184.885 78.1155<543 548> 397.257 74.6248<535 557>
Fore
216 174 m 1
 199 176 l 1
 216 275 228 297 311 392 c 1
 376 463 398 505 398 557 c 0
 398 611 369 642 318 642 c 0
 275 642 248 624 248 594 c 0
 248 586 250 580 256 567 c 0
 261 555 263 549 263 542 c 0
 263 522 246 507 223 507 c 0
 199 507 184 525 184 555 c 0
 184 619 242 664 324 664 c 0
 413 664 472 613 472 535 c 0
 472 474 452 447 338 354 c 0
 267 297 237 259 223 203 c 2
 216 174 l 1
184 93 m 0
 213 93 237 69 237 40 c 0
 237 13 212 -12 185 -12 c 0
 155 -12 132 11 132 40 c 128
 132 69 155 93 184 93 c 0
EndSplineSet
EndChar
StartChar: at
Encoding: 64 64 32
Width: 920
Flags: W
HStem: -18 39<470 502> 138.24 32.7604<630 637> 139.005 41.9951<410 451> 635 31<470 502>
VStem: 118 83<302 334> 321 71<249 270> 766 40<366 382>
DStem: 597 486 666 486 587 449 601 234
Fore
587 449 m 1
 597 486 l 1
 666 486 l 1
 601 234 l 2
 599 227 598 218 598 213 c 0
 598 186 611 171 635 171 c 0
 660 171 685 183 704 202 c 0
 741 241 766 307 766 367 c 0
 766 513 637 635 481 635 c 0
 318 635 201 500 201 313 c 0
 201 142 323 21 494 21 c 0
 559 21 608 33 686 68 c 1
 698 39 l 1
 604 -5 553 -18 482 -18 c 0
 278 -18 118 130 118 319 c 0
 118 512 278 666 481 666 c 0
 664 666 806 539 806 376 c 0
 806 248 721 138 622 138 c 0
 575 138 539 167 533 210 c 1
 497 165 452 139 410 139 c 0
 360 139 321 187 321 250 c 0
 321 321 352 398 403 450 c 0
 433 482 474 500 516 500 c 0
 551 500 565 490 587 449 c 1
530 456 m 0
 506 458 471 438 443 406 c 0
 410 368 392 318 392 265 c 0
 392 213 414 181 451 181 c 0
 507 181 564 281 570 394 c 0
 572 431 557 454 530 456 c 0
EndSplineSet
MinimumDistance: x16,-1 
EndChar
StartChar: A
Encoding: 65 65 33
Width: 611
Flags: W
HStem: 0 21G<-51 136 318 564> 226 36<176 368>
VStem: -51 187<1 16> 318 246<1 16>
DStem: 325 522 394 668 369 262 488 102 368 668 325 522 78 168 175 262
Fore
564 16 m 1
 564 0 l 1
 318 0 l 1
 318 16 l 1
 382 22 396 31 396 69 c 0
 396 77 395 86 394 95 c 1
 374 226 l 1
 154 226 l 1
 97 113 l 2
 80 79 77 70 77 51 c 0
 77 26 85 21 136 16 c 1
 136 0 l 1
 -51 0 l 1
 -51 16 l 1
 -11 24 -1 35 78 168 c 1
 368 668 l 1
 394 668 l 1
 488 102 l 1
 501 29 507 21 564 16 c 1
175 262 m 1
 369 262 l 1
 325 522 l 1
 175 262 l 1
EndSplineSet
MinimumDistance: x0,-1 
KernsSLIF: 121 -57 0 0 119 -44 0 0 118 -50 0 0 117 -9 0 0 116 -6 0 0 8217 -92 0 0 8221 -92 0 0 113 -12 0 0 46 8 0 0 111 -17 0 0 45 -13 0 0 8249 -43 0 0 171 -44 0 0 103 -25 0 0 101 -17 0 0 100 -4 0 0 44 8 0 0 231 -28 0 0 99 -18 0 0 97 -4 0 0 89 -21 0 0 87 -75 0 0 86 -81 0 0 217 -57 0 0 220 -57 0 0 219 -57 0 0 218 -57 0 0 85 -57 0 0 84 -14 0 0 81 -44 0 0 214 -45 0 0 79 -45 0 0 71 -44 0 0 199 -50 0 0 67 -50 0 0
EndChar
StartChar: B
Encoding: 66 66 34
Width: 611
Flags: W
HStem: 0 30<217.316 249> 330.96 32.0398<248.125 289.408> 331 322<238.063 288.515> 623 30<360 392>
VStem: 431 108<192 214> 487 101<496 517>
DStem: 196 532 313 595 73 90 248 363
Fore
-8 0 m 1
 -8 16 l 1
 48 26 55 32 73 90 c 1
 196 532 l 1
 203 556 207 581 207 596 c 0
 207 624 192 632 130 637 c 1
 130 653 l 1
 388 653 l 2
 517 653 588 601 588 506 c 0
 588 466 573 432 545 408 c 0
 513 380 484 368 413 351 c 1
 465 329 485 317 505 294 c 1
 527 272 539 237 539 200 c 0
 539 82 431 0 274 0 c 2
 -8 0 l 1
238 331 m 1
 225 280 219 257 206 212 c 0
 183 132 171 84 171 72 c 0
 171 45 193 30 235 30 c 0
 357 30 431 96 431 204 c 0
 431 258 406 302 365 319 c 0
 345 327 303 331 238 331 c 1
313 595 m 2
 248 363 l 1
 338 363 386 370 420 390 c 0
 463 414 487 458 487 515 c 0
 487 589 450 623 370 623 c 0
 331 623 319 617 313 595 c 2
EndSplineSet
MinimumDistance: x8,-1 
KernsSLIF: 89 -39 0 0 87 -29 0 0 86 -32 0 0 216 -14 0 0 210 -14 0 0 214 -14 0 0 212 -14 0 0 211 -14 0 0 338 -6 0 0 79 -14 0 0 195 -23 0 0 197 -23 0 0 196 -23 0 0 194 -23 0 0 193 -23 0 0 198 -35 0 0 65 -23 0 0
EndChar
StartChar: C
Encoding: 67 67 35
Width: 667
Flags: W
HStem: -17.8293 44.8293<338 353> 630 36<466 483> 644 20G<668 689>
VStem: 66 112<222 254>
Fore
652 465 m 1
 634 468 l 1
 624 576 573 630 481 630 c 0
 415 630 352 602 304 553 c 0
 226 472 178 351 178 232 c 0
 178 103 242 27 353 27 c 0
 435 27 493 57 583 145 c 1
 600 131 l 1
 510 26 430 -18 327 -18 c 0
 174 -18 66 90 66 243 c 0
 66 465 259 666 472 666 c 0
 504 666 544 660 589 649 c 0
 610 644 622 642 630 642 c 0
 650 642 660 648 668 664 c 1
 689 664 l 1
 652 465 l 1
EndSplineSet
MinimumDistance: x4,-1 
KernsSLIF: 214 -19 0 0 211 -19 0 0 79 -19 0 0 75 -21 0 0 72 -13 0 0 197 -14 0 0 196 -14 0 0 193 -14 0 0 198 -30 0 0 65 -14 0 0
EndChar
StartChar: D
Encoding: 68 68 36
Width: 722
Flags: W
HStem: 0 30<216 264> 623 30<360 392>
VStem: 589 111<383 410>
DStem: 196 532 313 594 73 90 192 162
Fore
130 637 m 1
 130 653 l 1
 408 653 l 2
 586 653 700 548 700 384 c 0
 700 268 643 158 546 87 c 0
 469 31 362 0 245 0 c 2
 -8 0 l 1
 -8 16 l 1
 48 26 55 32 73 90 c 1
 196 532 l 2
 203 557 207 581 207 596 c 0
 207 623 192 631 130 637 c 1
313 594 m 2
 192 162 l 2
 175 102 170 80 170 67 c 0
 170 41 189 30 235 30 c 0
 339 30 420 60 479 120 c 0
 547 188 589 300 589 408 c 0
 589 487 562 550 513 586 c 0
 481 610 431 623 374 623 c 0
 334 623 319 616 313 594 c 2
EndSplineSet
MinimumDistance: x3,-1 
KernsSLIF: 89 -50 0 0 88 -40 0 0 87 -36 0 0 86 -42 0 0 84 -9 0 0 74 -32 0 0 195 -36 0 0 197 -36 0 0 192 -36 0 0 196 -36 0 0 194 -36 0 0 193 -36 0 0 65 -36 0 0
EndChar
StartChar: E
Encoding: 69 69 37
Width: 604
Flags: W
HStem: 0 33<232 280> 325 38<296 315 315.031 325> 620 33<360 440>
DStem: 196 532 312 594 73 90 246 361
Fore
627 653 m 1
 596 500 l 1
 575 502 l 1
 576 519 577 534 577 547 c 0
 577 607 542 620 385 620 c 0
 329 620 318 616 312 594 c 2
 246 361 l 1
 281 362 313 363 325 363 c 0
 416 367 425 373 463 458 c 1
 481 454 l 1
 413 222 l 1
 393 227 l 1
 398 249 400 262 400 279 c 128
 400 296 398 305 393 310 c 0
 382 320 354 326 315 325 c 0
 303 325 272 326 237 328 c 1
 227 290 218 257 205 213 c 0
 180 125 169 78 169 67 c 0
 169 43 193 33 249 33 c 0
 324 33 392 43 429 60 c 0
 472 80 498 106 545 170 c 1
 561 162 l 1
 499 0 l 1
 -8 0 l 1
 -8 16 l 1
 48 26 56 33 73 90 c 1
 196 532 l 2
 201 550 207 585 207 596 c 0
 207 623 192 631 130 637 c 1
 130 653 l 1
 627 653 l 1
EndSplineSet
MinimumDistance: x5,-1 
EndChar
StartChar: F
Encoding: 70 70 38
Width: 611
Flags: W
HStem: 0 21G<-8 244> 325.958 35.4638<280 296> 620 33<360 440>
VStem: -8 252<1 16>
DStem: 197 532 314 594 74 90 248 361 197 532 239 328 74 90 177 105
Fore
629 653 m 1
 597 500 l 1
 576 502 l 1
 577 514 577 515 578 521 c 0
 579 534 579 539 579 545 c 0
 579 607 543 620 375 620 c 0
 334 620 320 614 314 594 c 1
 248 361 l 1
 416 363 419 364 464 454 c 1
 482 449 l 1
 406 215 l 1
 389 220 l 1
 395 251 397 263 397 279 c 0
 397 299 390 312 375 320 c 0
 366 324 359 325 320 325 c 0
 298 325 276 326 239 328 c 1
 177 105 l 2
 171 83 168 68 168 60 c 0
 168 30 186 19 244 16 c 1
 244 0 l 1
 -8 0 l 1
 -8 16 l 1
 49 24 56 30 74 90 c 1
 197 532 l 1
 204 556 208 581 208 596 c 0
 208 625 196 631 131 637 c 1
 131 653 l 1
 629 653 l 1
EndSplineSet
MinimumDistance: x6,-1 
KernsSLIF: 117 -50 0 0 114 -52 0 0 46 -99 0 0 248 -80 0 0 339 -75 0 0 246 -52 0 0 243 -79 0 0 111 -79 0 0 106 -41 0 0 105 -36 0 0 45 -45 0 0 233 -83 0 0 101 -83 0 0 44 -95 0 0 229 -70 0 0 230 -82 0 0 228 -52 0 0 225 -78 0 0 97 -77 0 0 214 -40 0 0 79 -40 0 0 74 -60 0 0 195 -72 0 0 197 -72 0 0 192 -72 0 0 196 -72 0 0 194 -72 0 0 193 -72 0 0 65 -72 0 0
EndChar
StartChar: G
Encoding: 71 71 39
Width: 722
Flags: W
HStem: -18 37<339 372> 300 19<484 485> 632 34<452 471>
VStem: 52 110<224 254> 456 266<303 318>
Fore
708 662 m 1
 659 465 l 1
 641 468 l 1
 636 512 629 533 613 559 c 0
 583 605 528 632 463 632 c 0
 397 632 335 605 290 558 c 0
 211 474 162 347 162 224 c 0
 162 93 235 19 364 19 c 0
 409 19 447 31 469 53 c 0
 481 65 484 73 506 145 c 0
 528 219 534 247 534 269 c 0
 534 287 518 297 485 300 c 0
 481 300 468 302 456 303 c 1
 456 319 l 1
 722 319 l 1
 722 303 l 1
 657 299 641 287 625 231 c 1
 576 44 l 1
 499 1 427 -18 339 -18 c 0
 252 -18 179 9 128 60 c 0
 81 108 52 178 52 246 c 0
 52 466 244 666 455 666 c 0
 496 666 539 658 589 642 c 0
 611 635 623 632 633 632 c 0
 659 632 676 642 693 666 c 1
 708 662 l 1
EndSplineSet
KernsSLIF: 89 -12 0 0 87 -2 0 0 86 -5 0 0 84 -13 0 0 195 -17 0 0 197 -17 0 0 192 -17 0 0 196 -17 0 0 194 -17 0 0 193 -17 0 0 198 -29 0 0 65 -17 0 0
EndChar
StartChar: H
Encoding: 72 72 40
Width: 722
Flags: W
HStem: 0 21G<-8 238 355 628> 326 42<249 520> 633 20G<130 403 520 767>
VStem: -8 246<1 16> 130 273<637 652> 355 273<1 16> 520 247<637 652>
DStem: 196 532 302 563 73 90 248 368 196 532 685 563 73 90 553 82 196 532 236 326 73 90 170 82 521 326 685 563 456 90 553 82 579 532 685 563 533 368 553 82
Fore
767 653 m 1
 767 637 l 1
 710 627 702 621 685 563 c 1
 553 82 l 2
 551 74 550 68 550 58 c 0
 550 30 564 22 628 16 c 1
 628 0 l 1
 355 0 l 1
 355 16 l 1
 420 23 440 38 456 90 c 1
 521 326 l 1
 236 326 l 1
 170 82 l 2
 168 75 167 67 167 60 c 0
 167 31 178 24 238 16 c 1
 238 0 l 1
 -8 0 l 1
 -8 16 l 1
 48 26 55 32 73 90 c 1
 196 532 l 2
 203 557 207 580 207 594 c 0
 207 623 192 631 130 637 c 1
 130 653 l 1
 403 653 l 1
 403 637 l 1
 343 633 317 614 302 563 c 1
 248 368 l 1
 533 368 l 1
 579 532 l 2
 586 557 590 580 590 594 c 0
 590 622 578 630 520 637 c 1
 520 653 l 1
 767 653 l 1
EndSplineSet
EndChar
StartChar: I
Encoding: 73 73 41
Width: 339
Flags: W
HStem: 0 21G<-8 236> 633 20G<137 384>
VStem: -8 244<1 16> 137 247<637 652>
DStem: 196 532 302 563 73 90 179 120
Fore
-8 0 m 1
 -8 16 l 1
 48 26 55 32 73 90 c 1
 196 532 l 2
 203 557 207 580 207 594 c 0
 207 622 195 630 137 637 c 1
 137 653 l 1
 384 653 l 1
 384 637 l 1
 327 627 320 621 302 563 c 1
 179 120 l 2
 170 88 168 76 168 57 c 0
 168 29 179 23 236 16 c 1
 236 0 l 1
 -8 0 l 1
EndSplineSet
EndChar
StartChar: J
Encoding: 74 74 42
Width: 444
Flags: W
HStem: -18 31<112 124> 633 20G<237 491>
VStem: -6 94<62 79> 237 254<637 652>
DStem: 302 532 409 563 171 67 306 192
Fore
491 653 m 1
 491 637 l 1
 434 629 427 623 409 563 c 1
 306 192 l 2
 285 116 265 71 238 39 c 0
 207 2 162 -18 111 -18 c 0
 41 -18 -6 18 -6 70 c 0
 -6 102 13 124 40 124 c 0
 65 124 88 102 88 77 c 2
 88 68 l 1
 87 62 87 58 87 53 c 0
 87 26 98 13 122 13 c 128
 146 13 160 28 171 67 c 2
 302 532 l 2
 310 560 314 582 314 596 c 0
 314 623 300 631 237 637 c 1
 237 653 l 1
 491 653 l 1
EndSplineSet
KernsSLIF: 197 -40 0 0 196 -40 0 0 198 -52 0 0 65 -40 0 0
EndChar
StartChar: K
Encoding: 75 75 43
Width: 652
Flags: W
HStem: 0 19<344 357> 634 19<504 512>
VStem: -8 248<1 16> 131 273<637 652> 328 275<1 16> 485 222<637 652>
DStem: 197 532 303 563 74 90 250 369 197 532 244 348 74 90 182 120 197 532 182 120 74 90 176 99 244 348 332 375 365 140 506 72
Fore
707 653 m 1
 707 637 l 1
 683 633 660 622 632 601 c 2
 332 375 l 1
 506 72 l 1
 534 25 540 22 603 16 c 1
 603 0 l 1
 328 0 l 1
 328 16 l 1
 341 18 352 19 357 19 c 0
 389 22 403 30 403 45 c 0
 403 64 389 99 365 140 c 2
 244 348 l 1
 182 120 l 1
 176 99 l 2
 170 79 168 70 168 60 c 0
 168 29 177 23 240 16 c 1
 240 0 l 1
 -8 0 l 1
 -8 16 l 1
 51 25 56 30 74 90 c 1
 197 532 l 2
 204 557 208 580 208 594 c 0
 208 623 193 631 131 637 c 1
 131 653 l 1
 404 653 l 1
 404 637 l 1
 345 633 318 613 303 563 c 1
 250 369 l 1
 402 475 l 2
 491 537 546 591 546 615 c 0
 546 626 536 632 512 634 c 0
 508 634 497 636 485 637 c 1
 485 653 l 1
 707 653 l 1
EndSplineSet
KernsSLIF: 121 -89 0 0 252 -10 0 0 117 -10 0 0 246 -18 0 0 243 -18 0 0 111 -18 0 0 45 -57 0 0 101 -18 0 0 229 -5 0 0 230 -5 0 0 228 -5 0 0 97 -5 0 0 84 21 0 0 83 6 0 0 214 -46 0 0 211 -46 0 0 338 -45 0 0 79 -46 0 0 71 -53 0 0 67 -55 0 0
EndChar
StartChar: L
Encoding: 76 76 44
Width: 556
Flags: W
HStem: 0 36<232 312> 633 20G<130 403>
VStem: 130 273<637 652>
DStem: 196 532 302 563 73 90 179 120
Fore
403 653 m 1
 403 637 l 1
 343 633 317 614 302 563 c 1
 179 120 l 2
 174 101 169 77 169 70 c 0
 169 44 194 36 270 36 c 0
 357 36 398 42 433 59 c 0
 477 81 504 113 539 185 c 1
 559 179 l 1
 501 0 l 1
 -8 0 l 1
 -8 16 l 1
 48 26 55 32 73 90 c 1
 196 532 l 2
 203 557 207 580 207 594 c 0
 207 623 192 631 130 637 c 1
 130 653 l 1
 403 653 l 1
EndSplineSet
MinimumDistance: x0,-1 
KernsSLIF: 121 -26 0 0 252 10 0 0 117 12 0 0 8217 -92 0 0 8221 -92 0 0 45 47 0 0 89 -20 0 0 87 -48 0 0 86 -55 0 0 220 -8 0 0 85 -8 0 0 84 -13 0 0 83 20 0 0 213 10 0 0 210 10 0 0 214 10 0 0 212 10 0 0 211 10 0 0 79 10 0 0 71 11 0 0 199 4 0 0 67 6 0 0 197 44 0 0 196 44 0 0 193 44 0 0 198 32 0 0 65 44 0 0
EndChar
StartChar: M
Encoding: 77 77 45
Width: 828
Flags: W
HStem: 0 21G<-18 180 297 314 461 734> 633 20G<134 315 706 873>
VStem: -18 198<1 16> 461 273<1 16>
DStem: 186 518 236 546 80 146 118 113 236 546 315 653 297 0 370 160 691 561 791 563 562 91 668 120 706 653 691 561 370 160 314 0
Fore
873 653 m 1
 873 637 l 1
 814 628 809 623 791 563 c 1
 668 120 l 1
 659 89 657 76 657 59 c 0
 657 28 666 22 734 16 c 1
 734 0 l 1
 461 0 l 1
 461 16 l 1
 526 23 546 38 562 91 c 1
 691 561 l 1
 314 0 l 1
 297 0 l 1
 236 546 l 1
 118 113 l 1
 113 96 109 70 109 60 c 0
 109 32 129 20 180 16 c 1
 180 0 l 1
 -18 0 l 1
 -18 16 l 1
 34 22 49 42 80 146 c 1
 186 518 l 2
 187 522 188 526 189 529 c 0
 193 544 196 555 198 559 c 0
 204 577 208 592 208 600 c 0
 208 623 184 634 134 637 c 1
 134 653 l 1
 315 653 l 1
 370 160 l 1
 706 653 l 1
 873 653 l 1
EndSplineSet
MinimumDistance: x2,-1 
EndChar
StartChar: N
Encoding: 78 78 46
Width: 657
Flags: W
HStem: 0 21G<-18 180> 633 20G<118 279 530 729>
VStem: -18 198<1 16> 530 199<637 652>
DStem: 233 535 279 653 463 -15 487 154
Fore
729 653 m 1
 729 637 l 1
 666 623 662 617 625 488 c 2
 481 -15 l 1
 463 -15 l 1
 233 535 l 1
 119 113 l 1
 113 92 110 72 110 59 c 0
 110 31 129 20 180 16 c 1
 180 0 l 1
 -18 0 l 1
 -18 16 l 1
 39 24 47 36 85 164 c 1
 204 581 l 1
 186 620 165 633 118 637 c 1
 118 653 l 1
 279 653 l 1
 487 154 l 1
 589 534 l 1
 589 535 590 539 591 542 c 0
 598 562 600 574 600 586 c 0
 600 622 587 632 530 637 c 1
 530 653 l 1
 729 653 l 1
EndSplineSet
KernsSLIF: 252 -25 0 0 117 -24 0 0 46 -16 0 0 248 -27 0 0 246 -27 0 0 243 -27 0 0 111 -25 0 0 233 -30 0 0 101 -28 0 0 44 -13 0 0 229 -23 0 0 230 -27 0 0 228 -23 0 0 225 -23 0 0 97 -22 0 0 214 -20 0 0 211 -20 0 0 79 -20 0 0 71 -14 0 0 199 -20 0 0 67 -21 0 0 197 -20 0 0 196 -20 0 0 193 -20 0 0 198 -32 0 0 65 -20 0 0
EndChar
StartChar: O
Encoding: 79 79 47
Width: 722
Flags: W
HStem: -18 33<277 300> 633 33<460 482>
VStem: 60.3532 105.472<184 221>
Fore
474 666 m 0
 608 666 706 559 699 418 c 0
 688 192 486 -18 278 -18 c 0
 151 -18 60 81 60 221 c 0
 60 338 119 460 220 553 c 0
 300 626 390 666 474 666 c 0
465 633 m 0
 392 633 331 595 275 514 c 0
 215 427 165 278 165 184 c 0
 165 76 211 15 295 15 c 0
 365 15 427 54 482 133 c 0
 547 227 594 373 594 481 c 0
 594 575 544 633 465 633 c 0
EndSplineSet
MinimumDistance: x7,-1 
KernsSLIF: 89 -51 0 0 88 -41 0 0 87 -39 0 0 86 -45 0 0 84 -3 0 0 197 -38 0 0 196 -38 0 0 193 -38 0 0 198 -70 0 0 65 -38 0 0
EndChar
StartChar: P
Encoding: 80 80 48
Width: 603
Flags: W
HStem: 0 21G<-8 237> 305 37<294 328> 623 30<344.304 376>
VStem: -8 245<1 16> 494 103<496 517>
DStem: 192 515 314 595 74 90 243 347 192 515 234 313 74 90 181 120
Fore
138 637 m 1
 138 653 l 1
 386 653 l 2
 522 653 597 600 597 504 c 0
 597 445 568 390 518 353 c 0
 475 322 408 305 326 305 c 0
 285 305 259 307 234 313 c 1
 181 120 l 2
 171 84 169 74 169 62 c 0
 169 28 174 25 237 16 c 1
 237 0 l 1
 -8 0 l 1
 -8 16 l 1
 49 24 56 30 74 90 c 1
 192 515 l 1
 205 560 209 581 209 595 c 0
 209 621 195 630 138 637 c 1
314 595 m 2
 243 347 l 1
 270 343 278 342 295 342 c 0
 357 342 396 350 427 367 c 0
 471 393 494 439 494 504 c 0
 494 551 483 581 457 599 c 0
 437 613 399 623 360 623 c 0
 332 623 320 616 314 595 c 2
EndSplineSet
MinimumDistance: x3,-1 
KernsSLIF: 46 -121 0 0 248 -74 0 0 339 -67 0 0 246 -64 0 0 243 -73 0 0 111 -73 0 0 45 -64 0 0 233 -79 0 0 101 -79 0 0 44 -118 0 0 229 -74 0 0 230 -80 0 0 228 -64 0 0 225 -74 0 0 97 -74 0 0 74 -89 0 0 197 -79 0 0 196 -79 0 0 193 -79 0 0 198 -116 0 0 65 -79 0 0
EndChar
StartChar: Q
Encoding: 81 81 49
Width: 722
Flags: W
HStem: -182.997 67.9971<429 484> 633 33<449 482>
VStem: 60.609 104.932<183 221> 594 104.998<433 480>
Fore
279 -16 m 1
 225 -73 l 1
 250 -73 l 1
 250 -73 252 -73 256 -72 c 0
 262 -71 309 -80 361 -93 c 0
 437 -111 458 -115 484 -115 c 0
 556 -115 597 -96 653 -38 c 1
 668 -49 l 1
 642 -85 629 -99 605 -117 c 0
 554 -157 484 -183 429 -183 c 0
 392 -183 338 -173 277 -156 c 0
 233 -144 204 -138 184 -138 c 0
 145 -138 107 -148 69 -169 c 1
 59 -154 l 1
 136 -100 145 -92 236 -12 c 1
 192 -2 170 8 144 29 c 0
 90 71 60 139 60 221 c 0
 60 338 119 459 220 553 c 1
 300 625 390 666 470 666 c 0
 603 666 699 568 699 433 c 0
 699 275 598 113 450 30 c 0
 394 -1 356 -11 279 -16 c 1
465 633 m 0
 392 633 331 595 275 514 c 0
 214 427 165 278 165 183 c 0
 165 78 212 17 293 17 c 0
 366 17 428 56 483 135 c 0
 547 227 594 374 594 480 c 0
 594 575 545 633 465 633 c 0
EndSplineSet
EndChar
StartChar: R
Encoding: 82 82 50
Width: 616
Flags: W
HStem: 0 21G<-8 236 424 572> 623 30<345.894 386>
VStem: -8 244<1 16> 488 105<496 513>
DStem: 196 532 313 595 73 90 248 366 196 532 236 329 73 90 180 120 301 324 396 333 424 0 489 88
Fore
572 16 m 1
 572 0 l 1
 424 0 l 1
 301 324 l 1
 236 329 l 1
 180 120 l 1
 171 85 168 72 168 62 c 0
 168 29 175 24 236 16 c 1
 236 0 l 1
 -8 0 l 1
 -8 16 l 1
 48 25 55 31 73 90 c 1
 196 532 l 1
 203 559 208 583 208 595 c 0
 208 606 202 618 194 623 c 0
 184 630 179 631 137 637 c 1
 137 653 l 1
 385 653 l 2
 519 653 593 602 593 509 c 0
 593 464 575 425 542 396 c 0
 506 364 473 350 396 333 c 1
 489 88 l 1
 508 36 528 19 572 16 c 1
313 595 m 2
 248 366 l 1
 272 362 283 361 299 361 c 0
 424 361 488 412 488 511 c 0
 488 585 447 623 364 623 c 0
 332 623 319 616 313 595 c 2
EndSplineSet
MinimumDistance: x18,-1 
KernsSLIF: 252 -7 0 0 250 -7 0 0 117 -7 0 0 339 -15 0 0 246 -15 0 0 243 -15 0 0 111 -15 0 0 45 -29 0 0 233 -15 0 0 101 -15 0 0 229 -3 0 0 230 -3 0 0 228 -3 0 0 225 -3 0 0 97 -3 0 0 89 -19 0 0 87 -28 0 0 86 -31 0 0 220 -36 0 0 85 -36 0 0 214 -26 0 0 211 -26 0 0 338 -18 0 0 79 -26 0 0 71 -20 0 0 199 -25 0 0 67 -26 0 0
EndChar
StartChar: S
Encoding: 83 83 51
Width: 500
Flags: W
HStem: -18 35<209 231> 633 33<311 331>
VStem: 131.316 88.6371<499 531> 343.998 87.0024<150 182>
Fore
468 468 m 1
 450 471 l 1
 448 537 440 571 418 596 c 0
 397 620 366 633 329 633 c 0
 261 633 219 594 219 531 c 0
 219 482 228 468 318 377 c 128
 408 286 431 247 431 182 c 0
 431 69 344 -18 229 -18 c 0
 198 -18 171 -12 125 5 c 0
 99 14 84 18 73 18 c 0
 53 18 42 8 35 -15 c 1
 17 -15 l 1
 51 208 l 1
 71 206 l 1
 70 199 69 191 69 183 c 0
 69 88 132 17 215 17 c 0
 288 17 344 75 344 150 c 0
 344 193 331 219 284 268 c 0
 277 276 263 291 245 310 c 0
 228 329 215 343 206 352 c 0
 146 416 131 445 131 499 c 0
 131 597 205 666 309 666 c 0
 340 666 372 661 394 652 c 0
 417 644 428 641 440 641 c 0
 462 641 471 646 485 667 c 1
 508 667 l 1
 468 468 l 1
EndSplineSet
MinimumDistance: x6,-1 
KernsSLIF: 116 -13 0 0 89 -1 0 0 87 8 0 0 86 5 0 0 84 1 0 0 197 -2 0 0 196 -2 0 0 193 -2 0 0 198 -14 0 0 65 -2 0 0
EndChar
StartChar: T
Encoding: 84 84 52
Width: 556
Flags: W
HStem: 0 19<317 330.536> 618 35<251 314 416 491>
VStem: 65 290<1 16>
DStem: 315 618 416 618 171 90 277 120
Fore
633 653 m 1
 589 490 l 1
 572 492 l 1
 574 509 575 524 575 537 c 0
 575 593 543 618 471 618 c 2
 416 618 l 1
 277 120 l 1
 268 86 265 74 265 61 c 0
 265 31 277 22 317 19 c 0
 323 19 338 17 355 16 c 1
 355 0 l 1
 65 0 l 1
 65 16 l 1
 131 21 155 37 171 90 c 1
 315 618 l 1
 162 620 130 603 77 495 c 1
 59 499 l 1
 101 653 l 1
 633 653 l 1
EndSplineSet
MinimumDistance: x5,-1 
KernsSLIF: 121 -70 0 0 119 -69 0 0 118 -72 0 0 117 -86 0 0 59 -92 0 0 115 -74 0 0 114 -87 0 0 46 -71 0 0 248 -89 0 0 111 -87 0 0 106 -20 0 0 105 -16 0 0 45 -68 0 0 8249 -101 0 0 171 -102 0 0 103 -102 0 0 101 -90 0 0 44 -70 0 0 58 -84 0 0 99 -86 0 0 230 -81 0 0 97 -81 0 0 89 33 0 0 87 43 0 0 86 41 0 0 83 -2 0 0 213 -20 0 0 216 -20 0 0 210 -20 0 0 214 -20 0 0 212 -20 0 0 211 -20 0 0 338 -8 0 0 79 -20 0 0 74 -39 0 0 71 -7 0 0 67 -15 0 0 195 -33 0 0 197 -33 0 0 192 -33 0 0 196 -33 0 0 194 -33 0 0 193 -33 0 0 198 -45 0 0 65 -33 0 0
EndChar
StartChar: U
Encoding: 85 85 53
Width: 722
Flags: W
HStem: -18 41<319 342> 633 20G<127 400 566 765>
VStem: 102 90<140 149> 127 273<637 652> 566 199<637 652>
Fore
765 653 m 1
 765 637 l 1
 703 623 699 618 661 488 c 2
 578 203 l 2
 534 53 451 -18 320 -18 c 0
 194 -18 102 51 102 147 c 0
 102 187 115 251 145 359 c 2
 198 551 l 1
 202 568 205 584 205 596 c 0
 205 625 194 631 127 637 c 1
 127 653 l 1
 400 653 l 1
 400 637 l 1
 332 630 316 616 295 546 c 0
 294 541 292 534 290 527 c 0
 223 296 192 175 192 141 c 0
 192 71 249 23 332 23 c 0
 402 23 456 54 495 116 c 0
 517 150 532 190 550 255 c 0
 555 274 559 291 563 304 c 0
 611 473 637 575 637 591 c 0
 637 604 630 618 620 624 c 0
 608 632 598 634 566 637 c 1
 566 653 l 1
 765 653 l 1
EndSplineSet
KernsSLIF: 114 -41 0 0 46 -39 0 0 112 -32 0 0 110 -29 0 0 109 -28 0 0 44 -35 0 0 195 -50 0 0 197 -50 0 0 196 -50 0 0 194 -50 0 0 193 -50 0 0 198 -69 0 0 65 -50 0 0
EndChar
StartChar: V
Encoding: 86 86 54
Width: 611
Flags: W
HStem: 633 20G<76 317 502 688>
VStem: 76 241<637 652> 502 186<637 652>
DStem: 513 484 632 597 307 128 259 -18
Fore
688 653 m 1
 688 637 l 1
 665 636 649 624 632 597 c 2
 259 -18 l 1
 240 -18 l 1
 155 502 l 1
 134 627 132 630 76 637 c 1
 76 653 l 1
 317 653 l 1
 317 637 l 1
 254 630 240 620 240 586 c 0
 240 580 240 576 241 571 c 1
 307 128 l 1
 513 484 l 2
 546 541 565 584 565 603 c 128
 565 622 547 632 502 637 c 1
 502 653 l 1
 688 653 l 1
EndSplineSet
KernsSLIF: 121 -16 0 0 117 -40 0 0 59 -79 0 0 114 -45 0 0 46 -80 0 0 248 -72 0 0 111 -70 0 0 105 -16 0 0 45 -45 0 0 8249 -81 0 0 171 -82 0 0 103 -84 0 0 101 -74 0 0 44 -76 0 0 58 -82 0 0 230 -72 0 0 97 -67 0 0 84 32 0 0 83 -15 0 0 213 -48 0 0 216 -48 0 0 210 -48 0 0 214 -48 0 0 212 -48 0 0 211 -48 0 0 79 -48 0 0 71 -42 0 0 67 -48 0 0 195 -66 0 0 197 -66 0 0 192 -66 0 0 196 -66 0 0 194 -66 0 0 193 -66 0 0 198 -102 0 0 65 -66 0 0
EndChar
StartChar: W
Encoding: 87 87 55
Width: 833
Flags: W
HStem: -18 671<212 231 508 528> 436 217<453 458>
VStem: 71 236<637 652> 367 238<637 652> 721 185<637 652>
DStem: 451 510 453 436 279 162 231 -18 765 530 831 565 578 162 528 -18
Fore
906 653 m 1
 906 637 l 1
 868 625 858 616 831 565 c 2
 528 -18 l 1
 508 -18 l 1
 458 436 l 1
 453 436 l 1
 231 -18 l 1
 212 -18 l 1
 150 499 l 1
 138 591 134 610 122 621 c 0
 113 630 104 633 71 637 c 1
 71 653 l 1
 307 653 l 1
 307 637 l 1
 246 630 234 621 234 582 c 0
 234 580 234 573 235 568 c 1
 279 162 l 1
 451 510 l 1
 442 579 l 1
 435 628 425 635 367 637 c 1
 367 653 l 1
 605 653 l 1
 605 637 l 1
 551 632 537 619 537 578 c 1
 538 564 l 1
 578 162 l 1
 765 530 l 2
 778 556 786 581 786 597 c 0
 786 625 775 632 721 637 c 1
 721 653 l 1
 906 653 l 1
EndSplineSet
KernsSLIF: 121 -11 0 0 117 -35 0 0 59 -74 0 0 114 -40 0 0 46 -62 0 0 248 -58 0 0 111 -56 0 0 105 -18 0 0 45 -32 0 0 8249 -67 0 0 171 -68 0 0 103 -75 0 0 101 -60 0 0 44 -58 0 0 58 -77 0 0 230 -58 0 0 97 -53 0 0 84 30 0 0 83 -17 0 0 213 -39 0 0 216 -39 0 0 210 -39 0 0 214 -39 0 0 212 -39 0 0 211 -39 0 0 79 -39 0 0 71 -33 0 0 67 -39 0 0 195 -57 0 0 197 -57 0 0 192 -57 0 0 196 -57 0 0 194 -57 0 0 193 -57 0 0 198 -85 0 0 65 -57 0 0
EndChar
StartChar: X
Encoding: 88 88 56
Width: 611
Flags: W
HStem: 0 16<163 184> 633 20G<76 340 447 655>
VStem: -29 214<1 16> 76 264<637 652> 294 273<1 16> 447 208<637 652>
DStem: 168 576 284 540 274 313 343 393 292 269 361 348 359 104 463 90 488 560 530 542 343 393 361 348
Fore
655 653 m 1
 655 637 l 1
 612 623 582 600 530 542 c 1
 361 348 l 1
 463 90 l 1
 488 30 497 24 567 16 c 1
 567 0 l 1
 294 0 l 1
 294 16 l 1
 360 21 370 26 370 55 c 0
 370 70 366 86 359 104 c 2
 292 269 l 1
 141 97 l 2
 128 82 120 65 120 50 c 0
 120 25 137 16 185 16 c 1
 185 0 l 1
 -29 0 l 1
 -29 16 l 1
 24 27 52 52 191 216 c 0
 204 232 237 271 274 313 c 1
 168 576 l 2
 149 622 134 632 76 637 c 1
 76 653 l 1
 340 653 l 1
 340 637 l 1
 285 630 269 621 269 596 c 0
 269 583 273 566 284 540 c 1
 343 393 l 1
 488 560 l 2
 502 576 508 588 508 601 c 0
 508 624 496 631 447 637 c 1
 447 653 l 1
 655 653 l 1
EndSplineSet
KernsSLIF: 121 -67 0 0 117 -7 0 0 111 -15 0 0 45 -41 0 0 101 -15 0 0 97 -3 0 0 81 -42 0 0 214 -44 0 0 79 -44 0 0 67 -50 0 0
EndChar
StartChar: Y
Encoding: 89 89 57
Width: 556
Flags: W
HStem: 0 21G<78 367> 633 20G<91 330 444 633>
VStem: 78 289<1 16> 91 239<637 652> 444 189<637 652>
DStem: 244 302 344 306 183 90 315 205 363 393 563 576 325 347 344 306
Fore
91 637 m 1
 91 653 l 1
 330 653 l 1
 330 637 l 1
 270 631 258 625 258 601 c 0
 258 586 269 543 294 457 c 0
 310 404 313 391 325 347 c 1
 363 393 l 1
 467 514 513 579 513 606 c 0
 513 623 500 631 471 634 c 0
 467 635 456 636 444 637 c 1
 444 653 l 1
 633 653 l 1
 633 637 l 1
 603 623 595 616 563 576 c 2
 344 306 l 1
 315 205 l 2
 314 201 312 194 309 185 c 0
 285 107 278 77 278 56 c 0
 278 31 292 21 331 19 c 0
 337 18 351 17 367 16 c 1
 367 0 l 1
 78 0 l 1
 78 16 l 1
 144 20 166 36 183 90 c 1
 244 302 l 1
 167 571 l 1
 150 626 147 629 91 637 c 1
EndSplineSet
KernsSLIF: 118 -32 0 0 117 -58 0 0 59 -86 0 0 46 -65 0 0 112 -52 0 0 248 -77 0 0 111 -75 0 0 105 -16 0 0 45 -60 0 0 8249 -92 0 0 171 -93 0 0 103 -94 0 0 101 -78 0 0 44 -64 0 0 58 -78 0 0 230 -75 0 0 97 -72 0 0 84 32 0 0 83 -15 0 0 213 -52 0 0 216 -52 0 0 210 -52 0 0 214 -52 0 0 212 -52 0 0 211 -52 0 0 79 -52 0 0 71 -45 0 0 67 -52 0 0 195 -27 0 0 197 -27 0 0 192 -27 0 0 196 -27 0 0 194 -27 0 0 193 -27 0 0 198 -39 0 0 65 -27 0 0
EndChar
StartChar: Z
Encoding: 90 90 58
Width: 556
Flags: W
HStem: 0 36<124 314> 617 36<282 472>
DStem: 473 617 606 639 -6 14 123 36
Fore
606 653 m 1
 606 639 l 1
 123 36 l 1
 284 36 l 2
 366 36 416 44 450 64 c 0
 484 83 502 107 534 171 c 1
 553 168 l 1
 499 0 l 1
 -6 0 l 1
 -6 14 l 1
 473 617 l 1
 302 617 l 2
 227 617 174 604 145 580 c 0
 126 563 114 546 93 502 c 1
 74 507 l 1
 120 653 l 1
 606 653 l 1
EndSplineSet
KernsSLIF: 121 -28 0 0 118 -12 0 0
EndChar
StartChar: bracketleft
Encoding: 91 91 59
Width: 389
Flags: W
HStem: -153 27<149 209> 636 27<309 384>
DStem: 218 663 275 601 21 -153 115 -77
Fore
384 636 m 1
 322 636 l 2
 293 636 281 627 275 601 c 2
 115 -77 l 2
 111 -93 111 -93 111 -98 c 0
 111 -117 128 -126 160 -126 c 2
 216 -126 l 1
 209 -153 l 1
 21 -153 l 1
 218 663 l 1
 391 663 l 1
 384 636 l 1
EndSplineSet
MinimumDistance: x2,-1 
EndChar
StartChar: backslash
Encoding: 92 92 60
Width: 278
Flags: W
HStem: 646 20G<-41 31>
DStem: -41 666 31 666 248 -18 319 -18
Fore
-41 666 m 1
 31 666 l 1
 319 -18 l 1
 248 -18 l 1
 -41 666 l 1
EndSplineSet
EndChar
StartChar: bracketright
Encoding: 93 93 61
Width: 389
Flags: W
HStem: -153 27<19 92> 636 27<193 252>
DStem: 288 588 382 663 127 -90 185 -153
Fore
19 -126 m 1
 81 -126 l 2
 111 -126 120 -119 127 -90 c 2
 288 588 l 2
 292 604 292 605 292 609 c 0
 292 627 275 636 243 636 c 2
 186 636 l 1
 193 663 l 1
 382 663 l 1
 185 -153 l 1
 12 -153 l 1
 19 -126 l 1
EndSplineSet
MinimumDistance: x8,-1 
EndChar
StartChar: asciicircum
Encoding: 94 94 62
Width: 422
Flags: W
HStem: 646 20G<181 241>
DStem: 181 666 211 590 0 301 68 301 211 590 241 666 354 301 422 301
Fore
68 301 m 1
 0 301 l 1
 181 666 l 1
 241 666 l 1
 422 301 l 1
 354 301 l 1
 211 590 l 1
 68 301 l 1
EndSplineSet
EndChar
StartChar: underscore
Encoding: 95 95 63
Width: 500
Flags: W
HStem: -125 50<1 499>
VStem: 0 500<-124 -76>
Fore
500 -125 m 1
 0 -125 l 1
 0 -75 l 1
 500 -75 l 1
 500 -125 l 1
EndSplineSet
EndChar
StartChar: grave
Encoding: 96 96 64
Width: 333
Flags: W
Fore
280 492 m 1
 140 598 l 2
 127 608 121 618 121 630 c 0
 121 649 136 664 156 664 c 0
 171 664 182 657 195 641 c 2
 311 492 l 1
 280 492 l 1
EndSplineSet
EndChar
StartChar: a
Encoding: 97 97 65
Width: 500
Flags: W
HStem: -10.9977 48.9977<119 159> 419.171 21.8288<291.524 303 303.063 308.969>
VStem: 17 84<99 117>
Fore
464 110 m 1
 476 100 l 1
 402 9 377 -10 337 -10 c 0
 309 -10 297 2 297 31 c 0
 297 55 300 68 320 146 c 1
 232 22 189 -11 119 -11 c 0
 55 -11 17 30 17 100 c 0
 17 258 171 441 303 441 c 0
 346 441 375 420 383 383 c 1
 394 431 l 1
 397 434 l 1
 458 441 l 1
 465 438 l 1
 463 429 462 427 459 417 c 0
 412 245 370 74 370 54 c 0
 370 47 376 41 384 41 c 0
 393 41 406 51 436 82 c 0
 443 90 449 95 464 110 c 1
309 419 m 0
 269 422 222 390 182 332 c 0
 139 270 101 167 101 113 c 0
 101 67 124 38 159 38 c 0
 188 38 222 55 246 82 c 0
 315 156 365 274 365 358 c 0
 365 393 343 417 309 419 c 0
EndSplineSet
MinimumDistance: x19,-1 
KernsSLIF: 121 2 0 0 119 4 0 0 118 1 0 0 8217 -28 0 0 106 -22 0 0
EndChar
StartChar: b
Encoding: 98 98 66
Width: 500
Flags: W
HStem: -11 23<151 168> 391.994 49.006<318 357>
VStem: 23 86<41 46> 388 85<305 323>
DStem: 159 547 268 678 23 46 164 290
Fore
110 643 m 1
 110 660 l 1
 177 668 213 674 263 683 c 1
 268 678 l 1
 164 290 l 1
 235 400 287 441 357 441 c 0
 424 441 473 391 473 321 c 0
 473 164 307 -11 156 -11 c 0
 100 -11 23 19 23 42 c 2
 23 46 l 1
 159 547 l 1
 161 554 l 1
 162 559 164 566 166 573 c 0
 172 595 175 607 175 616 c 0
 175 638 169 641 110 643 c 1
318 392 m 0
 270 392 225 354 181 277 c 0
 139 203 109 106 109 46 c 0
 109 23 124 12 155 12 c 0
 198 12 241 33 278 71 c 0
 337 133 388 240 388 306 c 0
 388 359 361 392 318 392 c 0
EndSplineSet
MinimumDistance: x6,-1 
KernsSLIF: 121 -3 0 0 119 -7 0 0 118 -10 0 0
EndChar
StartChar: c
Encoding: 99 99 67
Width: 444
Flags: W
HStem: -10.9981 35.9981<177 207> 420 21<302 322>
VStem: 30 86<133 149> 338 87<351 361>
Fore
350 106 m 1
 366 96 l 1
 306 20 251 -11 177 -11 c 0
 84 -11 30 44 30 139 c 0
 30 295 170 441 320 441 c 0
 380 441 425 406 425 360 c 0
 425 334 404 314 377 314 c 0
 353 314 338 328 338 352 c 0
 338 361 340 368 347 381 c 0
 351 390 353 395 353 400 c 0
 353 412 338 420 315 420 c 0
 276 420 236 402 207 372 c 0
 151 313 116 224 116 139 c 0
 116 68 150 25 207 25 c 0
 256 25 295 47 350 106 c 1
EndSplineSet
MinimumDistance: x5,-1 
KernsSLIF: 107 -29 0 0 104 -30 0 0
EndChar
StartChar: d
Encoding: 100 100 68
Width: 500
Flags: W
HStem: -10.9977 47.9977<120 160> 418.138 22.8624<295.336 307 307.031 310.977>
VStem: 15 87<99 123>
Fore
463 111 m 1
 475 101 l 1
 423 28 371 -13 329 -13 c 0
 304 -13 287 5 287 32 c 0
 287 55 289 70 300 121 c 1
 232 21 188 -11 120 -11 c 0
 55 -11 15 32 15 103 c 0
 15 253 177 441 307 441 c 0
 346 441 364 425 372 383 c 1
 416 547 l 2
 430 598 431 604 431 617 c 0
 431 638 424 641 369 643 c 1
 369 660 l 1
 433 666 469 672 522 683 c 1
 527 678 l 1
 476 478 455 398 428 306 c 0
 395 196 363 74 363 60 c 0
 363 49 371 40 381 40 c 0
 398 40 409 49 463 111 c 1
311 418 m 0
 283 420 246 401 218 372 c 0
 152 302 102 186 102 103 c 0
 102 64 126 37 160 37 c 0
 252 37 356 209 356 361 c 0
 356 397 341 416 311 418 c 0
EndSplineSet
MinimumDistance: x20,-1 
EndChar
StartChar: e
Encoding: 101 101 69
Width: 444
Flags: W
HStem: 417.951 22.1129<311 332>
VStem: 31 87<110 133> 346 66<372 381>
Fore
358 109 m 5
 370 97 l 5
 311 30 234 -11 163 -11 c 4
 85 -11 31 45 31 126 c 4
 31 276 188 441 332 441 c 4
 382 441 412 415 412 373 c 4
 412 287 306 211 156 190 c 6
 128 186 l 5
 120 154 118 139 118 124 c 4
 118 70 155 34 212 34 c 4
 255 34 286 50 358 109 c 5
152 252 m 6
 135 208 l 5
 221 229 259 247 296 282 c 4
 327 312 346 348 346 379 c 4
 346 402 332 418 311 418 c 4
 260 418 186 341 152 252 c 6
EndSplineSet
MinimumDistance: x5,-1 
KernsSLIF: 121 4 0 0 120 -10 0 0 119 2 0 0 116 -16 0 0 8217 -21 0 0
EndChar
StartChar: f
Encoding: 102 102 70
Width: 278
Flags: W
HStem: -207 21<-67 -58> 396 32<42 124 212 313> 656 22<332 340>
VStem: -147 76<-147 -141> 345 79<608 615>
DStem: 42 428 204 396 35 396 132 76
Fore
35 396 m 1
 42 428 l 1
 134 428 l 1
 164 524 184 570 214 609 c 0
 250 656 289 678 338 678 c 128
 387 678 424 650 424 613 c 0
 424 591 405 573 382 573 c 0
 360 573 345 589 345 613 c 0
 345 620 347 625 351 634 c 0
 354 639 355 641 355 644 c 0
 355 651 346 656 333 656 c 0
 277 656 240 585 211 428 c 1
 319 428 l 1
 313 396 l 1
 204 396 l 1
 132 76 l 1
 91 -108 21 -207 -68 -207 c 0
 -112 -207 -147 -180 -147 -146 c 0
 -147 -123 -131 -105 -110 -105 c 128
 -89 -105 -71 -122 -71 -143 c 0
 -71 -149 -72 -153 -76 -159 c 0
 -79 -164 -80 -167 -80 -170 c 0
 -80 -179 -72 -186 -60 -186 c 0
 -18 -186 15 -131 37 -24 c 1
 125 396 l 1
 35 396 l 1
EndSplineSet
KernsSLIF: 116 18 0 0 115 -20 0 0 8217 18 0 0 248 -31 0 0 339 -24 0 0 246 -2 0 0 243 -30 0 0 111 -29 0 0 108 42 0 0 106 13 0 0 105 17 0 0 102 30 0 0 233 -34 0 0 101 -32 0 0 229 -17 0 0 230 -30 0 0 228 -2 0 0 225 -27 0 0 97 -26 0 0
EndChar
StartChar: g
Encoding: 103 103 71
Width: 500
Flags: W
HStem: -206 22<171 200> 151 21<232 246> 366 39<423 471> 419 22<283.463 299>
VStem: 8 55<-94 -78> 98.0105 73.9895<78 114 247 270> 324.994 60.0059<-90 -60> 352 78.9961<310 348>
Fore
472 405 m 1
 472 366 l 1
 422 366 l 1
 428 346 431 326 431 310 c 0
 431 232 337 151 246 151 c 0
 237 151 223 152 215 154 c 0
 212 155 210 155 208 155 c 0
 195 155 172 129 172 114 c 128
 172 99 198 83 242 72 c 0
 337 47 385 3 385 -60 c 0
 385 -147 301 -206 175 -206 c 0
 74 -206 8 -161 8 -92 c 0
 8 -46 26 -26 125 39 c 1
 106 53 98 65 98 78 c 0
 98 102 116 122 175 162 c 1
 118 188 96 218 96 270 c 0
 96 364 186 441 297 441 c 0
 335 441 368 431 395 413 c 0
 403 407 408 405 411 405 c 2
 472 405 l 1
148 28 m 0
 140 28 98 -5 85 -22 c 0
 69 -41 63 -58 63 -82 c 0
 63 -146 110 -184 190 -184 c 0
 267 -184 325 -144 325 -90 c 0
 325 -44 288 -16 182 17 c 0
 166 22 156 25 153 26 c 0
 151 27 149 28 148 28 c 0
296 419 m 0
 231 419 174 339 174 247 c 0
 174 200 196 172 234 172 c 0
 268 172 299 194 321 235 c 0
 340 269 352 313 352 348 c 0
 352 395 333 419 296 419 c 0
EndSplineSet
KernsSLIF: 114 -21 0 0 246 -41 0 0 243 -41 0 0 108 -46 0 0 233 -45 0 0 101 -45 0 0 229 -42 0 0 230 -46 0 0 228 -42 0 0 97 -41 0 0
EndChar
StartChar: h
Encoding: 104 104 72
Width: 500
Flags: W
HStem: 0 21G<19 94>
VStem: 370 77.2862<364 367>
DStem: 154 512 273 678 19 0 153 230
Fore
465 117 m 1
 478 105 l 1
 418 18 383 -9 332 -9 c 0
 305 -9 288 7 288 33 c 0
 288 45 295 76 308 125 c 2
 363 332 l 2
 367 348 370 361 370 365 c 0
 370 378 357 390 342 390 c 0
 307 390 239 328 187 249 c 0
 147 188 134 154 94 0 c 1
 19 0 l 1
 154 512 l 2
 160 534 163 548 164 549 c 0
 173 578 178 603 178 617 c 128
 178 631 154 648 140 642 c 0
 139 641 138 641 137 641 c 2
 111 641 l 1
 111 656 l 1
 171 663 210 670 268 683 c 1
 273 678 l 1
 153 230 l 1
 246 375 317 441 382 441 c 0
 421 441 448 414 448 374 c 0
 448 350 429 276 400 181 c 0
 383 129 367 66 367 56 c 0
 367 47 374 38 383 38 c 0
 399 38 411 49 465 117 c 1
EndSplineSet
KernsSLIF: 121 -4 0 0 8217 -31 0 0
EndChar
StartChar: i
Encoding: 105 105 73
Width: 278
Flags: W
HStem: 548 106<209 223>
VStem: 49 75<47 53> 167 97<597 603>
DStem: 119 332 228 439 71 155 140 117
Fore
222 114 m 1
 235 103 l 1
 178 19 141 -11 95 -11 c 0
 65 -11 49 9 49 46 c 0
 49 66 55 97 71 155 c 2
 119 332 l 1
 125 352 128 368 128 376 c 0
 128 396 118 399 65 400 c 1
 65 416 l 1
 104 419 124 422 225 441 c 1
 228 439 l 1
 140 117 l 1
 139 115 l 1
 139 113 l 1
 137 105 134 98 134 95 c 0
 127 76 124 61 124 51 c 0
 124 44 132 36 140 36 c 0
 149 36 164 46 181 63 c 0
 191 74 198 82 222 114 c 1
214 654 m 0
 241 654 264 628 264 599 c 0
 264 571 241 548 215 548 c 0
 186 548 167 569 167 601 c 0
 167 631 187 654 214 654 c 0
EndSplineSet
MinimumDistance: x19,-1 
KernsSLIF: 106 -31 0 0 84 -10 0 0
EndChar
StartChar: j
Encoding: 106 106 74
Width: 278
Flags: W
HStem: -207 23<-46 -36> 548 106<225 229>
VStem: -124 81<-147 -139> 179 97<593 609>
DStem: 131 289 246 439 59 -3 142 28
Fore
246 439 m 1
 142 28 l 2
 102 -131 42 -207 -45 -207 c 0
 -91 -207 -124 -181 -124 -146 c 0
 -124 -122 -107 -104 -84 -104 c 128
 -61 -104 -43 -120 -43 -141 c 0
 -43 -149 -45 -154 -51 -162 c 0
 -55 -167 -56 -169 -56 -173 c 0
 -56 -180 -50 -184 -38 -184 c 0
 2 -184 25 -140 59 -3 c 2
 131 289 l 1
 142 332 147 359 147 369 c 128
 147 379 144 388 140 392 c 0
 135 396 115 402 107 401 c 2
 100 400 l 1
 73 400 l 1
 73 416 l 1
 104 417 154 425 243 441 c 1
 246 439 l 1
226 654 m 0
 253 654 276 628 276 599 c 0
 276 571 253 548 227 548 c 0
 198 548 179 569 179 601 c 0
 179 632 199 654 226 654 c 0
EndSplineSet
MinimumDistance: x19,-1 
EndChar
StartChar: k
Encoding: 107 107 75
Width: 444
Flags: W
HStem: -10.9947 51.9947<318 354> 0 21G<14 89> 412 16<279 302>
VStem: 278 183<412 427>
DStem: 141 483 267 678 14 0 147 221 141 483 137 180 14 0 89 0
Fore
414 109 m 1
 429 98 l 1
 384 14 358 -11 318 -11 c 0
 289 -11 271 8 239 71 c 0
 221 107 195 168 179 212 c 1
 137 180 l 1
 89 0 l 1
 14 0 l 1
 141 483 l 1
 143 492 l 2
 145 500 148 511 152 525 c 0
 165 571 172 598 174 615 c 1
 173 634 154 641 106 640 c 1
 106 656 l 1
 165 663 203 670 262 683 c 1
 267 678 l 1
 147 221 l 1
 164 233 176 243 190 254 c 0
 283 325 333 374 333 394 c 0
 333 405 319 412 294 412 c 2
 278 412 l 1
 278 428 l 1
 461 428 l 1
 461 412 l 1
 414 409 383 389 236 258 c 1
 253 219 268 183 273 170 c 0
 312 74 333 41 354 41 c 0
 369 41 381 52 399 83 c 2
 414 109 l 1
EndSplineSet
KernsSLIF: 252 8 0 0 117 8 0 0 115 7 0 0 46 26 0 0 246 6 0 0 243 6 0 0 111 6 0 0 45 -27 0 0 103 -27 0 0 233 5 0 0 101 5 0 0 44 27 0 0 229 12 0 0 230 9 0 0 228 12 0 0 225 12 0 0 97 12 0 0
EndChar
StartChar: l
Encoding: 108 108 76
Width: 278
Flags: W
VStem: 40 77<44 53>
DStem: 182 599 279 678 45 71 128 99
Fore
228 123 m 1
 241 114 l 1
 176 18 141 -11 89 -11 c 0
 57 -11 40 9 40 45 c 0
 40 50 42 60 45 71 c 2
 182 599 l 1
 185 608 186 614 186 617 c 0
 186 633 166 640 118 640 c 1
 118 656 l 1
 177 663 215 670 274 683 c 1
 279 678 l 1
 128 99 l 1
 127 97 126 92 125 89 c 0
 120 69 117 57 117 50 c 0
 117 39 122 32 132 32 c 0
 150 32 169 47 201 89 c 0
 210 101 219 112 228 123 c 1
EndSplineSet
KernsSLIF: 121 -11 0 0 118 -12 0 0
EndChar
StartChar: m
Encoding: 109 109 77
Width: 722
Flags: W
HStem: 0 21G<12 87 259 334>
VStem: 353.632 76.3797<364 381> 515.048 75.9521<37 54> 593 78.0605<365 374>
Fore
689 117 m 1
 704 105 l 1
 699 98 l 2
 646 24 602 -9 555 -9 c 0
 529 -9 515 7 515 37 c 0
 515 47 519 66 528 103 c 1
 586 333 l 1
 591 351 593 363 593 368 c 0
 593 379 584 389 573 389 c 0
 544 389 494 345 445 277 c 0
 394 206 374 156 334 0 c 1
 259 0 l 1
 322 234 354 355 354 364 c 0
 354 380 347 389 334 389 c 0
 300 389 240 333 184 248 c 0
 150 196 135 159 87 0 c 1
 12 0 l 1
 25 51 28 61 51 143 c 0
 87 270 110 361 110 372 c 0
 110 387 97 394 71 394 c 2
 46 394 l 1
 46 410 l 1
 129 425 150 429 206 441 c 1
 209 439 l 1
 151 230 l 1
 243 375 313 441 374 441 c 0
 408 441 431 416 431 381 c 0
 431 362 416 305 391 229 c 1
 460 339 501 387 550 419 c 0
 574 434 594 441 613 441 c 0
 647 441 672 414 672 378 c 0
 672 372 670 354 669 350 c 2
 601 99 l 1
 595 75 591 59 591 54 c 0
 591 44 596 38 604 38 c 0
 619 38 640 55 668 91 c 0
 671 95 679 105 689 117 c 1
EndSplineSet
KernsSLIF: 121 -3 0 0 119 -4 0 0 118 -6 0 0 112 -4 0 0
EndChar
StartChar: n
Encoding: 110 110 78
Width: 500
Flags: W
HStem: 0 21G<14 89>
VStem: 287.57 74.4305<53 55> 360.753 80.3089<361 380>
DStem: 347 285 433 323 303 120 376 117
Fore
460 117 m 1
 474 104 l 1
 405 12 379 -9 334 -9 c 0
 301 -9 287 7 287 45 c 0
 287 55 290 69 303 120 c 1
 347 285 l 2
 355 316 361 349 361 361 c 0
 361 379 352 390 337 390 c 0
 300 390 249 340 189 248 c 0
 145 180 136 158 89 0 c 1
 14 0 l 1
 110 350 l 1
 111 355 112 361 112 367 c 0
 112 387 99 393 48 394 c 1
 48 410 l 1
 135 426 156 430 210 441 c 1
 213 439 l 1
 146 221 l 1
 249 381 312 441 376 441 c 0
 415 441 442 416 442 380 c 0
 442 366 438 344 433 323 c 1
 376 117 l 1
 362 61 362 61 362 54 c 0
 362 46 370 38 378 38 c 0
 392 38 410 54 439 91 c 2
 460 117 l 1
EndSplineSet
KernsSLIF: 121 -6 0 0 119 -7 0 0 118 -10 0 0 8217 -34 0 0 112 -7 0 0 84 -41 0 0
EndChar
StartChar: o
Encoding: 111 111 79
Width: 500
Flags: W
HStem: -11 21<176 191> 420 21<306 324>
VStem: 27.3745 84.0629<101 129> 383.003 84.9971<301 326>
Fore
325 441 m 0
 410 441 468 384 468 301 c 0
 468 226 428 141 362 76 c 0
 304 19 240 -11 174 -11 c 0
 83 -11 27 43 27 129 c 0
 27 286 175 441 325 441 c 0
313 420 m 0
 270 420 228 390 189 334 c 0
 140 263 111 175 111 101 c 0
 111 46 142 10 189 10 c 0
 232 10 270 35 307 88 c 0
 351 153 384 253 384 326 c 0
 384 383 356 420 313 420 c 0
EndSplineSet
MinimumDistance: x1,-1 
KernsSLIF: 121 -10 0 0 120 -33 0 0 119 -15 0 0 118 -18 0 0 116 -15 0 0 8217 -24 0 0 84 -63 0 0
EndChar
StartChar: p
Encoding: 112 112 80
Width: 500
Flags: W
HStem: -205 16<-74 -74 116 129> -11 19<164 181>
VStem: -75 205<-204 -190> 379 90<307 330>
Fore
56 404 m 1
 54 419 l 1
 208 441 l 1
 210 442 l 1
 210 442 211 442 211 441 c 1
 213 440 l 1
 214 438 215 437 215 437 c 1
 212 428 l 1
 183 328 l 1
 241 409 289 441 354 441 c 0
 425 441 469 394 469 316 c 0
 469 157 315 -11 169 -11 c 0
 146 -11 128 -7 103 6 c 1
 83 -68 66 -146 66 -160 c 0
 66 -181 83 -190 130 -190 c 1
 130 -205 l 1
 -75 -205 l 1
 -75 -189 l 1
 -32 -188 -19 -176 -8 -130 c 0
 -1 -101 23 -6 50 94 c 0
 85 226 121 368 121 377 c 0
 121 392 95 411 82 405 c 0
 81 404 79 404 79 404 c 1
 56 404 l 1
317 398 m 0
 267 401 209 352 182 284 c 0
 153 210 117 79 117 45 c 0
 117 23 137 8 165 8 c 0
 217 8 265 39 307 98 c 0
 350 160 379 246 379 312 c 0
 379 370 360 396 317 398 c 0
EndSplineSet
MinimumDistance: x10,-1 
KernsSLIF: 121 -4 0 0 116 -14 0 0
EndChar
StartChar: q
Encoding: 113 113 81
Width: 500
Flags: W
HStem: -209 18<361 390> -10.9975 52.9975<127 167> 419 22<313 329>
VStem: 25 86<104 121> 150 241<-208 -193>
Fore
391 -191 m 1
 391 -209 l 1
 150 -209 l 1
 150 -193 l 1
 215 -188 231 -180 244 -140 c 1
 333 153 l 1
 244 26 198 -11 127 -11 c 0
 64 -11 25 34 25 105 c 0
 25 257 186 441 318 441 c 0
 359 441 379 425 395 379 c 1
 410 426 l 1
 483 426 l 1
 319 -151 l 2
 318 -155 317 -159 317 -162 c 0
 316 -181 337 -191 374 -191 c 2
 391 -191 l 1
321 419 m 0
 292 419 259 401 228 370 c 0
 163 304 111 193 111 119 c 0
 111 72 133 42 167 42 c 0
 191 42 218 54 244 76 c 0
 312 133 380 275 380 358 c 0
 380 392 354 419 321 419 c 0
EndSplineSet
MinimumDistance: x0,-1 
KernsSLIF: 117 -11 0 0 99 -13 0 0
EndChar
StartChar: r
Encoding: 114 114 82
Width: 389
Flags: W
HStem: 0 21G<45 121> 340 101<354.385 368>
Fore
121 0 m 1
 45 0 l 1
 126 292 l 1
 142 360 142 360 142 374 c 0
 142 392 129 402 107 402 c 0
 100 402 97 402 73 397 c 1
 73 414 l 1
 146 426 155 428 228 441 c 1
 231 439 l 1
 178 222 l 1
 192 258 l 2
 208 298 248 357 289 399 c 0
 315 426 342 441 365 441 c 0
 393 441 412 420 412 389 c 128
 412 358 395 340 366 340 c 0
 346 340 338 345 330 362 c 0
 325 372 320 376 314 376 c 0
 297 376 269 345 236 289 c 0
 190 213 173 170 121 0 c 1
EndSplineSet
KernsSLIF: 121 33 0 0 120 7 0 0 119 32 0 0 118 30 0 0 117 11 0 0 116 12 0 0 59 -28 0 0 115 -17 0 0 114 4 0 0 8217 -4 0 0 113 -31 0 0 46 -72 0 0 112 13 0 0 248 -29 0 0 242 -28 0 0 339 -23 0 0 246 -28 0 0 244 -28 0 0 243 -28 0 0 111 -28 0 0 110 16 0 0 109 17 0 0 108 -21 0 0 107 -15 0 0 106 4 0 0 105 8 0 0 45 -52 0 0 104 -17 0 0 103 -21 0 0 102 23 0 0 232 -35 0 0 234 -35 0 0 233 -35 0 0 101 -35 0 0 100 -31 0 0 44 -68 0 0 58 -28 0 0 231 -17 0 0 99 -26 0 0 229 -29 0 0 224 -29 0 0 230 -36 0 0 228 -29 0 0 226 -29 0 0 225 -29 0 0 97 -29 0 0
EndChar
StartChar: s
Encoding: 115 115 83
Width: 389
Flags: W
HStem: -11 21<144 162> 7.48958 138.51<51 52> 418 23<227 240>
VStem: 109.004 72.9964<331 364> 227.993 76.0067<87 119>
Fore
36 146 m 1
 52 146 l 1
 68 51 99 10 154 10 c 0
 198 10 228 42 228 87 c 0
 228 116 211 151 172 202 c 0
 130 256 109 299 109 331 c 0
 109 398 157 441 230 441 c 0
 246 441 261 439 286 431 c 0
 305 426 315 424 322 424 c 0
 336 424 344 428 352 442 c 1
 366 442 l 1
 346 303 l 1
 330 303 l 1
 320 381 290 418 238 418 c 0
 203 418 182 397 182 364 c 0
 182 337 198 306 236 259 c 0
 283 201 304 157 304 119 c 0
 304 43 244 -11 160 -11 c 0
 144 -11 127 -8 105 -1 c 0
 85 4 67 8 56 8 c 0
 46 8 40 3 32 -13 c 1
 16 -13 l 1
 36 146 l 1
EndSplineSet
MinimumDistance: x16,-1 
KernsSLIF: 116 -12 0 0 8217 -20 0 0
EndChar
StartChar: t
Encoding: 116 116 84
Width: 278
Flags: W
HStem: 396 32<217 291>
DStem: 132 396 207 396 60 121 119 63
Fore
296 428 m 1
 291 396 l 1
 207 396 l 1
 119 63 l 2
 118 60 118 59 118 58 c 0
 118 46 124 38 133 38 c 0
 149 38 165 54 214 117 c 1
 227 110 l 1
 164 17 131 -11 85 -11 c 0
 58 -11 37 5 37 27 c 0
 37 35 45 70 54 100 c 0
 57 109 58 112 60 121 c 1
 132 396 l 1
 58 396 l 1
 57 399 57 401 57 402 c 0
 57 413 64 419 89 427 c 0
 121 436 183 486 222 537 c 0
 228 545 231 546 237 546 c 0
 242 546 245 543 245 536 c 0
 245 535 245 533 244 531 c 1
 216 428 l 1
 296 428 l 1
EndSplineSet
MinimumDistance: x2,-1 
KernsSLIF: 59 -26 0 0 8217 -19 0 0 246 -11 0 0 243 -11 0 0 111 -11 0 0 104 -11 0 0 233 -13 0 0 101 -13 0 0 58 -29 0 0 229 -6 0 0 230 -10 0 0 228 -6 0 0 225 -6 0 0 97 -6 0 0 83 -9 0 0
EndChar
StartChar: u
Encoding: 117 117 85
Width: 500
Flags: W
VStem: 42.007 76.993<44 67> 289.011 77.9887<39 55>
DStem: 104 309 211 439 67 167 120 76
Fore
461 117 m 1
 475 108 l 1
 407 11 384 -9 337 -9 c 0
 307 -9 289 9 289 39 c 0
 289 60 305 129 334 236 c 1
 219 43 166 -11 95 -11 c 0
 60 -11 42 8 42 44 c 0
 42 62 49 96 67 167 c 1
 104 309 l 2
 113 343 118 368 118 376 c 0
 118 383 113 392 107 394 c 0
 98 399 96 400 58 400 c 1
 58 414 l 1
 115 421 151 428 208 441 c 1
 211 439 l 1
 120 76 l 2
 119 73 119 71 119 67 c 0
 119 52 128 42 140 42 c 0
 172 42 221 93 281 188 c 0
 327 261 334 277 391 432 c 1
 465 432 l 1
 386 133 l 2
 367 61 367 61 367 55 c 0
 367 44 371 38 378 38 c 0
 394 38 409 52 461 117 c 1
EndSplineSet
MinimumDistance: x22,-1 
KernsSLIF: 8217 -31 0 0
EndChar
StartChar: v
Encoding: 118 118 86
Width: 444
Flags: W
HStem: -18 458.28<144 149>
VStem: 333 92.9915<382 407>
Fore
21 403 m 1
 21 416 l 1
 59 422 114 432 132 437 c 0
 140 440 147 441 152 441 c 0
 161 441 161 439 181 337 c 0
 194 263 200 211 207 70 c 1
 238 102 l 2
 309 176 375 287 375 333 c 0
 375 343 370 351 357 363 c 0
 339 379 333 391 333 407 c 0
 333 428 348 441 370 441 c 0
 400 441 426 414 426 382 c 0
 426 345 400 280 365 230 c 0
 263 88 170 -18 145 -18 c 0
 138 -18 136 -11 136 17 c 0
 136 75 124 226 114 295 c 0
 100 387 90 404 51 404 c 0
 40 404 32 404 21 403 c 1
EndSplineSet
KernsSLIF: 59 -48 0 0 115 -30 0 0 46 -51 0 0 248 -29 0 0 242 -28 0 0 246 -28 0 0 243 -28 0 0 111 -26 0 0 108 -29 0 0 103 -36 0 0 232 -32 0 0 234 -32 0 0 233 -32 0 0 101 -30 0 0 44 -46 0 0 58 -48 0 0 99 -26 0 0 227 -26 0 0 229 -26 0 0 224 -26 0 0 230 -29 0 0 228 -26 0 0 226 -26 0 0 225 -26 0 0 97 -24 0 0
EndChar
StartChar: w
Encoding: 119 119 87
Width: 667
Flags: W
HStem: -18 458.182<133 136 382 395> 404 17<35 42>
VStem: 557 90.9918<389 407>
DStem: 342 331 403 426 371 12 435 74
Fore
16 404 m 1
 16 417 l 1
 28 419 38 421 42 421 c 0
 75 426 99 430 110 434 c 0
 123 438 134 441 140 441 c 0
 152 441 154 433 165 371 c 0
 176 301 187 196 190 126 c 1
 382 430 l 2
 387 438 390 440 395 440 c 0
 401 440 403 437 403 426 c 1
 435 74 l 1
 566 237 600 291 600 334 c 0
 600 346 594 356 578 371 c 128
 562 386 557 394 557 407 c 0
 557 428 572 441 596 441 c 0
 626 441 648 419 648 389 c 0
 648 325 572 199 436 36 c 0
 432 31 428 26 427 25 c 0
 400 -8 390 -18 382 -18 c 0
 375 -18 373 -15 371 12 c 1
 342 331 l 1
 253 175 l 2
 223 122 203 87 198 76 c 0
 162 7 145 -18 134 -18 c 0
 125 -18 123 -10 121 29 c 1
 117 117 l 1
 114 196 102 302 90 359 c 0
 83 397 73 407 45 405 c 0
 40 404 37 404 36 404 c 2
 16 404 l 1
EndSplineSet
KernsSLIF: 59 -49 0 0 115 -32 0 0 46 -51 0 0 248 -31 0 0 242 -30 0 0 246 -30 0 0 243 -30 0 0 111 -28 0 0 108 -30 0 0 45 -4 0 0 103 -38 0 0 232 -34 0 0 234 -34 0 0 233 -34 0 0 101 -32 0 0 44 -47 0 0 58 -49 0 0 99 -28 0 0 227 -28 0 0 229 -28 0 0 224 -28 0 0 230 -31 0 0 228 -28 0 0 226 -28 0 0 225 -28 0 0 97 -26 0 0
EndChar
StartChar: x
Encoding: 120 120 88
Width: 444
Flags: W
HStem: -11 76.9848<7 23> 368 73<404 416>
Fore
402 111 m 1
 416 103 l 1
 358 13 332 -11 294 -11 c 0
 262 -11 249 5 236 56 c 2
 206 176 l 1
 164 118 143 91 116 59 c 0
 66 -2 54 -11 23 -11 c 0
 -7 -11 -27 5 -27 31 c 0
 -27 51 -12 66 7 66 c 0
 15 66 26 63 39 56 c 0
 49 50 59 47 65 47 c 0
 76 47 96 65 116 95 c 1
 198 212 l 1
 169 335 l 2
 155 395 149 404 124 404 c 0
 115 404 106 402 68 393 c 1
 64 408 l 1
 75 412 l 2
 136 432 170 441 192 441 c 0
 219 441 230 421 244 353 c 2
 255 298 l 1
 324 405 362 441 406 441 c 0
 430 441 447 425 447 404 c 128
 447 383 433 368 412 368 c 0
 404 368 397 370 385 377 c 0
 375 382 367 385 361 385 c 0
 343 385 307 341 263 264 c 1
 263 249 274 203 299 102 c 0
 300 99 301 93 303 85 c 0
 310 57 319 44 334 44 c 0
 345 44 357 54 380 84 c 0
 389 96 394 102 402 111 c 1
EndSplineSet
KernsSLIF: 113 2 0 0 111 1 0 0 97 6 0 0
EndChar
StartChar: y
Encoding: 121 121 89
Width: 444
Flags: W
HStem: -205.052 82.0515<16 17> 421 20G<154 158>
VStem: 332 93.9907<386 404>
Fore
15 400 m 1
 15 417 l 1
 29 419 42 422 47 423 c 0
 100 433 136 439 145 440 c 0
 149 440 153 440 154 441 c 2
 158 441 l 2
 173 441 229 276 244 188 c 2
 264 72 l 1
 349 213 386 291 386 331 c 0
 386 345 379 354 360 365 c 0
 340 378 332 389 332 404 c 0
 332 426 348 441 371 441 c 0
 401 441 426 416 426 386 c 0
 426 337 398 265 330 142 c 0
 222 -56 91 -206 27 -206 c 0
 -2 -206 -24 -187 -24 -162 c 0
 -24 -140 -7 -123 15 -123 c 0
 26 -123 37 -128 52 -140 c 0
 63 -148 70 -151 76 -151 c 0
 89 -151 101 -143 122 -121 c 0
 133 -109 153 -83 184 -42 c 0
 199 -24 205 -8 205 8 c 0
 205 25 181 142 164 207 c 0
 118 379 103 404 46 404 c 0
 35 404 28 403 15 400 c 1
EndSplineSet
KernsSLIF: 59 -45 0 0 115 -19 0 0 46 -25 0 0 248 -16 0 0 242 -15 0 0 246 -15 0 0 243 -15 0 0 111 -15 0 0 108 -18 0 0 45 7 0 0 103 -34 0 0 232 -19 0 0 234 -19 0 0 233 -19 0 0 101 -19 0 0 44 -21 0 0 58 -48 0 0 99 -15 0 0 227 -12 0 0 229 -12 0 0 224 -12 0 0 230 -17 0 0 228 -12 0 0 226 -12 0 0 225 -12 0 0 97 -12 0 0
EndChar
StartChar: z
Encoding: 122 122 90
Width: 389
Flags: W
HStem: -81 21<269 283> 368 60<142 307>
VStem: 294 69<-9 4>
DStem: 308 368 380 417 -2 -4 90 73
Fore
81 309 m 1
 65 313 l 1
 96 428 l 1
 380 428 l 1
 380 417 l 1
 90 73 l 1
 148 60 167 47 211 -10 c 0
 244 -52 256 -60 281 -60 c 0
 297 -60 308 -54 308 -45 c 0
 308 -42 306 -36 303 -30 c 0
 297 -19 294 -9 294 0 c 0
 294 18 308 31 328 31 c 0
 349 31 363 16 363 -5 c 0
 363 -45 319 -81 269 -81 c 0
 241 -81 207 -68 157 -37 c 0
 110 -8 77 5 53 5 c 0
 36 5 23 0 7 -13 c 1
 -2 -4 l 1
 308 368 l 1
 162 368 l 2
 115 368 102 359 81 309 c 1
EndSplineSet
MinimumDistance: x3,-1 
EndChar
StartChar: braceleft
Encoding: 123 123 91
Width: 400
Flags: W
VStem: 51 75<-113 -97> 117 75<191 200>
DStem: 218 547 295 552 170 369 250 384
Fore
407 687 m 1
 404 676 l 1
 342 660 316 631 295 552 c 2
 250 384 l 2
 228 301 202 272 137 255 c 1
 176 238 192 219 192 192 c 0
 192 174 174 97 148 2 c 0
 132 -58 126 -85 126 -100 c 0
 126 -137 141 -155 179 -166 c 1
 176 -177 l 1
 84 -174 51 -154 51 -99 c 0
 51 -76 61 -30 83 45 c 0
 105 121 117 174 117 198 c 0
 117 227 104 241 65 255 c 1
 129 272 151 296 170 369 c 1
 218 547 l 1
 249 653 294 687 407 687 c 1
EndSplineSet
MinimumDistance: x2,-1 
EndChar
StartChar: bar
Encoding: 124 124 92
Width: 275
Flags: W
HStem: -18 684<106 170>
VStem: 105 66<-17 665>
Fore
105 -18 m 1
 105 666 l 1
 171 666 l 1
 171 -18 l 1
 105 -18 l 1
EndSplineSet
MinimumDistance: x2,-1 
EndChar
StartChar: braceright
Encoding: 125 125 93
Width: 400
Flags: W
VStem: 208 75<311 320> 274 75<607 623>
DStem: 150 126 230 141 105 -42 182 -37
Fore
221 676 m 1
 224 687 l 1
 315 684 349 663 349 609 c 0
 349 587 338 539 317 465 c 0
 294 388 283 336 283 312 c 0
 283 283 296 269 335 255 c 1
 271 238 249 214 230 141 c 1
 182 -37 l 1
 151 -143 105 -177 -7 -177 c 1
 -4 -166 l 1
 58 -150 84 -121 105 -42 c 2
 150 126 l 2
 172 209 197 238 263 255 c 1
 224 272 208 291 208 318 c 0
 208 336 225 412 252 508 c 0
 267 565 274 596 274 609 c 0
 274 646 259 665 221 676 c 1
EndSplineSet
MinimumDistance: x2,-1 
EndChar
StartChar: asciitilde
Encoding: 126 126 94
Width: 541
Flags: W
HStem: 186 66<360 381> 254 66<162 184>
Fore
448 303 m 1
 502 271 l 1
 456 207 425 186 379 186 c 0
 334 186 316 192 227 240 c 0
 210 249 189 254 168 254 c 0
 137 254 120 242 94 203 c 1
 40 235 l 1
 86 299 117 320 163 320 c 0
 208 320 226 314 315 266 c 0
 332 257 353 252 374 252 c 0
 405 252 422 264 448 303 c 1
EndSplineSet
EndChar
StartChar: exclamdown
Encoding: 161 161 95
Width: 389
Flags: W
HStem: 368 106<267 272>
VStem: 215 106<418 424>
Fore
224 285 m 1
 241 281 l 1
 205 118 188 29 169 -89 c 0
 155 -172 135 -205 99 -205 c 0
 73 -205 59 -188 59 -154 c 0
 59 -124 69 -93 97 -31 c 0
 135 52 171 140 224 285 c 1
270 474 m 0
 299 474 321 451 321 419 c 0
 321 393 296 368 269 368 c 0
 240 368 215 393 215 422 c 0
 215 450 240 474 270 474 c 0
EndSplineSet
MinimumDistance: x7,-1 
EndChar
StartChar: cent
Encoding: 162 162 96
Width: 500
Flags: W
HStem: -10.9917 35.9917<227 252>
VStem: 77 86<129 161> 385 87<351 361>
DStem: 185 -7 215 -10 137 -143 168 -143 334 417 365 420 202 41 228 29 384 560 414 560 342 440 372 440
Fore
414 560 m 1
 372 440 l 1
 407 437 423 432 442 418 c 0
 460 404 472 382 472 360 c 0
 472 334 452 314 424 314 c 0
 400 314 385 328 385 352 c 0
 385 361 387 368 394 381 c 0
 398 390 400 395 400 400 c 0
 400 412 388 419 365 420 c 1
 228 29 l 1
 236 26 242 25 252 25 c 0
 303 25 341 47 397 106 c 1
 413 96 l 1
 353 21 299 -11 227 -11 c 0
 222 -11 220 -11 215 -10 c 1
 168 -143 l 1
 137 -143 l 1
 185 -7 l 1
 158 -1 144 5 129 17 c 0
 96 42 77 86 77 140 c 0
 77 240 135 339 228 399 c 0
 265 423 290 432 342 440 c 1
 384 560 l 1
 414 560 l 1
202 41 m 1
 334 417 l 1
 282 402 254 380 219 328 c 0
 184 275 163 203 163 139 c 0
 163 94 175 64 202 41 c 1
EndSplineSet
MinimumDistance: x3,-1 
EndChar
StartChar: sterling
Encoding: 163 163 97
Width: 500
Flags: W
HStem: -6 22<71 85> -5.9974 71.9974<315 357> 98 27.0666<87 90> 319 42<81 184 281 396> 640.443 28.9465<402 424>
VStem: 10 22<52 60>
Fore
396 319 m 1
 270 319 l 1
 244 209 238 193 197 104 c 1
 268 77 315 66 357 66 c 0
 386 66 408 73 436 93 c 2
 446 100 l 1
 457 91 l 1
 432 29 382 -6 315 -6 c 0
 266 -6 235 8 171 57 c 1
 132 8 110 -6 75 -6 c 0
 36 -6 10 20 10 58 c 0
 10 98 49 126 104 126 c 0
 119 126 120 126 160 115 c 1
 185 319 l 1
 72 319 l 1
 81 361 l 1
 191 361 l 1
 211 474 232 529 282 594 c 0
 320 643 370 670 424 670 c 0
 479 670 517 639 517 594 c 0
 517 567 503 553 478 553 c 0
 454 553 447 562 442 597 c 0
 437 628 426 641 402 641 c 0
 345 641 322 587 280 361 c 1
 403 361 l 1
 396 319 l 1
146 73 m 1
 116 94 107 98 86 98 c 0
 54 98 32 80 32 53 c 0
 32 32 51 16 75 16 c 0
 105 16 134 39 146 73 c 1
EndSplineSet
MinimumDistance: x27,-1 
EndChar
StartChar: currency
Encoding: 164 164 98
Width: 500
Flags: W
HStem: 110 64<234 266> 476 64<235.249 266>
VStem: 35 68<309 341> 397 68<309 341>
DStem: -22 549 28 597 76 451 124 501 76 199 124 151 -22 103 28 53 376 151 426 199 474 53 522 103 474 597 522 549 376 501 426 451
Fore
-22 103 m 1
 76 199 l 1
 47 241 35 278 35 325 c 0
 35 373 47 411 76 451 c 1
 -22 549 l 1
 28 597 l 1
 124 501 l 1
 167 529 204 540 251 540 c 0
 299 540 338 528 376 501 c 1
 474 597 l 1
 522 549 l 1
 426 451 l 1
 453 410 465 373 465 326 c 128
 465 279 454 242 426 199 c 1
 522 103 l 1
 474 53 l 1
 376 151 l 1
 337 123 298 110 251 110 c 0
 205 110 166 123 124 151 c 1
 28 53 l 1
 -22 103 l 1
253 476 m 0
 170 476 103 410 103 327 c 0
 103 242 169 174 251 174 c 0
 332 174 397 241 397 326 c 0
 397 408 332 476 253 476 c 0
EndSplineSet
EndChar
StartChar: yen
Encoding: 165 165 99
Width: 500
Flags: W
HStem: 0 21G<52 337> 182 40<39 191 289 456> 312 40<72 211 350 488> 633 20G<61 300 414 603>
VStem: 61 239<637 652> 414 189<637 652>
DStem: 149 571 264 447 212 352 293 347 226 302 312 304 203 222 288 222
Fore
456 182 m 1
 276 182 l 1
 251 103 245 79 245 57 c 0
 245 31 258 21 299 19 c 0
 305 18 320 17 337 16 c 1
 337 0 l 1
 52 0 l 1
 56 16 l 1
 119 20 148 39 165 90 c 1
 192 182 l 1
 27 182 l 1
 39 222 l 1
 203 222 l 1
 226 302 l 1
 223 312 l 1
 60 312 l 1
 72 352 l 1
 212 352 l 1
 149 571 l 1
 132 625 127 629 61 637 c 1
 61 653 l 1
 300 653 l 1
 300 637 l 1
 236 631 225 626 225 601 c 0
 225 586 236 543 264 447 c 2
 293 347 l 1
 308 364 312 370 321 380 c 0
 434 511 483 578 483 606 c 0
 483 623 470 631 441 634 c 0
 436 635 426 636 414 637 c 1
 414 653 l 1
 603 653 l 1
 603 637 l 1
 571 623 562 616 530 576 c 2
 349 352 l 1
 500 352 l 1
 488 312 l 1
 318 312 l 1
 312 304 l 1
 288 222 l 1
 468 222 l 1
 456 182 l 1
EndSplineSet
EndChar
StartChar: brokenbar
Encoding: 166 166 100
Width: 275
Flags: W
HStem: -18 275<106 170> 391 275<106 170>
VStem: 105 66<-17 256 392 665>
Fore
105 -18 m 1
 105 257 l 1
 171 257 l 1
 171 -18 l 1
 105 -18 l 1
105 391 m 1
 105 666 l 1
 171 666 l 1
 171 391 l 1
 105 391 l 1
EndSplineSet
MinimumDistance: x2,-1 
EndChar
StartChar: section
Encoding: 167 167 101
Width: 500
Flags: W
HStem: -162 21<181 198> 100 21<309 322> 388 20.9954<196 213> 645 21<321 347>
VStem: 53 103<-53 -42> 90.0036 56.9964<286 322> 184.883 60.2765<541 562> 286.518 57.51<-51 -25> 363 98<556 566> 376.996 58.0041<192 226>
Fore
249 398 m 1
 251 401 l 1
 201 462 184 497 184 541 c 0
 184 614 245 666 331 666 c 0
 407 666 461 625 461 567 c 0
 461 533 441 512 409 512 c 0
 382 512 363 531 363 557 c 0
 363 571 369 582 384 595 c 0
 393 603 397 609 397 614 c 0
 397 631 371 645 337 645 c 0
 280 645 245 613 245 562 c 0
 245 536 254 510 271 490 c 2
 394 340 l 2
 420 308 435 267 435 226 c 0
 435 151 387 100 317 100 c 0
 303 100 296 102 284 107 c 1
 282 104 l 1
 335 36 345 15 345 -25 c 0
 345 -103 277 -162 189 -162 c 0
 113 -162 53 -115 53 -54 c 0
 53 -19 74 2 109 2 c 0
 138 2 156 -14 156 -41 c 0
 156 -63 149 -74 129 -87 c 0
 118 -94 114 -98 114 -104 c 0
 114 -124 148 -141 185 -141 c 0
 245 -141 287 -104 287 -51 c 0
 287 -21 275 3 237 46 c 2
 161 133 l 2
 114 186 90 239 90 286 c 0
 90 353 138 409 196 409 c 0
 213 409 232 405 249 398 c 1
213 388 m 0
 177 388 147 359 147 322 c 0
 147 251 254 121 312 121 c 0
 347 121 377 154 377 192 c 0
 377 226 363 256 320 312 c 0
 281 363 246 388 213 388 c 0
EndSplineSet
MinimumDistance: x13,-1 
EndChar
StartChar: dieresis
Encoding: 168 168 102
Width: 333
Flags: W
HStem: 508 98<155 159 347 363>
VStem: 107 98<556 560> 307 98<556 560>
Fore
157 606 m 0
 182 606 205 582 205 557 c 0
 205 530 183 508 156 508 c 128
 129 508 107 530 107 558 c 0
 107 584 129 606 157 606 c 0
357 606 m 0
 382 606 405 582 405 557 c 0
 405 530 383 508 356 508 c 128
 329 508 307 530 307 558 c 0
 307 584 329 606 357 606 c 0
EndSplineSet
EndChar
StartChar: copyright
Encoding: 169 169 103
Width: 760
Flags: W
HStem: -18 42<361 400> 136 20<393 425> 503 20<393 425> 624 42<361 400>
VStem: 41 55<302 334> 191 77<317 334> 664 55<302 334>
Fore
529 240 m 1
 545 240 l 1
 530 172 l 1
 528 161 525 159 511 155 c 0
 461 140 435 136 398 136 c 0
 272 136 191 209 191 323 c 0
 191 441 280 523 409 523 c 0
 440 523 467 518 499 508 c 2
 504 506 l 1
 508 505 l 2
 521 501 529 493 529 484 c 2
 529 415 l 1
 513 415 l 1
 503 474 468 503 407 503 c 0
 317 503 268 442 268 331 c 0
 268 219 319 156 409 156 c 0
 466 156 501 181 529 240 c 1
380 666 m 0
 572 666 719 515 719 318 c 0
 719 133 568 -18 382 -18 c 0
 192 -18 41 133 41 323 c 128
 41 513 192 666 380 666 c 0
381 624 m 0
 226 624 96 487 96 323 c 0
 96 160 226 24 381 24 c 0
 534 24 664 160 664 319 c 0
 664 488 538 624 381 624 c 0
EndSplineSet
MinimumDistance: x17,-1 
EndChar
StartChar: ordfeminine
Encoding: 170 170 104
Width: 276
Flags: W
HStem: 406.003 33.9973<120 144>
VStem: 42 73<471 492>
Fore
299 673 m 1
 352 675 l 1
 319 559 302 493 298 472 c 2
 295 457 l 1
 294 454 294 451 294 449 c 0
 294 446 296 443 298 443 c 0
 299 443 300 443 301 444 c 2
 307 447 l 2
 308 447 319 457 329 467 c 0
 331 470 337 476 343 482 c 1
 350 472 l 1
 301 417 286 406 260 406 c 0
 241 406 229 416 229 432 c 128
 229 448 232 458 246 493 c 1
 197 425 169 406 120 406 c 0
 72 406 42 433 42 476 c 0
 42 569 143 676 231 676 c 0
 265 676 285 665 290 641 c 1
 297 671 l 1
 299 673 l 1
250 658 m 0
 199 665 115 554 115 480 c 0
 115 460 129 440 144 440 c 0
 168 440 196 460 221 496 c 0
 247 535 269 590 269 620 c 0
 269 641 261 656 250 658 c 0
EndSplineSet
MinimumDistance: x20,-1 
EndChar
StartChar: guillemotleft
Encoding: 171 171 105
Width: 500
Flags: W
Fore
53 216 m 1
 53 225 l 1
 89 252 l 2
 146 296 154 303 180 326 c 0
 246 384 270 403 276 403 c 0
 280 403 283 399 283 395 c 0
 283 380 245 333 192 284 c 0
 181 275 155 247 127 217 c 1
 147 177 l 1
 183 110 209 54 209 44 c 0
 209 40 206 37 202 37 c 0
 193 37 167 66 141 105 c 0
 135 114 129 122 120 132 c 0
 86 171 65 198 53 216 c 1
215 216 m 1
 215 225 l 1
 251 252 l 2
 308 296 316 303 342 326 c 0
 408 384 432 403 438 403 c 0
 442 403 445 399 445 395 c 0
 445 380 407 333 354 284 c 0
 343 275 317 247 289 217 c 1
 298 199 306 182 309 177 c 0
 345 110 371 54 371 44 c 0
 371 40 368 37 364 37 c 0
 355 37 329 66 303 105 c 0
 297 114 291 122 282 132 c 0
 248 171 227 198 215 216 c 1
EndSplineSet
EndChar
StartChar: logicalnot
Encoding: 172 172 106
Width: 675
Flags: W
HStem: 320 66<87 523>
VStem: 524 66<109 319>
Fore
524 108 m 1
 524 320 l 1
 86 320 l 1
 86 386 l 1
 590 386 l 1
 590 108 l 1
 524 108 l 1
EndSplineSet
MinimumDistance: x4,-1 y1,5 y1,0 
EndChar
StartChar: registered
Encoding: 174 174 107
Width: 760
Flags: W
HStem: -18 42<361 398> 146 365<269 333> 307 18<334 380> 492 19<334 384> 624 42<361 398>
VStem: 41 55<302 334> 269 64<190 306 326 462> 443 67<413 430> 664 55<302 334>
Fore
221 496 m 1
 221 511 l 1
 396 511 l 2
 466 511 510 475 510 420 c 0
 510 373 483 338 431 317 c 1
 488 239 l 2
 519 197 543 170 563 155 c 1
 563 146 l 1
 500 146 l 2
 483 146 466 165 431 225 c 0
 414 255 404 271 380 307 c 1
 333 307 l 1
 333 209 l 2
 333 166 333 166 381 161 c 1
 381 146 l 1
 221 146 l 1
 221 161 l 1
 269 166 269 166 269 209 c 2
 269 448 l 2
 269 491 269 491 221 496 c 1
333 492 m 1
 333 325 l 1
 375 325 l 2
 419 325 443 357 443 414 c 0
 443 465 419 492 374 492 c 2
 333 492 l 1
380 666 m 0
 572 666 719 515 719 318 c 0
 719 133 568 -18 382 -18 c 0
 192 -18 41 133 41 323 c 128
 41 513 192 666 380 666 c 0
381 624 m 0
 226 624 96 487 96 323 c 0
 96 160 226 24 381 24 c 0
 534 24 664 160 664 319 c 0
 664 488 538 624 381 624 c 0
EndSplineSet
MinimumDistance: x25,-1 
EndChar
StartChar: macron
Encoding: 175 175 108
Width: 333
Flags: W
HStem: 532 51<110 400>
Fore
411 583 m 1
 400 532 l 1
 99 532 l 1
 110 583 l 1
 411 583 l 1
EndSplineSet
EndChar
StartChar: degree
Encoding: 176 176 109
Width: 400
Flags: W
HStem: 390 34<229.209 246> 642 34<241 246>
VStem: 101 39<518.127 535> 348 39<518 535>
Fore
244 676 m 0
 324 676 387 613 387 533 c 0
 387 452 324 390 242 390 c 0
 164 390 101 454 101 533 c 0
 101 613 164 676 244 676 c 0
244 642 m 0
 187 642 140 592 140 533 c 128
 140 474 187 424 243 424 c 0
 301 424 348 473 348 533 c 0
 348 592 300 642 244 642 c 0
EndSplineSet
MinimumDistance: x1,-1 
EndChar
StartChar: plusminus
Encoding: 177 177 110
Width: 675
Flags: W
HStem: 0 66<87 589> 282 66<87 305 371 589>
VStem: 86 504<1 65 282 348> 305 66<123 282 348 567>
Fore
86 0 m 1
 86 66 l 1
 590 66 l 1
 590 0 l 1
 86 0 l 1
305 348 m 1
 305 568 l 1
 371 568 l 1
 371 348 l 1
 590 348 l 1
 590 282 l 1
 371 282 l 1
 371 122 l 1
 305 122 l 1
 305 282 l 1
 86 282 l 1
 86 348 l 1
 305 348 l 1
EndSplineSet
MinimumDistance: x2,-1 y10,12 y10,11 y7,5 y7,6 x7,9 x7,8 x4,14 x4,15 
EndChar
StartChar: twosuperior
Encoding: 178 178 111
Width: 300
Flags: W
HStem: 271 53<113 227> 624.995 51.0054<181 213>
VStem: 258.991 65.0085<558 575>
DStem: 166 419 225 439 33 289 111 329
Fore
286 358 m 1
 297 350 l 1
 264 271 l 1
 33 271 l 1
 33 289 l 1
 166 419 l 2
 228 479 259 526 259 558 c 0
 259 595 224 625 181 625 c 0
 145 625 120 610 91 572 c 1
 78 580 l 1
 92 613 102 627 121 643 c 0
 146 664 180 676 213 676 c 0
 274 676 324 630 324 575 c 0
 324 540 312 523 225 439 c 2
 111 329 l 1
 113 324 l 1
 221 324 l 2
 257 324 270 331 286 358 c 1
EndSplineSet
EndChar
StartChar: threesuperior
Encoding: 179 179 112
Width: 300
Flags: W
HStem: 643.991 32.0094<222 244>
VStem: 237.996 63.0036<392 425> 272 67<588 602>
Fore
149 608 m 1
 139 615 l 1
 159 653 199 676 244 676 c 0
 298 676 339 643 339 600 c 0
 339 561 315 540 238 513 c 1
 242 511 l 2
 270 497 271 496 280 487 c 0
 294 471 301 451 301 425 c 0
 301 333 224 268 116 268 c 0
 69 268 43 282 43 307 c 0
 43 322 56 335 73 335 c 0
 81 335 94 329 111 318 c 0
 130 304 143 299 154 299 c 0
 202 299 238 339 238 392 c 0
 238 440 213 475 171 485 c 0
 159 489 152 489 125 489 c 1
 125 498 l 1
 225 516 272 547 272 592 c 0
 272 622 250 644 222 644 c 0
 196 644 178 635 149 608 c 1
EndSplineSet
EndChar
StartChar: acute
Encoding: 180 180 113
Width: 333
Flags: W
Fore
180 494 m 1
 342 654 l 2
 349 660 357 664 367 664 c 0
 387 664 403 648 403 628 c 0
 403 616 398 607 386 600 c 2
 215 494 l 1
 180 494 l 1
EndSplineSet
EndChar
StartChar: mu
Encoding: 181 181 114
Width: 500
Flags: W
HStem: -9.99667 54.9967<178 214>
VStem: -29.9978 104.998<-164 -66> 328 85<49 63>
DStem: 127 428 215 428 42 54 148 144 409 428 497 428 336 115 419 92
Fore
497 428 m 1
 419 92 l 1
 413 70 413 68 413 58 c 0
 413 40 422 30 439 30 c 128
 456 30 470 37 495 56 c 1
 492 47 l 1
 450 4 424 -10 385 -10 c 0
 347 -10 328 10 328 49 c 0
 328 59 329 66 332 80 c 1
 279 18 231 -10 178 -10 c 128
 125 -10 94 14 75 66 c 1
 74 45 73 34 73 18 c 0
 73 7 73 -6 74 -24 c 0
 75 -40 75 -57 75 -66 c 0
 75 -153 47 -209 4 -209 c 0
 -19 -209 -30 -194 -30 -164 c 0
 -30 -129 -22 -104 8 -46 c 1
 26 -1 36 27 42 54 c 2
 127 428 l 1
 215 428 l 1
 148 144 l 1
 146 137 145 123 145 114 c 0
 145 72 172 45 214 45 c 0
 257 45 301 70 336 115 c 1
 409 428 l 1
 497 428 l 1
EndSplineSet
MinimumDistance: x0,-1 
EndChar
StartChar: paragraph
Encoding: 182 182 115
Width: 523
Flags: W
HStem: -123 23<391 403.864> 632 21<403 460>
VStem: 92 77<402 421>
DStem: 461 632 513 574 261 -123 357 -11
Fore
616 653 m 1
 610 632 l 1
 534 627 527 622 513 574 c 1
 357 -11 l 2
 356 -14 355 -19 353 -26 c 0
 345 -52 342 -64 342 -76 c 0
 342 -90 356 -96 391 -100 c 0
 394 -100 404 -101 414 -102 c 1
 409 -123 l 1
 261 -123 l 1
 461 632 l 1
 403 632 l 1
 203 -123 l 1
 55 -123 l 1
 60 -102 l 1
 106 -98 122 -95 134 -89 c 1
 147 -85 147 -85 215 171 c 0
 226 216 233 239 245 283 c 1
 190 285 165 292 137 311 c 0
 108 332 92 364 92 403 c 0
 92 466 115 534 151 577 c 0
 196 631 257 653 359 653 c 2
 616 653 l 1
255 304 m 1
 334 632 l 1
 291 629 263 616 235 585 c 0
 197 544 169 468 169 406 c 0
 169 373 181 343 202 323 c 0
 214 311 227 307 255 304 c 1
EndSplineSet
MinimumDistance: x2,-1 
EndChar
StartChar: periodcentered
Encoding: 183 183 116
Width: 250
Flags: W
HStem: 199 111<118 134>
VStem: 70 111<247 263>
Fore
125 310 m 0
 155 310 181 284 181 253 c 0
 181 224 155 199 124 199 c 0
 95 199 70 224 70 253 c 0
 70 284 95 310 125 310 c 0
EndSplineSet
MinimumDistance: x1,-1 
EndChar
StartChar: cedilla
Encoding: 184 184 117
Width: 333
Flags: W
HStem: -217 35<50 66> -20 20G<81 119>
VStem: 108 74<-142 -131>
Fore
21 -96 m 1
 81 0 l 1
 119 0 l 1
 75 -66 l 1
 85 -64 92 -63 100 -63 c 0
 150 -63 182 -90 182 -131 c 0
 182 -181 132 -217 63 -217 c 0
 35 -217 12 -212 -30 -196 c 1
 -13 -167 l 1
 17 -178 34 -182 55 -182 c 0
 89 -182 108 -167 108 -141 c 128
 108 -115 89 -97 62 -97 c 0
 52 -97 44 -99 30 -104 c 1
 21 -96 l 1
EndSplineSet
MinimumDistance: x5,-1 
EndChar
StartChar: onesuperior
Encoding: 185 185 118
Width: 300
Flags: W
VStem: 43 181<272 287>
DStem: 198 597 280 655 108 312 194 381
Fore
224 287 m 1
 224 271 l 1
 43 271 l 1
 43 287 l 1
 90 292 103 297 108 312 c 2
 198 597 l 2
 202 609 203 614 203 618 c 0
 203 628 193 638 185 636 c 2
 182 635 l 1
 148 635 l 1
 148 654 l 1
 179 659 196 661 218 666 c 0
 245 671 264 675 273 675 c 0
 274 675 276 676 276 676 c 1
 279 676 l 2
 281 676 284 673 284 671 c 128
 284 669 283 663 280 655 c 1
 194 381 l 2
 182 343 175 316 175 307 c 0
 175 292 186 288 224 287 c 1
EndSplineSet
MinimumDistance: x14,-1 
EndChar
StartChar: ordmasculine
Encoding: 186 186 119
Width: 310
Flags: W
HStem: 406.543 23.4572<177 180>
VStem: 67 73<476 491> 288.231 73.7687<591 598>
Fore
265 676 m 0
 322 676 362 641 362 592 c 0
 362 500 262 406 164 406 c 0
 105 406 67 439 67 489 c 0
 67 584 164 676 265 676 c 0
258 654 m 0
 204 658 140 561 140 476 c 0
 140 448 155 430 178 430 c 0
 195 430 214 439 227 452 c 0
 263 490 289 555 289 607 c 0
 289 637 279 653 258 654 c 0
EndSplineSet
EndChar
StartChar: guillemotright
Encoding: 187 187 120
Width: 500
Flags: W
Fore
447 224 m 1
 447 215 l 1
 356 145 346 137 320 114 c 0
 256 58 230 37 224 37 c 0
 220 37 217 41 217 45 c 0
 217 60 255 107 308 156 c 0
 319 165 345 192 373 223 c 1
 353 263 l 1
 317 330 291 386 291 396 c 0
 291 400 294 403 298 403 c 0
 307 403 333 374 359 335 c 0
 365 327 371 318 380 308 c 0
 413 269 435 242 447 224 c 1
285 224 m 1
 285 215 l 1
 194 145 184 137 158 114 c 0
 94 58 68 37 62 37 c 0
 58 37 55 41 55 45 c 0
 55 60 93 107 146 156 c 0
 157 165 183 192 211 223 c 1
 191 263 l 1
 155 330 129 386 129 396 c 0
 129 400 132 403 136 403 c 0
 145 403 171 374 197 335 c 0
 203 327 209 318 218 308 c 0
 251 269 273 242 285 224 c 1
EndSplineSet
KernsSLIF: 89 -81 1 0 87 -67 1 0 86 -76 1 0 84 -77 1 0 197 -25 1 0 196 -25 1 0 193 -25 1 0 198 -51 1 0 65 -25 1 0
EndChar
StartChar: onequarter
Encoding: 188 188 121
Width: 750
Flags: W
HStem: 0 21G<552 615> 105 42<465 583 658 703>
VStem: 33 181<272 287>
DStem: 188 597 270 655 98 312 184 381 598 676 649 676 143 -10 194 -10 700 406 653 333 429 147 464 147
Fore
712 147 m 1
 703 104 l 1
 645 104 l 1
 615 0 l 1
 552 0 l 1
 584 105 l 1
 416 105 l 1
 429 147 l 1
 700 406 l 1
 736 406 l 1
 657 147 l 1
 712 147 l 1
653 333 m 1
 464 147 l 1
 593 147 l 1
 653 333 l 1
649 676 m 1
 194 -10 l 1
 143 -10 l 1
 598 676 l 1
 649 676 l 1
214 287 m 1
 214 271 l 1
 33 271 l 1
 33 287 l 1
 80 292 93 297 98 312 c 2
 188 597 l 2
 192 609 193 614 193 618 c 0
 193 628 184 637 175 636 c 2
 168 635 l 1
 138 635 l 1
 138 654 l 1
 208 666 l 2
 235 671 263 676 268 676 c 0
 271 676 273 674 273 671 c 0
 273 667 272 660 270 655 c 1
 184 381 l 2
 172 343 165 316 165 307 c 0
 165 292 176 288 214 287 c 1
EndSplineSet
MinimumDistance: x11,-1 
EndChar
StartChar: onehalf
Encoding: 189 189 122
Width: 750
Flags: W
HStem: 0 53<538 658> 353.995 52.0054<606 639>
VStem: 34 181<272 287> 683.578 65.0028<287 304>
DStem: 189 597 271 655 99 312 185 381 584 676 635 676 129 -10 180 -10 591 148 650 168 458 18 536 58
Fore
635 676 m 1
 180 -10 l 1
 129 -10 l 1
 584 676 l 1
 635 676 l 1
215 287 m 1
 215 271 l 1
 34 271 l 1
 34 287 l 1
 81 292 94 297 99 312 c 2
 189 597 l 2
 194 612 194 612 194 617 c 0
 194 629 185 638 176 636 c 2
 170 635 l 1
 139 635 l 1
 139 654 l 1
 169 659 186 661 209 666 c 0
 236 671 254 675 264 675 c 0
 265 675 267 676 267 676 c 1
 269 676 l 2
 272 676 274 674 274 671 c 128
 274 668 274 668 271 655 c 1
 185 381 l 2
 173 342 166 315 166 307 c 0
 166 292 177 288 215 287 c 1
711 87 m 1
 722 79 l 1
 689 0 l 1
 458 0 l 1
 458 18 l 1
 591 148 l 2
 652 208 684 255 684 287 c 0
 684 324 649 354 606 354 c 0
 570 354 545 339 516 301 c 1
 503 309 l 1
 517 342 527 357 546 372 c 0
 572 394 606 406 639 406 c 0
 699 406 749 359 749 304 c 0
 749 269 737 252 650 168 c 2
 536 58 l 1
 538 53 l 1
 646 53 l 2
 682 53 695 60 711 87 c 1
EndSplineSet
EndChar
StartChar: threequarters
Encoding: 190 190 123
Width: 750
Flags: W
HStem: 0 21G<552 615> 105 42<465 583 658 703> 643.991 32.0094<202 224>
VStem: 217.024 63.0773<392 425> 252 67<591 602>
DStem: 599 676 650 676 144 -10 195 -10 700 406 653 333 429 147 464 147
Fore
712 147 m 1
 703 104 l 1
 645 104 l 1
 615 0 l 1
 552 0 l 1
 584 105 l 1
 416 105 l 1
 429 147 l 1
 700 406 l 1
 736 406 l 1
 657 147 l 1
 712 147 l 1
653 333 m 1
 464 147 l 1
 593 147 l 1
 653 333 l 1
650 676 m 1
 195 -10 l 1
 144 -10 l 1
 599 676 l 1
 650 676 l 1
129 608 m 1
 119 615 l 1
 139 653 179 676 224 676 c 0
 278 676 319 643 319 600 c 0
 319 561 295 540 218 513 c 1
 222 511 l 2
 250 497 251 496 260 487 c 0
 274 471 281 451 281 425 c 0
 281 333 204 268 96 268 c 0
 49 268 23 282 23 307 c 0
 23 322 36 335 53 335 c 0
 61 335 74 329 91 318 c 0
 110 304 123 299 134 299 c 0
 182 299 218 339 218 392 c 0
 218 440 193 475 151 485 c 0
 139 489 132 489 105 489 c 1
 105 498 l 1
 205 516 252 547 252 592 c 0
 252 622 230 644 202 644 c 0
 176 644 158 635 129 608 c 1
EndSplineSet
MinimumDistance: x11,-1 
EndChar
StartChar: questiondown
Encoding: 191 191 124
Width: 500
Flags: W
HStem: -205 22<172 191> 368 105<313 318>
VStem: 28.9575 73.1391<-99 -76> 237 78.1155<-96 -83> 262 105<419 423>
Fore
284 285 m 1
 301 283 l 1
 283 184 272 162 189 67 c 1
 124 -4 102 -46 102 -99 c 0
 102 -153 131 -183 182 -183 c 0
 225 -183 252 -165 252 -135 c 0
 252 -127 250 -121 244 -108 c 0
 239 -96 237 -91 237 -83 c 0
 237 -63 253 -48 277 -48 c 128
 301 -48 316 -66 316 -96 c 0
 316 -160 258 -205 175 -205 c 0
 86 -205 28 -154 28 -76 c 0
 28 -15 48 12 162 105 c 0
 233 162 263 200 277 256 c 2
 284 285 l 1
314 473 m 0
 344 473 367 450 367 421 c 0
 367 391 344 368 315 368 c 128
 286 368 262 392 262 421 c 0
 262 448 286 473 314 473 c 0
EndSplineSet
MinimumDistance: x15,-1 
EndChar
StartChar: AE
Encoding: 198 198 131
Width: 889
Flags: W
HStem: 0 33<501 581> 234 37<250 410> 328 33<545.125 607> 620 33<645 725> 636 17<410 420>
VStem: -27 187<1 16>
DStem: 426 557 517 613 57 92 249 271 517 613 606 583 422 271 545 361
Fore
826 169 m 1
 844 164 l 1
 780 0 l 1
 282 0 l 1
 282 16 l 1
 343 22 350 27 362 64 c 1
 411 234 l 1
 221 234 l 1
 210 220 200 208 196 204 c 0
 135 131 96 70 96 47 c 0
 96 28 107 22 160 16 c 1
 160 0 l 1
 -27 0 l 1
 -27 16 l 1
 -3 22 9 32 57 92 c 2
 426 557 l 2
 456 594 458 598 458 610 c 0
 458 626 447 634 420 636 c 0
 416 636 405 637 394 638 c 1
 394 653 l 1
 911 653 l 1
 878 500 l 1
 861 502 l 1
 862 515 862 532 862 538 c 0
 862 608 834 620 670 620 c 0
 623 620 615 615 606 583 c 2
 545 361 l 1
 704 362 714 367 756 458 c 1
 774 454 l 1
 705 222 l 1
 688 226 l 1
 692 250 694 264 694 278 c 0
 694 319 673 328 576 328 c 2
 536 328 l 1
 478 122 465 74 465 62 c 0
 465 42 481 33 516 33 c 2
 546 33 l 2
 696 33 750 60 826 169 c 1
249 271 m 1
 422 271 l 1
 517 613 l 1
 249 271 l 1
EndSplineSet
MinimumDistance: x25,-1 
EndChar
StartChar: Ccedilla
Encoding: 199 199 132
Width: 667
Flags: W
HStem: -217 35<210 232> -17.8293 44.8293<338 353> 630 36<466 483> 644 20G<668 689>
VStem: 66 112<231 247> 275 74<-142 -131>
Fore
277 -14 m 1
 242 -66 l 1
 252 -64 259 -63 267 -63 c 0
 317 -63 349 -90 349 -131 c 0
 349 -181 299 -217 230 -217 c 0
 202 -217 179 -212 137 -196 c 1
 154 -167 l 1
 183 -178 201 -182 222 -182 c 0
 256 -182 275 -167 275 -141 c 128
 275 -115 256 -97 229 -97 c 0
 219 -97 211 -99 197 -104 c 1
 188 -96 l 1
 244 -6 l 1
 135 26 66 122 66 243 c 0
 66 465 259 666 472 666 c 0
 504 666 544 660 589 649 c 0
 610 644 622 642 630 642 c 0
 650 642 660 648 668 664 c 1
 689 664 l 1
 652 465 l 1
 634 468 l 1
 624 576 573 630 481 630 c 0
 415 630 352 602 304 553 c 0
 226 472 178 351 178 232 c 0
 178 103 242 27 353 27 c 0
 435 27 493 57 583 145 c 1
 600 131 l 1
 510 26 430 -18 327 -18 c 0
 311 -18 295 -17 277 -14 c 1
EndSplineSet
MinimumDistance: x3,-1 
KernsSLIF: 65 -18 0 0
EndChar
StartChar: Eth
Encoding: 208 208 141
Width: 722
Flags: W
HStem: 0 30<216 264> 326 42<60 137 251 391> 623 30<360 403>
VStem: 589 111<383 410>
DStem: 60 368 238 326 48 326 192 162 138 326 238 326 73 90 192 162 196 532 313 594 150 368 250 368
Fore
48 326 m 1
 60 368 l 1
 150 368 l 1
 196 532 l 2
 203 556 207 580 207 596 c 0
 207 623 193 631 130 637 c 1
 130 653 l 1
 408 653 l 2
 586 653 700 548 700 384 c 0
 700 268 643 158 546 87 c 0
 469 31 362 0 245 0 c 2
 -8 0 l 1
 -8 16 l 1
 48 26 56 32 73 90 c 1
 138 326 l 1
 48 326 l 1
403 368 m 1
 391 326 l 1
 238 326 l 1
 192 162 l 2
 176 106 170 79 170 67 c 0
 170 41 189 30 235 30 c 0
 339 30 420 60 479 120 c 0
 547 188 589 300 589 408 c 0
 589 487 562 550 513 586 c 0
 481 610 432 623 377 623 c 0
 335 623 319 616 313 594 c 2
 250 368 l 1
 403 368 l 1
EndSplineSet
MinimumDistance: x8,-1 
EndChar
StartChar: multiply
Encoding: 215 215 148
Width: 675
Flags: W
DStem: 93 449 141 497 289 253 337 300 289 253 337 205 93 56 141 8 337 205 385 253 534 8 582 56 534 497 582 449 337 300 385 253
Fore
289 253 m 1
 93 449 l 1
 141 497 l 1
 337 300 l 1
 534 497 l 1
 582 449 l 1
 385 253 l 1
 582 56 l 1
 534 8 l 1
 337 205 l 1
 141 8 l 1
 93 56 l 1
 289 253 l 1
EndSplineSet
MinimumDistance: x5,-1 
EndChar
StartChar: Oslash
Encoding: 216 216 149
Width: 722
Flags: W
HStem: -18 33<276 300> 633 33<460 483>
VStem: 60.6719 105.057<176 222> 594 104.998<431 475>
DStem: 155 22 187 3 69 -105 113 -105 546 607 570 574 190 74 215 44 625 722 669 722 573 644 605 626
Fore
669 722 m 1
 605 626 l 1
 638 600 650 587 665 562 c 0
 687 524 699 477 699 431 c 0
 699 205 491 -18 281 -18 c 0
 250 -18 225 -12 187 3 c 1
 113 -105 l 1
 69 -105 l 1
 155 22 l 1
 89 70 60 132 60 222 c 0
 60 339 119 460 220 553 c 0
 300 625 390 666 468 666 c 0
 505 666 536 660 573 644 c 1
 625 722 l 1
 669 722 l 1
190 74 m 1
 546 607 l 1
 521 625 497 633 464 633 c 0
 393 633 330 594 275 514 c 0
 212 423 165 279 165 176 c 0
 165 138 172 108 190 74 c 1
570 574 m 1
 215 44 l 1
 237 23 261 15 295 15 c 0
 366 15 428 53 483 132 c 0
 545 222 594 373 594 475 c 0
 594 514 586 545 570 574 c 1
EndSplineSet
KernsSLIF: 65 -38 0 0
EndChar
StartChar: Thorn
Encoding: 222 222 155
Width: 611
Flags: W
HStem: 0 21G<0 245> 170 36<266 302> 488 30<320 352> 633 20G<146 384>
VStem: 0 245<1 16> 146 238<637 652> 466 103<352 384>
DStem: 200 515 286 459 82 90 215 211 200 515 206 180 82 90 189 120
Fore
146 637 m 1
 146 653 l 1
 384 653 l 1
 384 637 l 1
 344 632 331 623 322 595 c 1
 302 518 l 1
 358 518 l 2
 494 518 569 465 569 369 c 0
 569 310 540 255 490 218 c 0
 447 187 379 170 295 170 c 0
 253 170 230 173 206 180 c 1
 189 120 l 2
 180 87 177 74 177 62 c 0
 177 28 182 25 245 16 c 1
 245 0 l 1
 0 0 l 1
 0 16 l 1
 57 24 64 30 82 90 c 1
 200 515 l 2
 213 561 217 581 217 595 c 0
 217 622 203 630 146 637 c 1
286 459 m 2
 215 211 l 1
 245 206 250 206 267 206 c 0
 329 206 368 214 399 231 c 0
 443 257 466 303 466 368 c 0
 466 416 455 445 429 464 c 0
 409 478 370 488 332 488 c 0
 304 488 292 480 286 459 c 2
EndSplineSet
MinimumDistance: x7,-1 
EndChar
StartChar: germandbls
Encoding: 223 223 156
Width: 500
Flags: W
HStem: -207 24<-91 -81> -13 22<243 251> 656 23<340 360>
VStem: -168 79<-146 -137> 161 82<52 64> 260 70<381 384> 366.427 87.5735<241 257> 412.58 79.8869<548 577>
Fore
330 384 m 1
 330 381 l 1
 361 377 377 372 395 360 c 0
 430 336 454 290 454 244 c 0
 454 174 421 97 370 44 c 0
 335 8 287 -13 241 -13 c 0
 193 -13 161 14 161 53 c 0
 161 81 179 100 205 100 c 0
 228 100 243 84 243 60 c 0
 243 51 241 43 235 33 c 0
 233 29 231 24 231 22 c 0
 231 15 240 9 249 9 c 0
 275 9 300 28 320 63 c 0
 348 113 367 194 367 262 c 0
 367 332 341 367 286 369 c 0
 266 370 260 374 260 384 c 128
 260 394 264 397 277 397 c 0
 358 397 413 470 413 577 c 0
 413 628 391 656 351 656 c 0
 293 656 244 582 206 438 c 1
 95 12 l 2
 59 -125 -10 -207 -90 -207 c 0
 -137 -207 -168 -182 -168 -145 c 0
 -168 -119 -153 -103 -129 -103 c 0
 -106 -103 -89 -118 -89 -139 c 0
 -89 -146 -92 -157 -97 -165 c 0
 -100 -169 -101 -172 -101 -175 c 0
 -101 -180 -94 -183 -83 -183 c 0
 -34 -183 -7 -139 23 -4 c 1
 95 315 l 2
 153 571 230 679 354 679 c 0
 437 679 493 626 493 548 c 0
 493 475 448 428 338 387 c 2
 330 384 l 1
EndSplineSet
EndChar
StartChar: ae
Encoding: 230 230 163
Width: 667
Flags: W
HStem: -10.9963 46.9963<403 446> 415.992 25.0083<539 559> 421 20<291.852 303>
VStem: 296.057 80.9359<111 137> 574 66<369 383>
Fore
588 113 m 1
 598 101 l 1
 542 33 466 -11 403 -11 c 128
 340 -11 296 40 296 111 c 0
 296 125 298 135 302 151 c 1
 217 27 171 -11 107 -11 c 0
 58 -11 23 28 23 83 c 0
 23 241 179 441 303 441 c 0
 337 441 353 430 369 394 c 1
 388 437 l 1
 459 439 l 1
 437 377 l 1
 484 423 518 441 559 441 c 0
 609 441 640 414 640 371 c 0
 640 333 619 300 577 272 c 0
 539 247 491 229 384 198 c 1
 378 170 376 159 376 137 c 0
 376 71 400 36 446 36 c 0
 489 36 529 57 588 113 c 1
305 421 m 0
 226 425 116 246 109 100 c 0
 107 61 120 39 143 39 c 0
 169 39 200 55 223 80 c 0
 295 158 350 284 350 370 c 0
 350 400 332 420 305 421 c 0
390 223 m 1
 418 231 437 236 450 241 c 0
 523 266 574 323 574 379 c 0
 574 403 562 416 539 416 c 128
 516 416 493 404 473 384 c 1
 438 346 420 312 390 223 c 1
EndSplineSet
MinimumDistance: x13,-1 
KernsSLIF: 121 6 0 0 119 5 0 0 118 2 0 0
EndChar
StartChar: ccedilla
Encoding: 231 231 164
Width: 444
Flags: W
HStem: -217 35<106 122> -10.9983 35.9983<176 207> 420 21<314 322>
VStem: 30 86<119 151> 164 74<-142 -131> 338 87<351 361>
Fore
168 -11 m 1
 131 -66 l 1
 141 -64 148 -63 156 -63 c 0
 206 -63 238 -90 238 -131 c 0
 238 -181 188 -217 119 -217 c 0
 91 -217 68 -212 26 -196 c 1
 43 -167 l 1
 72 -178 90 -182 111 -182 c 0
 145 -182 164 -167 164 -141 c 128
 164 -115 145 -97 118 -97 c 0
 108 -97 100 -99 86 -104 c 1
 77 -96 l 1
 133 -6 l 1
 66 10 30 60 30 139 c 0
 30 295 170 441 320 441 c 0
 380 441 425 406 425 360 c 0
 425 334 404 314 377 314 c 0
 353 314 338 328 338 352 c 0
 338 361 340 368 347 381 c 0
 351 390 353 395 353 400 c 0
 353 412 338 420 316 420 c 0
 276 420 236 402 207 372 c 0
 151 314 116 224 116 139 c 0
 116 68 150 25 207 25 c 0
 256 25 295 47 350 106 c 1
 366 96 l 1
 306 19 252 -11 176 -11 c 2
 168 -11 l 1
EndSplineSet
MinimumDistance: x15,-1 
EndChar
StartChar: eth
Encoding: 240 240 173
Width: 500
Flags: W
HStem: -10.9907 20.9907<176 194> 420 21<305 324>
VStem: 27.3745 84.077<101 129> 383.856 82.3623<326 359>
DStem: 297 599 324 567 174 545 207 516 450 665 482 637 351 622 381 592
Fore
324 567 m 1
 207 516 l 1
 174 545 l 1
 297 599 l 1
 262 632 236 649 194 666 c 1
 229 683 l 1
 274 673 311 655 351 622 c 1
 450 665 l 1
 482 637 l 1
 381 592 l 1
 442 519 467 452 467 359 c 0
 467 161 331 -11 174 -11 c 0
 83 -11 27 43 27 129 c 0
 27 280 173 441 310 441 c 0
 348 441 377 424 394 392 c 1
 396 393 l 1
 386 462 364 515 324 567 c 1
313 420 m 0
 270 420 228 390 189 334 c 0
 141 263 111 175 111 101 c 0
 111 47 142 10 189 10 c 0
 232 10 270 35 306 88 c 0
 351 152 384 253 384 326 c 0
 384 383 356 420 313 420 c 0
EndSplineSet
MinimumDistance: x8,-1 
EndChar
StartChar: divide
Encoding: 247 247 180
Width: 675
Flags: W
HStem: -11 111<335 342> 220 66<87 589> 406 111<335 342>
VStem: 283 111<37 53 453 469>
Fore
590 220 m 1
 86 220 l 1
 86 286 l 1
 590 286 l 1
 590 220 l 1
338 100 m 0
 368 100 394 74 394 43 c 0
 394 13 368 -11 336 -11 c 0
 308 -11 283 14 283 43 c 0
 283 74 308 100 338 100 c 0
338 517 m 0
 368 517 394 491 394 460 c 0
 394 431 368 406 337 406 c 0
 308 406 283 431 283 460 c 0
 283 491 308 517 338 517 c 0
EndSplineSet
MinimumDistance: x5,-1 
EndChar
StartChar: oslash
Encoding: 248 248 181
Width: 500
Flags: W
HStem: -11 21<177 191> 420 21<307 323>
VStem: 28.2329 84.6855<97 130> 384.725 83.5124<298 325>
DStem: 124 -4 156 -9 60 -135 95 -135 328 418 357 406 140 29 167 14 394 554 428 554 339 440 370 435
Fore
428 554 m 1
 370 435 l 1
 411 423 430 409 448 379 c 0
 461 357 469 325 469 298 c 0
 469 222 425 133 355 68 c 0
 298 16 238 -11 176 -11 c 0
 167 -11 162 -11 156 -9 c 1
 95 -135 l 1
 60 -135 l 1
 124 -4 l 1
 93 6 80 14 65 30 c 0
 41 55 28 91 28 130 c 0
 28 283 178 441 323 441 c 0
 327 441 332 441 339 440 c 1
 394 554 l 1
 428 554 l 1
140 29 m 1
 328 418 l 1
 323 419 320 420 318 420 c 0
 285 420 250 403 223 374 c 0
 157 304 112 192 112 97 c 0
 112 70 121 48 140 29 c 1
357 406 m 1
 167 14 l 1
 175 11 180 10 189 10 c 0
 233 10 271 34 308 87 c 0
 353 152 385 252 385 325 c 0
 385 360 376 385 357 406 c 1
EndSplineSet
EndChar
StartChar: thorn
Encoding: 254 254 187
Width: 500
Flags: W
HStem: -205 16<-74 -74 106 129> -11 19<153.477 181> 397.994 43.0056<317 353>
VStem: -75 205<-204 -190> 379 90<303 332>
Fore
130 -190 m 1
 130 -205 l 1
 -75 -205 l 1
 -75 -189 l 1
 -32 -188 -18 -176 -8 -130 c 1
 106 304 l 1
 152 472 166 522 174 554 c 0
 175 560 177 566 179 573 c 0
 186 596 188 607 188 616 c 0
 188 638 182 641 123 643 c 1
 123 660 l 1
 190 668 226 674 275 683 c 1
 280 678 l 1
 216 433 199 366 189 335 c 1
 191 333 l 1
 237 406 290 441 353 441 c 0
 426 441 469 394 469 315 c 0
 469 157 315 -11 169 -11 c 0
 146 -11 128 -7 103 6 c 1
 84 -67 66 -146 66 -159 c 0
 66 -182 83 -190 130 -190 c 1
317 398 m 0
 263 398 209 353 182 284 c 0
 153 210 117 79 117 45 c 0
 117 23 137 8 166 8 c 0
 217 8 265 39 307 98 c 0
 350 160 379 246 379 312 c 0
 379 370 358 398 317 398 c 0
EndSplineSet
MinimumDistance: x16,-1 
EndChar
StartChar: Aogonek
Encoding: 260 260 193
Width: 611
Flags: W
HStem: -168.996 62.9962<582 607> 0 21G<-51 136> 226 36<176 368>
VStem: -51 187<1 16> 318 246<0 16> 487.914 60.4698<-73 -49>
DStem: 325 522 394 668 369 262 488 102 368 668 325 522 78 168 175 262
Fore
374 226 m 1
 154 226 l 1
 97 113 l 2
 80 79 77 70 77 51 c 0
 77 26 85 21 136 16 c 1
 136 0 l 1
 -51 0 l 1
 -51 16 l 1
 -11 24 -1 35 78 168 c 1
 368 668 l 1
 394 668 l 1
 488 102 l 1
 501 29 507 21 564 16 c 1
 564 0 l 1
 553 -11 548 -27 548 -49 c 0
 548 -85 570 -106 607 -106 c 0
 638 -106 663 -96 690 -74 c 1
 707 -92 l 1
 672 -143 630 -169 582 -169 c 0
 530 -169 487 -126 487 -73 c 0
 487 -46 493 -30 515 0 c 1
 318 0 l 1
 318 16 l 1
 382 22 396 31 396 69 c 0
 396 77 395 86 394 95 c 1
 374 226 l 1
175 262 m 1
 369 262 l 1
 325 522 l 1
 175 262 l 1
EndSplineSet
MinimumDistance: x14,-1 
EndChar
StartChar: aogonek
Encoding: 261 261 194
Width: 500
Flags: W
HStem: -168.996 62.9962<375 400> -10.9977 48.9977<119 159> 419.171 21.8288<291.524 303 303.063 308.969>
VStem: 17 84<99 119> 280.004 60.996<-74 -52>
Fore
464 110 m 1
 476 100 l 1
 428 41 399 12 372 -4 c 0
 348 -17 341 -28 341 -52 c 0
 341 -85 364 -106 400 -106 c 0
 431 -106 456 -96 483 -74 c 1
 500 -92 l 1
 465 -143 423 -169 375 -169 c 0
 323 -169 280 -126 280 -74 c 0
 280 -48 288 -26 306 0 c 1
 299 8 297 15 297 31 c 0
 297 55 300 68 320 146 c 1
 232 22 189 -11 119 -11 c 0
 55 -11 17 30 17 100 c 0
 17 258 171 441 303 441 c 0
 346 441 375 420 383 383 c 1
 394 431 l 1
 397 434 l 1
 458 441 l 1
 465 438 l 1
 463 429 462 427 459 417 c 0
 412 245 370 74 370 54 c 0
 370 47 376 41 384 41 c 0
 393 41 406 51 436 82 c 0
 443 90 449 95 464 110 c 1
309 419 m 0
 269 422 222 390 182 332 c 0
 139 270 101 167 101 113 c 0
 101 67 124 38 159 38 c 0
 188 38 222 55 246 82 c 0
 315 156 365 274 365 358 c 0
 365 393 343 417 309 419 c 0
EndSplineSet
MinimumDistance: x3,-1 
EndChar
StartChar: dcaron
Encoding: 271 271 204
Width: 500
Flags: W
HStem: -10.9977 47.9977<120 160> 418.138 22.8624<295.336 307 307.031 310.977>
VStem: 15 87<99 123> 532 108.995<595 619>
Fore
463 111 m 1
 475 101 l 1
 423 28 371 -13 329 -13 c 0
 304 -13 287 5 287 32 c 0
 287 55 289 70 300 121 c 1
 232 21 188 -11 120 -11 c 0
 55 -11 15 32 15 103 c 0
 15 253 177 441 307 441 c 0
 346 441 364 425 372 383 c 1
 416 547 l 2
 430 598 431 604 431 617 c 0
 431 638 424 641 369 643 c 1
 369 660 l 1
 433 666 469 672 522 683 c 1
 527 678 l 1
 476 478 455 398 428 306 c 0
 395 196 363 74 363 60 c 0
 363 49 371 40 381 40 c 0
 398 40 409 49 463 111 c 1
311 418 m 0
 283 420 246 401 218 372 c 0
 152 302 102 186 102 103 c 0
 102 64 126 37 160 37 c 0
 252 37 356 209 356 361 c 0
 356 397 341 416 311 418 c 0
511 436 m 1
 502 453 l 1
 554 488 577 515 577 542 c 0
 577 552 572 560 557 574 c 0
 538 591 532 602 532 619 c 0
 532 646 554 666 583 666 c 0
 616 666 641 635 641 595 c 0
 641 539 595 483 511 436 c 1
EndSplineSet
EndChar
StartChar: dcroat
Encoding: 273 273 206
Width: 500
Flags: W
HStem: -10.9977 47.9977<120 160> 418.138 22.8624<295.336 307 307.031 310.977> 544 35<257 414 502 550>
VStem: 15 87<99 123>
Fore
415 544 m 5
 249 544 l 5
 257 579 l 5
 425 579 l 5
 430 598 431 606 431 616 c 0
 431 638 424 641 369 643 c 1
 369 660 l 1
 433 666 469 672 522 683 c 1
 527 678 l 1
 501 579 l 5
 558 579 l 5
 550 544 l 5
 492 544 l 5
 457 407 455 398 428 306 c 0
 395 197 363 75 363 60 c 0
 363 49 371 40 381 40 c 0
 398 40 409 49 463 111 c 1
 475 101 l 1
 423 28 371 -13 329 -13 c 0
 304 -13 287 5 287 32 c 0
 287 55 289 70 300 121 c 1
 232 21 188 -11 120 -11 c 0
 55 -11 15 32 15 103 c 0
 15 253 177 441 307 441 c 0
 346 441 364 425 372 383 c 1
 415 544 l 5
311 418 m 0
 283 420 246 401 218 372 c 0
 152 302 102 186 102 103 c 0
 102 64 126 37 160 37 c 0
 252 37 356 209 356 361 c 0
 356 397 341 416 311 418 c 0
EndSplineSet
MinimumDistance: x27,-1 
EndChar
StartChar: Eogonek
Encoding: 280 280 213
Width: 611
Flags: W
HStem: -168.996 62.9962<526 551> 0 33<239 287> 325 38<303 322 322.031 332> 620 33<367 447>
VStem: 431.863 60.1374<-57 -56>
DStem: 203 532 319 594 80 90 253 361
Fore
568 162 m 1
 506 0 l 2
 497 -23 492 -44 492 -56 c 0
 492 -85 517 -106 551 -106 c 0
 582 -106 607 -96 634 -74 c 1
 651 -92 l 1
 616 -143 574 -169 526 -169 c 0
 473 -169 431 -126 431 -72 c 0
 431 -45 438 -27 459 0 c 1
 -1 0 l 1
 -1 16 l 1
 55 26 63 33 80 90 c 1
 203 532 l 2
 208 550 214 585 214 596 c 0
 214 623 199 631 137 637 c 1
 137 653 l 1
 634 653 l 1
 603 500 l 1
 582 502 l 1
 583 519 584 534 584 547 c 0
 584 607 549 620 392 620 c 0
 336 620 325 616 319 594 c 2
 253 361 l 1
 288 362 320 363 332 363 c 0
 423 367 432 373 470 458 c 1
 488 454 l 1
 420 222 l 1
 400 227 l 1
 405 249 407 262 407 279 c 128
 407 296 405 305 400 310 c 0
 389 320 361 326 322 325 c 0
 310 325 279 326 244 328 c 1
 234 290 225 257 212 213 c 0
 187 125 176 78 176 67 c 0
 176 43 200 33 256 33 c 0
 331 33 399 43 436 60 c 0
 479 80 505 106 552 170 c 1
 568 162 l 1
EndSplineSet
MinimumDistance: x2,-1 
EndChar
StartChar: eogonek
Encoding: 281 281 214
Width: 444
Flags: W
HStem: -168.35 63.2247<319 344> 417.951 22.1129<311 332>
VStem: 31 87<110 135> 224.003 60.9966<-75 -53> 346 66<372 381>
Fore
358 109 m 1
 370 97 l 1
 365 91 360 85 354 80 c 1
 301 21 285 -10 285 -53 c 0
 285 -85 309 -106 344 -106 c 0
 375 -106 400 -96 427 -74 c 1
 444 -92 l 1
 409 -143 367 -169 319 -169 c 0
 267 -169 224 -126 224 -75 c 0
 224 -42 235 -16 262 14 c 1
 226 -4 198 -11 164 -11 c 0
 85 -11 31 45 31 126 c 0
 31 276 188 441 332 441 c 0
 382 441 412 415 412 373 c 0
 412 287 306 211 156 190 c 2
 128 186 l 1
 120 154 118 139 118 124 c 0
 118 70 155 34 212 34 c 0
 255 34 286 50 358 109 c 1
152 252 m 2
 135 208 l 1
 221 229 259 247 296 282 c 0
 327 312 346 348 346 379 c 0
 346 402 332 418 311 418 c 0
 260 418 186 341 152 252 c 2
EndSplineSet
MinimumDistance: x13,-1 
EndChar
StartChar: Gcommaaccent
Encoding: 290 290 223
Width: 722
Flags: W
HStem: -18 37<339 372> 300 19<484 485> 632 34<452 471>
VStem: 52 110<224 248> 231 108.995<-111 -87> 456 266<303 318>
Fore
708 662 m 1
 659 465 l 1
 641 468 l 1
 636 512 629 533 613 559 c 0
 583 605 528 632 463 632 c 0
 397 632 335 605 290 558 c 0
 211 474 162 347 162 224 c 0
 162 93 235 19 364 19 c 0
 409 19 447 31 469 53 c 0
 481 65 484 73 506 145 c 0
 528 219 534 247 534 269 c 0
 534 287 518 297 485 300 c 0
 481 300 468 302 456 303 c 1
 456 319 l 1
 722 319 l 1
 722 303 l 1
 657 299 641 287 625 231 c 1
 576 44 l 1
 499 1 427 -18 339 -18 c 0
 252 -18 179 9 128 60 c 0
 81 108 52 178 52 246 c 0
 52 466 244 666 455 666 c 0
 496 666 539 658 589 642 c 0
 611 635 623 632 633 632 c 0
 659 632 676 642 693 666 c 1
 708 662 l 1
210 -270 m 1
 201 -253 l 1
 253 -218 276 -191 276 -164 c 0
 276 -154 271 -146 256 -132 c 0
 237 -115 231 -104 231 -87 c 0
 231 -60 253 -40 282 -40 c 0
 315 -40 340 -71 340 -111 c 0
 340 -167 294 -223 210 -270 c 1
EndSplineSet
EndChar
StartChar: gcommaaccent
Encoding: 291 291 224
Width: 500
Flags: W
HStem: -206 22<171 200> 151 21<232 246> 366 39<423 471> 419 22<283.463 299>
VStem: 8 55<-94 -78> 98.0105 73.9895<78 114 247 270> 269 108.993<523 547> 324.994 60.0059<-90 -60> 352 78.9961<310 348>
Fore
399 706 m 1
 408 689 l 1
 356 654 333 627 333 600 c 0
 333 590 338 582 353 568 c 0
 372 551 378 540 378 523 c 0
 378 496 356 476 327 476 c 0
 294 476 269 507 269 547 c 0
 269 603 315 659 399 706 c 1
472 405 m 1
 472 366 l 1
 422 366 l 1
 428 346 431 326 431 310 c 0
 431 232 337 151 246 151 c 0
 237 151 223 152 215 154 c 0
 212 155 210 155 208 155 c 0
 195 155 172 129 172 114 c 128
 172 99 198 83 242 72 c 0
 337 47 385 3 385 -60 c 0
 385 -147 301 -206 175 -206 c 0
 74 -206 8 -161 8 -92 c 0
 8 -46 26 -26 125 39 c 1
 106 53 98 65 98 78 c 0
 98 102 116 122 175 162 c 1
 118 188 96 218 96 270 c 0
 96 364 186 441 297 441 c 0
 335 441 368 431 395 413 c 0
 403 407 408 405 411 405 c 2
 472 405 l 1
148 28 m 0
 140 28 98 -5 85 -22 c 0
 69 -41 63 -58 63 -82 c 0
 63 -146 110 -184 190 -184 c 0
 267 -184 325 -144 325 -90 c 0
 325 -44 288 -16 182 17 c 0
 166 22 156 25 153 26 c 0
 151 27 149 28 148 28 c 0
296 419 m 0
 231 419 174 339 174 247 c 0
 174 200 196 172 234 172 c 0
 268 172 299 194 321 235 c 0
 340 269 352 313 352 348 c 0
 352 395 333 419 296 419 c 0
EndSplineSet
EndChar
StartChar: Hbar
Encoding: 294 294 227
Width: 722
Flags: W
HStem: 0 16<230.5 238 355 364.286 617.333 628> 326 42<248 520> 475 51<138 180 292 563 675 713> 637 16<130 140.333 388 403 520 528.286>
DStem: 180 475 278 475 73 90 248 368 180 475 236 326 73 90 170 82 521 326 661 475 456 90 553 82 563 475 661 475 533 368 553 82
Fore
139 526 m 1
 194 526 l 1
 196 532 l 2
 203 557 207 580 207 594 c 0
 207 623 192 631 130 637 c 1
 130 653 l 1
 403 653 l 1
 403 637 l 1
 343 633 317 614 302 563 c 1
 292 526 l 1
 577 526 l 1
 579 532 l 2
 586 557 590 580 590 594 c 0
 590 622 578 630 520 637 c 1
 520 653 l 1
 767 653 l 1
 767 637 l 1
 710 627 702 621 685 563 c 1
 675 526 l 1
 725 526 l 1
 713 475 l 1
 661 475 l 1
 553 82 l 2
 551 74 550 68 550 58 c 0
 550 30 564 22 628 16 c 1
 628 0 l 1
 355 0 l 1
 355 16 l 1
 420 23 440 38 456 90 c 1
 521 326 l 1
 236 326 l 1
 170 82 l 2
 168 75 167 67 167 60 c 0
 167 31 178 24 238 16 c 1
 238 0 l 1
 -8 0 l 1
 -8 16 l 1
 48 26 55 32 73 90 c 1
 180 475 l 1
 126 475 l 1
 139 526 l 1
563 475 m 1
 278 475 l 1
 248 368 l 1
 533 368 l 1
 563 475 l 1
EndSplineSet
MinimumDistance: x21,-1 
EndChar
StartChar: hbar
Encoding: 295 295 228
Width: 500
Flags: W
HStem: 0 21G<19 94> 544 35<116 155 246.482 410> 641 15<111 119.571>
VStem: 370 77.2862<363 367>
DStem: 162.336 544 237.107 544 19 0 153 230
Fore
246.482 579 m 1
 418 579 l 1
 410 544 l 1
 237.107 544 l 1
 153 230 l 1
 246 375 317 441 382 441 c 0
 421 441 448 414 448 374 c 0
 448 350 429 276 400 181 c 0
 383 129 367 66 367 56 c 0
 367 47 374 38 383 38 c 0
 399 38 411 49 465 117 c 1
 478 105 l 1
 418 18 383 -9 332 -9 c 0
 305 -9 288 7 288 33 c 0
 288 45 295 76 308 125 c 2
 363 332 l 2
 367 348 370 361 370 365 c 0
 370 378 357 390 342 390 c 0
 307 390 239 328 187 249 c 0
 147 188 134 154 94 0 c 1
 19 0 l 1
 162.336 544 l 1
 109 544 l 1
 117 579 l 1
 172.251 579 l 1
 175.999 594.887 178 608.144 178 617 c 0
 178 631 154 648 140 642 c 0
 139 641 138 641 137 641 c 2
 111 641 l 1
 111 656 l 1
 171 663 210 670 268 683 c 1
 273 678 l 1
 246.482 579 l 1
EndSplineSet
EndChar
StartChar: Iogonek
Encoding: 302 302 235
Width: 333
Flags: W
HStem: -168.996 62.9962<254 279> 633 20G<137 384>
VStem: -8 244<0 16> 137 247<637 652> 159.918 60.4659<-73 -49>
DStem: 196 532 302 563 73 90 179 120
Fore
137 653 m 1
 384 653 l 1
 384 637 l 1
 327 627 320 621 302 563 c 1
 179 120 l 2
 170 88 168 76 168 57 c 0
 168 29 179 23 236 16 c 1
 236 0 l 1
 225 -14 220 -29 220 -49 c 0
 220 -85 242 -106 279 -106 c 0
 310 -106 335 -96 362 -74 c 1
 379 -92 l 1
 344 -143 302 -169 254 -169 c 0
 202 -169 159 -126 159 -73 c 0
 159 -46 165 -31 186 0 c 1
 -8 0 l 1
 -8 16 l 1
 48 26 55 32 73 90 c 1
 196 532 l 2
 203 557 207 580 207 594 c 0
 207 622 195 630 137 637 c 1
 137 653 l 1
EndSplineSet
MinimumDistance: x3,-1 
EndChar
StartChar: iogonek
Encoding: 303 303 236
Width: 278
Flags: W
HStem: -168.373 63.1732<153 178> 548 106<209 223>
VStem: 49 75<47 55> 58.82 60.4881<-72 -50> 167 97<598 603>
DStem: 119 332 228 439 71 155 140 117
Fore
222 114 m 1
 235 103 l 1
 203 55 187 36 159 13 c 0
 124 -15 119 -23 119 -50 c 0
 119 -85 141 -106 178 -106 c 0
 209 -106 234 -96 261 -74 c 1
 278 -92 l 1
 243 -144 201 -169 153 -169 c 0
 100 -169 58 -126 58 -72 c 0
 58 -48 63 -32 80 -9 c 1
 58 -1 49 15 49 46 c 0
 49 66 55 97 71 155 c 2
 119 332 l 1
 125 352 128 368 128 376 c 0
 128 396 118 399 65 400 c 1
 65 416 l 1
 104 419 124 422 225 441 c 1
 228 439 l 1
 140 117 l 1
 139 115 l 1
 139 113 l 1
 137 105 134 98 134 95 c 0
 127 76 124 61 124 51 c 0
 124 44 132 36 140 36 c 0
 149 36 164 46 181 63 c 0
 191 74 198 82 222 114 c 1
214 654 m 0
 241 654 264 628 264 599 c 0
 264 571 241 548 215 548 c 0
 186 548 167 569 167 601 c 0
 167 631 187 654 214 654 c 0
EndSplineSet
MinimumDistance: x26,-1 
EndChar
StartChar: dotlessi
Encoding: 305 305 238
Width: 278
Flags: W
VStem: 49 75<47 53>
DStem: 119 332 228 439 71 155 140 117
Fore
222 114 m 1
 235 103 l 1
 178 19 141 -11 95 -11 c 0
 65 -11 49 9 49 46 c 0
 49 66 55 97 71 155 c 2
 119 332 l 1
 125 352 128 368 128 376 c 0
 128 396 118 399 65 400 c 1
 65 416 l 1
 104 419 124 422 225 441 c 1
 228 439 l 1
 140 117 l 1
 139 115 l 1
 139 113 l 1
 137 105 134 98 134 95 c 0
 127 76 124 61 124 51 c 0
 124 44 132 36 140 36 c 0
 149 36 164 46 181 63 c 0
 191 74 198 82 222 114 c 1
EndSplineSet
MinimumDistance: x10,-1 
EndChar
StartChar: ij
Encoding: 307 307 240
Width: 553
Flags: W
HStem: -207 23<191 204> 400 14<75 83.3333> 548 106<213 219 475 485>
VStem: 59 77<48 67> 114 81<-144 -138> 167 97<593 609> 429 97<593 609>
DStem: 360 250 484 439 297 -3 380 28
Fore
526 599 m 0
 526 572 504 548 477 548 c 0
 447 548 429 571 429 600 c 0
 429 628 446 654 476 654 c 0
 505 654 526 626 526 599 c 0
264 599 m 0
 264 572 242 548 215 548 c 0
 185 548 167 571 167 600 c 0
 167 628 184 654 214 654 c 0
 243 654 264 626 264 599 c 0
484 439 m 1
 380 28 l 2
 356 -66 311 -207 192 -207 c 0
 152 -207 114 -187 114 -143 c 0
 114 -122 135 -104 155 -104 c 128
 175 -104 195 -119 195 -140 c 0
 195 -159 182 -162 182 -173 c 128
 182 -184 195 -184 202 -184 c 0
 259 -184 287 -45 297 -3 c 1
 360 250 l 1
 313 173 217 -11 114 -11 c 0
 74 -11 59 9 59 48 c 0
 59 128 135 302 135 371 c 0
 135 405 100 400 75 400 c 1
 75 414 l 1
 125 420 176 429 225 441 c 1
 228 439 l 1
 218 399 136 86 136 67 c 0
 136 53 143 42 158 42 c 0
 224 42 386 310 386 378 c 0
 386 406 329 401 311 400 c 1
 311 416 l 1
 368 419 425 431 481 441 c 1
 484 439 l 1
EndSplineSet
MinimumDistance: x0,-1 
Ligature: 8 0 'liga' i j
EndChar
StartChar: jcircumflex
Encoding: 309 309 242
Width: 278
Flags: W
HStem: -207 23<-46 -36>
VStem: -124 81<-147 -139>
DStem: 131 289 246 439 59 -3 142 28
Fore
246 439 m 1
 142 28 l 2
 102 -131 42 -207 -45 -207 c 0
 -91 -207 -124 -181 -124 -146 c 0
 -124 -122 -107 -104 -84 -104 c 128
 -61 -104 -43 -120 -43 -141 c 0
 -43 -149 -45 -154 -51 -162 c 0
 -55 -167 -56 -169 -56 -173 c 0
 -56 -180 -50 -184 -38 -184 c 0
 2 -184 25 -140 59 -3 c 2
 131 289 l 1
 142 332 147 359 147 369 c 128
 147 379 144 388 140 392 c 0
 135 396 115 402 107 401 c 2
 100 400 l 1
 73 400 l 1
 73 416 l 1
 104 417 154 425 243 441 c 1
 246 439 l 1
269 714 m 1
 357 545 l 1
 321 545 l 1
 239 649 l 1
 102 545 l 1
 63 545 l 1
 220 714 l 1
 269 714 l 1
EndSplineSet
MinimumDistance: x0,-1 
EndChar
StartChar: Kcommaaccent
Encoding: 310 310 243
Width: 667
Flags: W
HStem: 0 19<359 372> 634 19<519 527>
VStem: 7 248<1 16> 146 273<637 652> 204 108.995<-111 -87> 343 275<1 16> 500 222<637 652>
DStem: 212 532 318 563 89 90 265 369 212 532 259 348 89 90 197 120 212 532 197 120 89 90 191 99 259 348 347 375 380 140 521 72
Fore
722 653 m 1
 722 637 l 1
 698 633 675 622 647 601 c 2
 347 375 l 1
 521 72 l 1
 549 25 555 22 618 16 c 1
 618 0 l 1
 343 0 l 1
 343 16 l 1
 356 18 367 19 372 19 c 0
 404 22 418 30 418 45 c 0
 418 64 404 99 380 140 c 2
 259 348 l 1
 197 120 l 1
 191 99 l 2
 185 79 183 70 183 60 c 0
 183 29 192 23 255 16 c 1
 255 0 l 1
 7 0 l 1
 7 16 l 1
 66 25 71 30 89 90 c 1
 212 532 l 2
 219 557 223 580 223 594 c 0
 223 623 208 631 146 637 c 1
 146 653 l 1
 419 653 l 1
 419 637 l 1
 360 633 333 613 318 563 c 1
 265 369 l 1
 417 475 l 2
 506 537 561 591 561 615 c 0
 561 626 551 632 527 634 c 0
 523 634 512 636 500 637 c 1
 500 653 l 1
 722 653 l 1
183 -270 m 1
 174 -253 l 1
 226 -218 249 -191 249 -164 c 0
 249 -154 244 -146 229 -132 c 0
 210 -115 204 -104 204 -87 c 0
 204 -60 226 -40 255 -40 c 0
 288 -40 313 -71 313 -111 c 0
 313 -167 267 -223 183 -270 c 1
EndSplineSet
EndChar
StartChar: kcommaaccent
Encoding: 311 311 244
Width: 444
Flags: W
HStem: -10.9947 51.9947<318 354> 0 21G<14 89> 412 16<279 302>
VStem: 92 108.995<-111 -87> 278 183<412 427>
DStem: 141 483 267 678 14 0 147 221 141 483 137 180 14 0 89 0
Fore
414 109 m 1
 429 98 l 1
 384 14 358 -11 318 -11 c 0
 289 -11 271 8 239 71 c 0
 221 107 195 168 179 212 c 1
 137 180 l 1
 89 0 l 1
 14 0 l 1
 141 483 l 1
 143 492 l 2
 145 500 148 511 152 525 c 0
 165 571 172 598 174 615 c 1
 173 634 154 641 106 640 c 1
 106 656 l 1
 165 663 203 670 262 683 c 1
 267 678 l 1
 147 221 l 1
 164 233 176 243 190 254 c 0
 283 325 333 374 333 394 c 0
 333 405 319 412 294 412 c 2
 278 412 l 1
 278 428 l 1
 461 428 l 1
 461 412 l 1
 414 409 383 389 236 258 c 1
 253 219 268 183 273 170 c 0
 312 74 333 41 354 41 c 0
 369 41 381 52 399 83 c 2
 414 109 l 1
71 -270 m 1
 62 -253 l 1
 114 -218 137 -191 137 -164 c 0
 137 -154 132 -146 117 -132 c 0
 98 -115 92 -104 92 -87 c 0
 92 -60 114 -40 143 -40 c 0
 176 -40 201 -71 201 -111 c 0
 201 -167 155 -223 71 -270 c 1
EndSplineSet
EndChar
StartChar: kgreenlandic
Encoding: 312 312 245
Width: 491
Flags: W
HStem: 0 21G<14 89 275 413> 224.156 27.8443<159 178.26> 372 88<446 462>
DStem: 110 350 211 439 14 0 159 252 110 350 151 224 14 0 89 0
Fore
159 252 m 1
 188 252 l 2
 229 252 299 318 318 352 c 1
 368 450 385 460 454 460 c 0
 490 460 506 435 502 406 c 0
 499 381 474 372 449 372 c 0
 418 372 412 394 386 394 c 0
 366 394 324 258 246 244 c 1
 317 221 317 130 350 56 c 1
 370 20 374 18 417 15 c 1
 413 0 l 1
 275 0 l 1
 205 200 l 1
 196 228 169 224 151 224 c 1
 89 0 l 1
 14 0 l 1
 110 350 l 1
 111 355 112 361 112 367 c 0
 112 387 99 393 48 394 c 1
 48 410 l 1
 135 426 154 430 208 441 c 1
 211 439 l 1
 159 252 l 1
EndSplineSet
MinimumDistance: x21,-1 
EndChar
StartChar: Lcommaaccent
Encoding: 315 315 248
Width: 556
Flags: W
HStem: 0 36<232 312> 633 20G<130 403>
VStem: 130 273<637 652> 148 108.995<-111 -87>
DStem: 196 532 302 563 73 90 179 120
Fore
403 653 m 1
 403 637 l 1
 343 633 317 614 302 563 c 1
 179 120 l 2
 174 101 169 77 169 70 c 0
 169 44 194 36 270 36 c 0
 357 36 398 42 433 59 c 0
 477 81 504 113 539 185 c 1
 559 179 l 1
 501 0 l 1
 -8 0 l 1
 -8 16 l 1
 48 26 55 32 73 90 c 1
 196 532 l 2
 203 557 207 580 207 594 c 0
 207 623 192 631 130 637 c 1
 130 653 l 1
 403 653 l 1
127 -270 m 1
 118 -253 l 1
 170 -218 193 -191 193 -164 c 0
 193 -154 188 -146 173 -132 c 0
 154 -115 148 -104 148 -87 c 0
 148 -60 170 -40 199 -40 c 0
 232 -40 257 -71 257 -111 c 0
 257 -167 211 -223 127 -270 c 1
EndSplineSet
MinimumDistance: x2,-1 
EndChar
StartChar: lcommaaccent
Encoding: 316 316 249
Width: 278
Flags: W
VStem: 9 108.995<-111 -87> 40 77<44 52>
DStem: 182 599 279 678 45 71 128 99
Fore
228 123 m 1
 241 114 l 1
 176 18 141 -11 89 -11 c 0
 57 -11 40 9 40 45 c 0
 40 50 42 60 45 71 c 2
 182 599 l 1
 185 608 186 614 186 617 c 0
 186 633 166 640 118 640 c 1
 118 656 l 1
 177 663 215 670 274 683 c 1
 279 678 l 1
 128 99 l 1
 127 97 126 92 125 89 c 0
 120 69 117 57 117 50 c 0
 117 39 122 32 132 32 c 0
 150 32 169 47 201 89 c 0
 210 101 219 112 228 123 c 1
-12 -270 m 1
 -21 -253 l 1
 31 -218 54 -191 54 -164 c 0
 54 -154 49 -146 34 -132 c 0
 15 -115 9 -104 9 -87 c 0
 9 -60 31 -40 60 -40 c 0
 93 -40 118 -71 118 -111 c 0
 118 -167 72 -223 -12 -270 c 1
EndSplineSet
EndChar
StartChar: Lcaron
Encoding: 317 317 250
Width: 556
Flags: W
HStem: 0 36<232 312> 633 20G<130 403>
VStem: 130 273<637 652> 487 108.995<594 618>
DStem: 196 532 302 563 73 90 179 120
Fore
403 653 m 1
 403 637 l 1
 343 633 317 614 302 563 c 1
 179 120 l 2
 174 101 169 77 169 70 c 0
 169 44 194 36 270 36 c 0
 357 36 398 42 433 59 c 0
 477 81 504 113 539 185 c 1
 559 179 l 1
 501 0 l 1
 -8 0 l 1
 -8 16 l 1
 48 26 55 32 73 90 c 1
 196 532 l 2
 203 557 207 580 207 594 c 0
 207 623 192 631 130 637 c 1
 130 653 l 1
 403 653 l 1
466 435 m 1
 457 452 l 1
 509 487 532 514 532 541 c 0
 532 551 527 559 512 573 c 0
 493 590 487 601 487 618 c 0
 487 645 509 665 538 665 c 0
 571 665 596 634 596 594 c 0
 596 538 550 482 466 435 c 1
EndSplineSet
EndChar
StartChar: lcaron
Encoding: 318 318 251
Width: 278
Flags: W
VStem: 40 77<44 53> 286 108.995<595 619>
DStem: 182 599 279 678 45 71 128 99
Fore
228 123 m 1
 241 114 l 1
 176 18 141 -11 89 -11 c 0
 57 -11 40 9 40 45 c 0
 40 50 42 60 45 71 c 2
 182 599 l 1
 185 608 186 614 186 617 c 0
 186 633 166 640 118 640 c 1
 118 656 l 1
 177 663 215 670 274 683 c 1
 279 678 l 1
 128 99 l 1
 127 97 126 92 125 89 c 0
 120 69 117 57 117 50 c 0
 117 39 122 32 132 32 c 0
 150 32 169 47 201 89 c 0
 210 101 219 112 228 123 c 1
265 436 m 1
 256 453 l 1
 308 488 331 515 331 542 c 0
 331 552 326 560 311 574 c 0
 292 591 286 602 286 619 c 0
 286 646 308 666 337 666 c 0
 370 666 395 635 395 595 c 0
 395 539 349 483 265 436 c 1
EndSplineSet
EndChar
StartChar: Lslash
Encoding: 321 321 254
Width: 556
Flags: W
HStem: 0 36<239 312> 633 20G<130 403>
VStem: 130 273<637 652>
DStem: 140 332 127 284 41 273 28 225 196 532 302 563 140 332 253 388 396 473 382 424 253 388 240 341
Fore
539 185 m 1
 559 179 l 1
 501 0 l 1
 -8 0 l 1
 -8 16 l 1
 48 26 55 32 73 90 c 1
 127 284 l 1
 28 225 l 1
 41 273 l 1
 140 332 l 1
 196 532 l 2
 203 557 207 580 207 594 c 0
 207 623 192 631 130 637 c 1
 130 653 l 1
 403 653 l 1
 403 637 l 1
 343 633 317 614 302 563 c 1
 253 388 l 1
 396 473 l 1
 382 424 l 1
 240 341 l 1
 206 218 l 1
 179 125 168 80 168 70 c 0
 168 44 194 36 273 36 c 0
 357 36 398 42 433 59 c 0
 477 81 504 113 539 185 c 1
EndSplineSet
MinimumDistance: x14,-1 
EndChar
StartChar: lslash
Encoding: 322 322 255
Width: 278
Flags: W
VStem: 41 77<44 53>
DStem: 49 324 197 364 37 278 128 99 307 460 295 414 209 410 197 364
Fore
209 410 m 1
 307 460 l 1
 295 414 l 1
 197 364 l 1
 128 99 l 1
 128 97 l 1
 127 96 126 93 126 89 c 0
 121 70 118 57 118 50 c 0
 118 38 123 32 133 32 c 0
 151 32 169 47 202 89 c 0
 211 101 219 112 228 123 c 1
 241 114 l 1
 176 18 142 -11 90 -11 c 0
 58 -11 41 8 41 45 c 0
 41 66 59 141 88 238 c 0
 91 248 100 280 109 314 c 1
 37 278 l 1
 49 324 l 1
 121 360 l 1
 165 525 186 608 186 616 c 0
 186 633 167 640 118 640 c 1
 118 656 l 1
 177 663 215 670 274 683 c 1
 279 678 l 1
 209 410 l 1
EndSplineSet
EndChar
StartChar: Ncommaaccent
Encoding: 325 325 258
Width: 667
Flags: W
HStem: 0 21G<-20 178> 633 20G<116 277 528 727>
VStem: -20 198<1 16> 204 108.995<-111 -87> 528 199<637 652>
DStem: 231 535 277 653 461 -15 485 154
Fore
727 653 m 1
 727 637 l 1
 664 623 660 617 623 488 c 2
 479 -15 l 1
 461 -15 l 1
 231 535 l 1
 117 113 l 1
 111 92 108 72 108 59 c 0
 108 31 127 20 178 16 c 1
 178 0 l 1
 -20 0 l 1
 -20 16 l 1
 37 24 45 36 83 164 c 1
 202 581 l 1
 184 620 163 633 116 637 c 1
 116 653 l 1
 277 653 l 1
 485 154 l 1
 587 534 l 1
 587 535 588 539 589 542 c 0
 596 562 598 574 598 586 c 0
 598 622 585 632 528 637 c 1
 528 653 l 1
 727 653 l 1
183 -270 m 1
 174 -253 l 1
 226 -218 249 -191 249 -164 c 0
 249 -154 244 -146 229 -132 c 0
 210 -115 204 -104 204 -87 c 0
 204 -60 226 -40 255 -40 c 0
 288 -40 313 -71 313 -111 c 0
 313 -167 267 -223 183 -270 c 1
EndSplineSet
EndChar
StartChar: ncommaaccent
Encoding: 326 326 259
Width: 500
Flags: W
HStem: 0 21G<14 89>
VStem: 120 108.995<-111 -87> 287.237 74.7632<50 55> 360.753 80.3089<361 380>
DStem: 347 285 433 323 303 120 376 117
Fore
460 117 m 1
 474 104 l 1
 405 12 379 -9 334 -9 c 0
 301 -9 287 7 287 45 c 0
 287 55 290 69 303 120 c 1
 347 285 l 2
 355 316 361 349 361 361 c 0
 361 379 352 390 337 390 c 0
 300 390 249 340 189 248 c 0
 145 180 136 158 89 0 c 1
 14 0 l 1
 110 350 l 1
 111 355 112 361 112 367 c 0
 112 387 99 393 48 394 c 1
 48 410 l 1
 135 426 156 430 210 441 c 1
 213 439 l 1
 146 221 l 1
 249 381 312 441 376 441 c 0
 415 441 442 416 442 380 c 0
 442 366 438 344 433 323 c 1
 376 117 l 1
 362 61 362 61 362 54 c 0
 362 46 370 38 378 38 c 0
 392 38 410 54 439 91 c 2
 460 117 l 1
99 -270 m 1
 90 -253 l 1
 142 -218 165 -191 165 -164 c 0
 165 -154 160 -146 145 -132 c 0
 126 -115 120 -104 120 -87 c 0
 120 -60 142 -40 171 -40 c 0
 204 -40 229 -71 229 -111 c 0
 229 -167 183 -223 99 -270 c 1
EndSplineSet
EndChar
StartChar: OE
Encoding: 338 338 271
Width: 944
Flags: W
HStem: -7.87016 31.8702<289 317> 0 33<577 641> 620 33<689.854 829> 634 32<433 465>
VStem: 49 108<202 232>
DStem: 531 467 664 588 458 199 600 361 531 467 591 328 458 199 539 138
Fore
964 653 m 1
 933 503 l 1
 917 503 l 1
 917 542 916 556 911 572 c 0
 902 607 872 620 797 620 c 2
 701 620 l 2
 680 620 671 612 664 588 c 2
 600 361 l 1
 612 361 l 2
 759 361 769 366 810 456 c 1
 828 452 l 1
 762 222 l 1
 742 224 l 1
 745 246 746 249 748 266 c 1
 747 313 732 322 653 325 c 2
 591 328 l 1
 539 138 l 1
 539 137 538 134 537 131 c 2
 535 124 l 2
 527 92 524 77 524 69 c 0
 524 42 542 33 599 33 c 0
 744 33 803 62 883 172 c 1
 899 166 l 1
 834 0 l 1
 488 0 l 2
 450 0 450 0 357 -5 c 0
 323 -7 295 -8 276 -8 c 0
 146 -8 49 92 49 225 c 0
 49 457 236 666 443 666 c 0
 464 666 510 662 541 658 c 0
 564 655 582 653 595 653 c 2
 964 653 l 1
458 199 m 2
 531 467 l 2
 551 540 551 540 551 555 c 0
 551 601 508 634 448 634 c 0
 401 634 356 617 316 583 c 0
 224 507 157 346 157 202 c 0
 157 84 206 24 301 24 c 0
 343 24 380 38 400 63 c 0
 424 92 437 123 458 199 c 2
EndSplineSet
MinimumDistance: x6,-1 
EndChar
StartChar: oe
Encoding: 339 339 272
Width: 667
Flags: W
HStem: -11.9973 41.9973<407 448> -11 20<164 180> 418 23<283 295 545 548>
VStem: 20 83.0016<100 135> 580 66<372 385>
Fore
593 105 m 1
 604 94 l 1
 530 20 470 -12 407 -12 c 0
 362 -12 327 11 303 56 c 1
 252 6 216 -11 165 -11 c 0
 81 -11 20 51 20 135 c 0
 20 279 165 441 294 441 c 0
 347 441 389 411 406 361 c 1
 474 423 511 441 565 441 c 0
 616 441 646 415 646 373 c 0
 646 335 620 295 576 264 c 0
 536 236 462 207 419 203 c 0
 395 201 387 197 383 185 c 0
 378 169 373 135 373 114 c 0
 373 65 404 30 448 30 c 0
 486 30 515 45 593 105 c 1
284 418 m 0
 258 418 233 406 211 383 c 0
 148 314 103 198 103 100 c 0
 103 44 129 9 170 9 c 0
 203 9 230 27 257 66 c 0
 278 96 292 130 310 189 c 0
 331 260 343 318 343 352 c 0
 343 392 320 418 284 418 c 0
392 215 m 1
 474 241 485 245 511 264 c 0
 554 296 580 339 580 377 c 0
 580 401 567 416 546 416 c 128
 525 416 499 402 476 377 c 0
 437 335 418 299 392 215 c 1
EndSplineSet
MinimumDistance: x9,-1 
EndChar
StartChar: Rcommaaccent
Encoding: 342 342 275
Width: 611
Flags: W
HStem: 0 21G<-13 231 419 567> 623 30<340.894 381>
VStem: -13 244<1 16> 176 108.995<-111 -87> 483 105<498 514>
DStem: 191 532 308 595 68 90 243 366 191 532 231 329 68 90 175 120 296 324 391 333 419 0 484 88
Fore
567 16 m 1
 567 0 l 1
 419 0 l 1
 296 324 l 1
 231 329 l 1
 175 120 l 1
 166 85 163 72 163 62 c 0
 163 29 170 24 231 16 c 1
 231 0 l 1
 -13 0 l 1
 -13 16 l 1
 43 25 50 31 68 90 c 1
 191 532 l 1
 198 559 203 583 203 595 c 0
 203 606 197 618 189 623 c 0
 179 630 174 631 132 637 c 1
 132 653 l 1
 380 653 l 2
 514 653 588 602 588 509 c 0
 588 464 570 425 537 396 c 0
 501 364 468 350 391 333 c 1
 484 88 l 1
 503 36 523 19 567 16 c 1
308 595 m 2
 243 366 l 1
 267 362 278 361 294 361 c 0
 419 361 483 412 483 511 c 0
 483 585 442 623 359 623 c 0
 327 623 314 616 308 595 c 2
155 -270 m 1
 146 -253 l 1
 198 -218 221 -191 221 -164 c 0
 221 -154 216 -146 201 -132 c 0
 182 -115 176 -104 176 -87 c 0
 176 -60 198 -40 227 -40 c 0
 260 -40 285 -71 285 -111 c 0
 285 -167 239 -223 155 -270 c 1
EndSplineSet
MinimumDistance: x18,-1 
EndChar
StartChar: rcommaaccent
Encoding: 343 343 276
Width: 389
Flags: W
HStem: 0 21G<45 121> 340 101<355 371>
VStem: 65 108.995<-111 -87>
Fore
121 0 m 1
 45 0 l 1
 126 292 l 1
 142 360 142 360 142 374 c 0
 142 392 129 402 107 402 c 0
 100 402 97 402 73 397 c 1
 73 414 l 1
 146 426 155 428 228 441 c 1
 231 439 l 1
 178 222 l 1
 192 258 l 2
 208 298 248 357 289 399 c 0
 315 426 342 441 365 441 c 0
 393 441 412 420 412 389 c 128
 412 358 395 340 366 340 c 0
 346 340 338 345 330 362 c 0
 325 372 320 376 314 376 c 0
 297 376 269 345 236 289 c 0
 190 213 173 170 121 0 c 1
44 -270 m 1
 35 -253 l 1
 87 -218 110 -191 110 -164 c 0
 110 -154 105 -146 90 -132 c 0
 71 -115 65 -104 65 -87 c 0
 65 -60 87 -40 116 -40 c 0
 149 -40 174 -71 174 -111 c 0
 174 -167 128 -223 44 -270 c 1
EndSplineSet
EndChar
StartChar: Scedilla
Encoding: 350 350 283
Width: 500
Flags: W
HStem: -217 35<127 149> -18 35<214 231> 633 33<311 331>
VStem: 131.003 87.9974<499 531> 192 74<-142 -132> 343.195 87.2961<150 182>
Fore
193 -15 m 1
 159 -66 l 1
 169 -64 175 -63 184 -63 c 0
 234 -63 266 -90 266 -131 c 0
 266 -181 216 -217 147 -217 c 0
 118 -217 96 -212 54 -196 c 1
 71 -167 l 1
 100 -178 118 -182 139 -182 c 0
 173 -182 192 -167 192 -141 c 128
 192 -115 172 -97 146 -97 c 0
 135 -97 127 -99 114 -104 c 1
 105 -96 l 1
 160 -7 l 1
 148 -3 141 -1 125 5 c 0
 99 14 84 18 73 18 c 0
 53 18 42 8 35 -15 c 1
 17 -15 l 1
 51 208 l 1
 71 206 l 1
 70 199 69 191 69 183 c 0
 69 88 132 17 215 17 c 0
 288 17 344 75 344 150 c 0
 344 193 331 219 284 268 c 0
 277 276 263 291 245 310 c 0
 228 329 215 343 206 352 c 0
 146 416 131 445 131 499 c 0
 131 597 205 666 309 666 c 0
 340 666 372 661 394 652 c 0
 417 644 428 641 440 641 c 0
 462 641 471 646 485 667 c 1
 508 667 l 1
 468 468 l 1
 450 471 l 1
 448 537 440 571 418 596 c 0
 397 620 366 633 329 633 c 0
 261 633 219 594 219 531 c 0
 219 482 228 468 318 377 c 128
 408 286 431 247 431 182 c 0
 431 68 344 -18 229 -18 c 0
 218 -18 210 -17 193 -15 c 1
EndSplineSet
EndChar
StartChar: scedilla
Encoding: 351 351 284
Width: 389
Flags: W
HStem: -217 35<78 94> -10 20<142 161> 7.2343 138.766<50 52> 418 23<227 240>
VStem: 109.004 72.9964<331 364> 136 74<-142 -131> 227.993 76.0067<87 119>
Fore
141 -10 m 1
 103 -66 l 1
 113 -64 120 -63 128 -63 c 0
 178 -63 210 -90 210 -131 c 0
 210 -181 160 -217 91 -217 c 0
 63 -217 40 -212 -2 -196 c 1
 15 -167 l 1
 45 -178 62 -182 83 -182 c 0
 117 -182 136 -167 136 -141 c 128
 136 -115 117 -97 90 -97 c 0
 80 -97 72 -99 58 -104 c 1
 49 -96 l 1
 108 -2 l 1
 78 6 69 8 56 8 c 0
 46 8 40 3 32 -13 c 1
 16 -13 l 1
 36 146 l 1
 52 146 l 1
 68 51 99 10 154 10 c 0
 198 10 228 42 228 87 c 0
 228 116 211 151 172 202 c 0
 130 256 109 299 109 331 c 0
 109 398 157 441 230 441 c 0
 246 441 261 439 286 431 c 0
 305 426 315 424 322 424 c 0
 336 424 344 428 352 442 c 1
 366 442 l 1
 346 303 l 1
 330 303 l 1
 320 381 290 418 238 418 c 0
 203 418 182 397 182 364 c 0
 182 337 198 306 236 259 c 0
 283 201 304 157 304 119 c 0
 304 43 244 -11 159 -11 c 0
 154 -11 149 -11 141 -10 c 1
EndSplineSet
MinimumDistance: x32,-1 
EndChar
StartChar: uni0162
Encoding: 354 354 287
Width: 556
Flags: W
HStem: -217 35<155 173> 0 19<317 330.536> 618 35<251 314 416 491>
VStem: 65 290<0 16> 216 74<-142 -131>
DStem: 315 618 416 618 171 90 277 120
Fore
189 0 m 1
 129 -96 l 1
 138 -104 l 1
 152 -99 160 -97 170 -97 c 0
 197 -97 216 -115 216 -141 c 128
 216 -167 197 -182 163 -182 c 0
 142 -182 125 -178 95 -167 c 1
 78 -196 l 1
 120 -212 143 -217 171 -217 c 0
 240 -217 290 -181 290 -131 c 0
 290 -90 258 -63 208 -63 c 0
 200 -63 193 -64 183 -66 c 1
 227 0 l 1
 355 0 l 1
 355 16 l 1
 338 17 323 19 317 19 c 0
 277 22 265 31 265 61 c 0
 265 74 268 86 277 120 c 1
 416 618 l 1
 471 618 l 2
 543 618 575 593 575 537 c 0
 575 524 574 509 572 492 c 1
 589 490 l 1
 633 653 l 1
 101 653 l 1
 59 499 l 1
 77 495 l 1
 130 603 162 620 315 618 c 1
 171 90 l 1
 155 37 131 21 65 16 c 1
 65 0 l 1
 189 0 l 1
EndSplineSet
MinimumDistance: x18,-1 
EndChar
StartChar: uni0163
Encoding: 355 355 288
Width: 278
Flags: W
HStem: -228 35<36 55> 396 32<217 291>
VStem: 94 74<-153 -142>
DStem: 69 -9 105 -10 7 -107 61 -77 132 396 207 396 60 121 119 63
Fore
105 -10 m 1
 141 -1 174 32 227 110 c 1
 214 117 l 1
 165 54 149 38 133 38 c 0
 124 38 118 46 118 58 c 0
 118 59 118 60 119 63 c 2
 207 396 l 1
 291 396 l 1
 296 428 l 1
 216 428 l 1
 244 531 l 1
 245 533 245 535 245 536 c 0
 245 543 242 546 237 546 c 0
 231 546 228 545 222 537 c 0
 183 486 121 436 89 427 c 0
 64 419 57 413 57 402 c 0
 57 401 57 399 58 396 c 1
 132 396 l 1
 60 121 l 1
 58 112 57 109 54 100 c 0
 45 70 37 35 37 27 c 0
 37 10 50 -4 69 -9 c 1
 7 -107 l 1
 16 -115 l 1
 30 -110 38 -108 48 -108 c 0
 75 -108 94 -126 94 -152 c 128
 94 -178 75 -193 41 -193 c 0
 20 -193 3 -189 -27 -178 c 1
 -44 -207 l 1
 -2 -223 21 -228 49 -228 c 0
 118 -228 168 -192 168 -142 c 0
 168 -101 136 -74 86 -74 c 0
 78 -74 71 -75 61 -77 c 1
 105 -10 l 1
EndSplineSet
MinimumDistance: x6,-1 
EndChar
StartChar: tcaron
Encoding: 357 357 290
Width: 278
Flags: W
HStem: 396 32<217 291>
VStem: 269 108.995<595 619>
DStem: 132 396 207 396 60 121 119 63
Fore
296 428 m 1
 291 396 l 1
 207 396 l 1
 119 63 l 2
 118 60 118 59 118 58 c 0
 118 46 124 38 133 38 c 0
 149 38 165 54 214 117 c 1
 227 110 l 1
 164 17 131 -11 85 -11 c 0
 58 -11 37 5 37 27 c 0
 37 35 45 70 54 100 c 0
 57 109 58 112 60 121 c 1
 132 396 l 1
 58 396 l 1
 57 399 57 401 57 402 c 0
 57 413 64 419 89 427 c 0
 121 436 183 486 222 537 c 0
 228 545 231 546 237 546 c 0
 242 546 245 543 245 536 c 0
 245 535 245 533 244 531 c 1
 216 428 l 1
 296 428 l 1
248 436 m 1
 239 453 l 1
 291 488 314 515 314 542 c 0
 314 552 309 560 294 574 c 0
 275 591 269 602 269 619 c 0
 269 646 291 666 320 666 c 0
 353 666 378 635 378 595 c 0
 378 539 332 483 248 436 c 1
EndSplineSet
EndChar
StartChar: Tbar
Encoding: 358 358 291
Width: 556
Flags: W
HStem: 0 19<317 330.536> 311 51<142 230 346 432> 618 35<247 314 416 491>
VStem: 65 290<1 16>
DStem: 231 311 330 311 171 90 277 120 315 618 416 618 245 362 345 362
Fore
101 653 m 1
 633 653 l 1
 589 490 l 1
 572 492 l 1
 574 509 575 524 575 537 c 0
 575 593 543 618 471 618 c 2
 416 618 l 1
 345 362 l 1
 443 362 l 1
 432 311 l 1
 330 311 l 1
 277 120 l 1
 268 86 265 74 265 61 c 0
 265 31 277 22 317 19 c 0
 323 19 338 17 355 16 c 1
 355 0 l 1
 65 0 l 1
 65 16 l 1
 131 21 155 37 171 90 c 1
 231 311 l 1
 131 311 l 1
 142 362 l 1
 245 362 l 1
 315 618 l 1
 162 620 130 603 77 495 c 1
 59 499 l 1
 101 653 l 1
EndSplineSet
MinimumDistance: x6,-1 
EndChar
StartChar: tbar
Encoding: 359 359 292
Width: 278
Flags: W
HStem: 239 51<25 90 180 258> 396 32<217 291>
DStem: 91 239 166 239 60 121 119 63 132 396 207 396 104 290 179 290
Fore
216 428 m 1
 296 428 l 1
 291 396 l 1
 207 396 l 1
 179 290 l 1
 270 290 l 1
 258 239 l 1
 166 239 l 1
 119 63 l 2
 118 60 118 59 118 58 c 0
 118 46 124 38 133 38 c 0
 149 38 165 54 214 117 c 1
 227 110 l 1
 164 17 131 -11 85 -11 c 0
 58 -11 37 5 37 27 c 0
 37 35 45 70 54 100 c 0
 57 109 58 112 60 121 c 1
 91 239 l 1
 13 239 l 1
 25 290 l 1
 104 290 l 1
 132 396 l 1
 58 396 l 1
 57 399 57 401 57 402 c 0
 57 413 64 419 89 427 c 0
 121 436 183 486 222 537 c 0
 228 545 231 546 237 546 c 0
 242 546 245 543 245 536 c 0
 245 535 245 533 244 531 c 1
 216 428 l 1
EndSplineSet
MinimumDistance: x3,-1 
EndChar
StartChar: Uogonek
Encoding: 370 370 303
Width: 722
Flags: W
HStem: -168.245 62.9426<503 528> -18 41<318 342> 633 20G<127 400 566 765>
VStem: 102 90<135 151> 127 273<637 652> 408.003 60.9965<-75 -52> 566 199<637 652>
Fore
566 653 m 1
 765 653 l 1
 765 637 l 1
 703 623 699 618 661 488 c 2
 578 203 l 1
 563 153 549 121 518 69 c 0
 478 2 469 -21 469 -52 c 0
 469 -85 492 -106 528 -106 c 0
 559 -106 584 -96 611 -74 c 1
 628 -92 l 1
 593 -143 551 -169 503 -169 c 0
 451 -169 408 -126 408 -75 c 0
 408 -44 418 -19 443 10 c 1
 404 -10 366 -18 319 -18 c 0
 194 -18 102 51 102 147 c 0
 102 187 115 251 145 359 c 2
 198 551 l 1
 202 568 205 584 205 596 c 0
 205 625 194 631 127 637 c 1
 127 653 l 1
 400 653 l 1
 400 637 l 1
 332 630 316 616 295 546 c 0
 294 541 292 534 290 527 c 0
 223 296 192 175 192 141 c 0
 192 71 249 23 332 23 c 0
 402 23 456 54 495 116 c 0
 517 150 532 190 550 255 c 0
 555 274 559 291 563 304 c 0
 611 473 637 575 637 591 c 0
 637 604 630 618 620 624 c 0
 608 632 598 634 566 637 c 1
 566 653 l 1
EndSplineSet
EndChar
StartChar: uogonek
Encoding: 371 371 304
Width: 500
Flags: W
HStem: -168.467 63.4557<375 400>
VStem: 42.007 76.993<44 67> 280.004 60.996<-74 -51> 289.011 77.9887<39 55>
DStem: 104 309 211 439 67 167 120 76
Fore
461 117 m 1
 475 108 l 1
 425 37 407 16 380 1 c 0
 347 -17 341 -26 341 -51 c 0
 341 -85 364 -106 400 -106 c 0
 431 -106 456 -96 483 -74 c 1
 500 -92 l 1
 465 -144 423 -169 375 -169 c 0
 323 -169 280 -126 280 -74 c 0
 280 -48 288 -26 306 -1 c 1
 295 8 289 22 289 39 c 0
 289 60 305 129 334 236 c 1
 219 43 166 -11 95 -11 c 0
 60 -11 42 8 42 44 c 0
 42 62 49 96 67 167 c 1
 104 309 l 2
 113 343 118 368 118 376 c 0
 118 383 113 392 107 394 c 0
 98 399 96 400 58 400 c 1
 58 414 l 1
 115 421 151 428 208 441 c 1
 211 439 l 1
 120 76 l 2
 119 73 119 71 119 67 c 0
 119 52 128 42 140 42 c 0
 172 42 221 93 281 188 c 0
 327 261 334 277 391 432 c 1
 465 432 l 1
 386 133 l 2
 367 61 367 61 367 55 c 0
 367 44 371 38 378 38 c 0
 394 38 409 52 461 117 c 1
EndSplineSet
MinimumDistance: x29,-1 
EndChar
StartChar: longs
Encoding: 383 383 316
Width: 278
Flags: W
HStem: -207 21<-67 -58> 396 32<42 124> 656 22<332 340>
VStem: -147 76<-147 -141> 345 79<608 615>
DStem: 42 428 211 428 35 396 132 76
Fore
35 396 m 1
 42 428 l 1
 134 428 l 1
 164 524 184 570 214 609 c 0
 250 656 289 678 338 678 c 128
 387 678 424 650 424 613 c 0
 424 591 405 573 382 573 c 0
 360 573 345 589 345 613 c 0
 345 620 347 625 351 634 c 0
 354 639 355 641 355 644 c 0
 355 651 346 656 333 656 c 0
 277 656 240 585 211 428 c 1
 132 76 l 2
 91 -108 21 -207 -68 -207 c 0
 -112 -207 -147 -180 -147 -146 c 0
 -147 -123 -131 -105 -110 -105 c 128
 -89 -105 -71 -122 -71 -143 c 0
 -71 -149 -72 -153 -76 -159 c 0
 -79 -164 -80 -167 -80 -170 c 0
 -80 -179 -72 -186 -60 -186 c 0
 -18 -186 15 -131 37 -24 c 1
 125 396 l 1
 35 396 l 1
EndSplineSet
EndChar
StartChar: uni01C2
Encoding: 450 450 317
Width: 600
Flags: W
HStem: 130 50<29 243 308 522> 326 50<78 292 357 571>
DStem: 29 180 294 130 16 130 235 -108 244 130 294 130 185 -108 235 -108 293 326 343 326 257 180 307 180 365 614 415 614 306 376 356 376
Fore
584 376 m 1
 571 326 l 1
 343 326 l 1
 307 180 l 1
 535 180 l 1
 522 130 l 1
 294 130 l 1
 235 -108 l 1
 185 -108 l 1
 244 130 l 1
 16 130 l 1
 29 180 l 1
 257 180 l 1
 293 326 l 1
 65 326 l 1
 78 376 l 1
 306 376 l 1
 365 614 l 1
 415 614 l 1
 356 376 l 1
 584 376 l 1
EndSplineSet
MinimumDistance: x18,-1 
EndChar
StartChar: uni01DD
Encoding: 477 477 334
Width: 444
Flags: W
HStem: -10.4665 22.4665<126 131> 395.996 45.0038<230 274>
VStem: 30 66<51 59> 324 87<293 320>
Fore
411 300 m 0
 411 159 255 -11 112 -11 c 0
 68 -11 30 8 30 57 c 0
 30 184 218 231 314 244 c 1
 319 264 324 284 324 305 c 0
 324 362 285 396 230 396 c 0
 173 396 126 356 84 321 c 1
 72 333 l 1
 111 387 208 441 274 441 c 0
 361 441 411 384 411 300 c 0
307 222 m 1
 229 206 96 151 96 52 c 0
 96 30 107 12 131 12 c 0
 219 12 282 155 307 222 c 1
EndSplineSet
MinimumDistance: x0,-1 
EndChar
StartChar: uni01E4
Encoding: 484 484 339
Width: 722
Flags: W
HStem: -18 37<340 372> 147 44<428 507 616 693> 147 172<603 615> 632 34<452 468>
VStem: 52 110<220 242> 456 266<303 318>
Fore
722 303 m 1
 636 298 633 269 615 191 c 1
 706 191 l 1
 693 147 l 1
 603 147 l 1
 576 44 l 1
 512 4 421 -18 345 -18 c 0
 192 -18 52 76 52 240 c 0
 52 458 233 666 457 666 c 0
 525 666 591 632 630 632 c 0
 657 632 679 643 693 666 c 1
 708 662 l 1
 659 465 l 1
 641 468 l 1
 634 573 563 632 461 632 c 0
 263 632 162 390 162 221 c 0
 162 94 235 19 364 19 c 0
 464 19 484 59 508 147 c 1
 415 147 l 1
 428 191 l 1
 519 191 l 1
 524 213 534 243 534 266 c 0
 534 302 481 301 456 303 c 1
 456 319 l 1
 722 319 l 1
 722 303 l 1
EndSplineSet
EndChar
StartChar: uni01E5
Encoding: 485 485 340
Width: 500
Flags: W
HStem: -206 22<169 198> -105 41<-19 9 65 320 385 408> 151 21<236 248> 366 39<423 471> 419 22<281.792 297>
VStem: 98.0149 73.9851<79 115 250 271> 351.138 120.862<366 367> 352 78.9975<307 351>
Fore
472 366 m 1
 422 366 l 1
 428 347 431 327 431 307 c 0
 431 224 325 151 248 151 c 0
 235 151 221 155 208 155 c 0
 194 155 172 128 172 115 c 0
 172 62 384 76 385 -64 c 1
 415 -64 l 1
 408 -105 l 1
 377 -105 l 1
 347 -186 246 -206 170 -206 c 0
 106 -206 18 -181 9 -105 c 1
 -26 -105 l 1
 -19 -64 l 1
 12 -64 l 1
 27 -20 88 15 125 39 c 1
 112 49 98 61 98 79 c 0
 98 113 150 145 175 162 c 1
 125 184 96 213 96 271 c 0
 96 373 199 441 294 441 c 0
 352 441 406 405 411 405 c 2
 472 405 l 1
 472 366 l 1
352 351 m 0
 352 389 337 419 295 419 c 0
 217 419 174 316 174 250 c 0
 174 209 189 172 236 172 c 0
 313 172 352 289 352 351 c 0
321 -64 m 1
 306 -27 179 28 147 28 c 0
 122 28 68 -38 64 -64 c 1
 321 -64 l 1
323 -105 m 1
 64 -105 l 1
 74 -162 134 -184 186 -184 c 128
 238 -184 310 -165 323 -105 c 1
EndSplineSet
EndChar
StartChar: Scommaaccent
Encoding: 536 536 381
Width: 500
Flags: W
HStem: -18 35<209 231> 633 33<311 331>
VStem: 120 108.995<-111 -87> 131.59 87.9759<499 531> 343.619 86.4588<150 182>
Fore
468 468 m 1
 450 471 l 1
 448 537 440 571 418 596 c 0
 397 620 366 633 329 633 c 0
 261 633 219 594 219 531 c 0
 219 482 228 468 318 377 c 128
 408 286 431 247 431 182 c 0
 431 69 344 -18 229 -18 c 0
 198 -18 171 -12 125 5 c 0
 99 14 84 18 73 18 c 0
 53 18 42 8 35 -15 c 1
 17 -15 l 1
 51 208 l 1
 71 206 l 1
 70 199 69 191 69 183 c 0
 69 88 132 17 215 17 c 0
 288 17 344 75 344 150 c 0
 344 193 331 219 284 268 c 0
 277 276 263 291 245 310 c 0
 228 329 215 343 206 352 c 0
 146 416 131 445 131 499 c 0
 131 597 205 666 309 666 c 0
 340 666 372 661 394 652 c 0
 417 644 428 641 440 641 c 0
 462 641 471 646 485 667 c 1
 508 667 l 1
 468 468 l 1
99 -270 m 1
 90 -253 l 1
 142 -218 165 -191 165 -164 c 0
 165 -154 160 -146 145 -132 c 0
 126 -115 120 -104 120 -87 c 0
 120 -60 142 -40 171 -40 c 0
 204 -40 229 -71 229 -111 c 0
 229 -167 183 -223 99 -270 c 1
EndSplineSet
EndChar
StartChar: scommaaccent
Encoding: 537 537 382
Width: 389
Flags: W
HStem: -11 21<144 162> 7.48958 138.51<51 52> 418 23<227 240>
VStem: 65 108.995<-111 -87> 109.004 72.9964<331 364> 227.993 76.0067<87 119>
Fore
36 146 m 1
 52 146 l 1
 68 51 99 10 154 10 c 0
 198 10 228 42 228 87 c 0
 228 116 211 151 172 202 c 0
 130 256 109 299 109 331 c 0
 109 398 157 441 230 441 c 0
 246 441 261 439 286 431 c 0
 305 426 315 424 322 424 c 0
 336 424 344 428 352 442 c 1
 366 442 l 1
 346 303 l 1
 330 303 l 1
 320 381 290 418 238 418 c 0
 203 418 182 397 182 364 c 0
 182 337 198 306 236 259 c 0
 283 201 304 157 304 119 c 0
 304 43 244 -11 160 -11 c 0
 144 -11 127 -8 105 -1 c 0
 85 4 67 8 56 8 c 0
 46 8 40 3 32 -13 c 1
 16 -13 l 1
 36 146 l 1
44 -270 m 1
 35 -253 l 1
 87 -218 110 -191 110 -164 c 0
 110 -154 105 -146 90 -132 c 0
 71 -115 65 -104 65 -87 c 0
 65 -60 87 -40 116 -40 c 0
 149 -40 174 -71 174 -111 c 0
 174 -167 128 -223 44 -270 c 1
EndSplineSet
MinimumDistance: x16,-1 
EndChar
StartChar: Tcommaaccent
Encoding: 538 538 383
Width: 556
Flags: W
HStem: 0 19<317 330.536> 618 35<251 314 416 491>
VStem: 65 290<1 16> 128 108.995<-111 -87>
DStem: 315 618 416 618 171 90 277 120
Fore
633 653 m 1
 589 490 l 1
 572 492 l 1
 574 509 575 524 575 537 c 0
 575 593 543 618 471 618 c 2
 416 618 l 1
 277 120 l 1
 268 86 265 74 265 61 c 0
 265 31 277 22 317 19 c 0
 323 19 338 17 355 16 c 1
 355 0 l 1
 65 0 l 1
 65 16 l 1
 131 21 155 37 171 90 c 1
 315 618 l 1
 162 620 130 603 77 495 c 1
 59 499 l 1
 101 653 l 1
 633 653 l 1
107 -270 m 1
 98 -253 l 1
 150 -218 173 -191 173 -164 c 0
 173 -154 168 -146 153 -132 c 0
 134 -115 128 -104 128 -87 c 0
 128 -60 150 -40 179 -40 c 0
 212 -40 237 -71 237 -111 c 0
 237 -167 191 -223 107 -270 c 1
EndSplineSet
MinimumDistance: x5,-1 
EndChar
StartChar: tcommaaccent
Encoding: 539 539 384
Width: 278
Flags: W
HStem: 396 32<217 291>
VStem: 9 108.995<-111 -87>
DStem: 132 396 207 396 60 121 119 63
Fore
296 428 m 1
 291 396 l 1
 207 396 l 1
 119 63 l 2
 118 60 118 59 118 58 c 0
 118 46 124 38 133 38 c 0
 149 38 165 54 214 117 c 1
 227 110 l 1
 164 17 131 -11 85 -11 c 0
 58 -11 37 5 37 27 c 0
 37 35 45 70 54 100 c 0
 57 109 58 112 60 121 c 1
 132 396 l 1
 58 396 l 1
 57 399 57 401 57 402 c 0
 57 413 64 419 89 427 c 0
 121 436 183 486 222 537 c 0
 228 545 231 546 237 546 c 0
 242 546 245 543 245 536 c 0
 245 535 245 533 244 531 c 1
 216 428 l 1
 296 428 l 1
-12 -270 m 1
 -21 -253 l 1
 31 -218 54 -191 54 -164 c 0
 54 -154 49 -146 34 -132 c 0
 15 -115 9 -104 9 -87 c 0
 9 -60 31 -40 60 -40 c 0
 93 -40 118 -71 118 -111 c 0
 118 -167 72 -223 -12 -270 c 1
EndSplineSet
MinimumDistance: x2,-1 
EndChar
StartChar: uni0292
Encoding: 658 658 401
Width: 389
Flags: W
HStem: -209 98<-1 66> 368 60<144 307>
VStem: 262 80<-11 44>
DStem: 308 368 380 417 133 158 205 210
Fore
380 417 m 1
 205 210 l 1
 292 190 342 137 342 44 c 0
 342 -107 210 -209 66 -209 c 0
 28 -209 -48 -203 -48 -150 c 0
 -48 -121 -28 -111 -1 -111 c 0
 46 -111 78 -171 134 -171 c 0
 216 -171 262 -83 262 -11 c 0
 262 86 227 137 133 158 c 1
 308 368 l 1
 162 368 l 2
 114 368 99 355 81 309 c 1
 65 313 l 1
 96 428 l 1
 380 428 l 1
 380 417 l 1
EndSplineSet
MinimumDistance: x0,-1 
EndChar
StartChar: circumflex
Encoding: 710 710 402
Width: 333
Flags: W
HStem: 641 20G<248 297>
Fore
297 661 m 1
 385 492 l 1
 349 492 l 1
 267 596 l 1
 130 492 l 1
 91 492 l 1
 248 661 l 1
 297 661 l 1
EndSplineSet
EndChar
StartChar: caron
Encoding: 711 711 403
Width: 333
Flags: W
HStem: 641 20G<121 158 390 426>
Fore
426 661 m 1
 263 492 l 1
 217 492 l 1
 121 661 l 1
 158 661 l 1
 248 556 l 1
 390 661 l 1
 426 661 l 1
EndSplineSet
EndChar
StartChar: breve
Encoding: 728 728 404
Width: 333
Flags: W
HStem: 492 59<245 261>
Fore
389 650 m 1
 418 650 l 1
 409 608 400 587 380 561 c 0
 347 516 300 492 247 492 c 0
 202 492 168 507 145 536 c 0
 125 562 117 593 117 650 c 1
 146 650 l 1
 151 588 190 551 254 551 c 0
 315 551 364 587 389 650 c 1
EndSplineSet
EndChar
StartChar: dotaccent
Encoding: 729 729 405
Width: 333
Flags: W
HStem: 508 98<255 259>
VStem: 207 98<556 560>
Fore
257 606 m 0
 282 606 305 582 305 557 c 0
 305 530 283 508 256 508 c 128
 229 508 207 530 207 558 c 0
 207 584 229 606 257 606 c 0
EndSplineSet
MinimumDistance: x1,-1 
EndChar
StartChar: ring
Encoding: 730 730 406
Width: 333
Flags: W
HStem: 508 34<251 257> 673 34<251 257>
VStem: 155 34<604 610> 321 34<604 610>
Fore
254 707 m 0
 309 707 355 662 355 607 c 0
 355 553 310 508 255 508 c 0
 199 508 155 552 155 608 c 0
 155 662 200 707 254 707 c 0
254 673 m 0
 219 673 189 643 189 608 c 0
 189 571 218 542 254 542 c 0
 292 542 321 570 321 607 c 0
 321 643 291 673 254 673 c 0
EndSplineSet
EndChar
StartChar: ogonek
Encoding: 731 731 407
Width: 333
Flags: W
HStem: -168.996 62.9962<75 100>
VStem: -19.9965 60.9965<-74 -55>
Fore
183 -74 m 5
 200 -92 l 5
 165 -143 123 -169 75 -169 c 4
 23 -169 -20 -126 -20 -74 c 4
 -20 -30 0 2 50 40 c 5
 74 40 l 5
 52 5 41 -25 41 -55 c 132
 41 -85 66 -106 100 -106 c 4
 131 -106 156 -96 183 -74 c 5
EndSplineSet
EndChar
StartChar: tilde
Encoding: 732 732 408
Width: 333
Flags: W
HStem: 520.354 60.1132<332 348> 563.992 59.008<180 200>
Fore
399 624 m 1
 427 624 l 1
 413 557 380 520 332 520 c 0
 320 520 301 525 275 535 c 0
 221 557 197 564 180 564 c 0
 155 564 139 549 129 517 c 1
 100 517 l 1
 120 594 148 623 200 623 c 0
 222 623 248 616 286 599 c 0
 316 585 333 580 348 580 c 0
 375 580 388 591 399 624 c 1
EndSplineSet
EndChar
StartChar: hungarumlaut
Encoding: 733 733 409
Width: 333
Flags: W
Fore
93 494 m 1
 255 654 l 2
 262 660 270 664 280 664 c 0
 300 664 316 648 316 628 c 0
 316 616 311 607 299 600 c 2
 128 494 l 1
 93 494 l 1
263 494 m 1
 425 654 l 2
 432 660 440 664 450 664 c 0
 470 664 486 648 486 628 c 0
 486 616 481 607 469 600 c 2
 298 494 l 1
 263 494 l 1
EndSplineSet
EndChar
StartChar: gravecomb
Encoding: 768 768 410
Width: 0
Flags: HW
Fore
-53 492 m 1
 -193 598 l 2
 -198 602 -212 612 -212 629 c 0
 -212 649 -198 664 -176 664 c 0
 -169 664 -156 664 -138 641 c 2
 -22 492 l 1
 -53 492 l 1
EndSplineSet
EndChar
StartChar: acutecomb
Encoding: 769 769 411
Width: 0
Flags: HW
Fore
53 600 m 2
 -118 494 l 1
 -153 494 l 1
 9 654 l 2
 15 660 23 664 34 664 c 0
 55 664 70 647 70 629 c 0
 70 614 64 607 53 600 c 2
EndSplineSet
EndChar
StartChar: uni0302
Encoding: 770 770 412
Width: 0
Flags: HW
HStem: 641 20G<-85 -36>
Fore
-36 661 m 1
 52 492 l 1
 16 492 l 1
 -66 596 l 1
 -203 492 l 1
 -242 492 l 1
 -85 661 l 1
 -36 661 l 1
EndSplineSet
EndChar
StartChar: tildecomb
Encoding: 771 771 413
Width: 0
Flags: HW
HStem: 520 60<-2 13> 564 59<-152 -132>
Fore
66 624 m 1
 94 624 l 1
 83 557 43 520 -2 520 c 0
 -19 520 -47 531 -75 542 c 0
 -104 553 -133 564 -152 564 c 0
 -180 564 -197 545 -204 517 c 1
 -233 517 l 1
 -223 555 -206 623 -132 623 c 0
 -78 623 -25 580 13 580 c 128
 51 580 59 603 66 624 c 1
EndSplineSet
EndChar
StartChar: uni0304
Encoding: 772 772 414
Width: 0
Flags: HW
HStem: 532 51<-222 66>
VStem: -223 290<533 582>
Fore
67 583 m 1
 67 532 l 1
 -223 532 l 1
 -223 583 l 1
 67 583 l 1
EndSplineSet
EndChar
StartChar: uni0305
Encoding: 773 773 415
Width: 0
Flags: HW
HStem: 547 54<-321 140>
VStem: -322 463<548 600>
Fore
-322 601 m 1
 141 601 l 1
 141 547 l 1
 -322 547 l 1
 -322 601 l 1
EndSplineSet
EndChar
StartChar: uni0306
Encoding: 774 774 416
Width: 0
Flags: HW
HStem: 492 59<-88 -72>
VStem: -216 29<638.357 649.938>
Fore
56 650 m 1
 85 650 l 1
 71 563 3 492 -83 492 c 0
 -216 492 -216 608 -216 650 c 1
 -187 650 l 1
 -187 634 -177 551 -78 551 c 128
 21 551 55 646 56 650 c 1
EndSplineSet
MinimumDistance: x4,-1 
EndChar
StartChar: uni0307
Encoding: 775 775 417
Width: 0
Flags: HW
HStem: 508 98<-78 -74>
VStem: -126 98<556 560>
Fore
-76 606 m 0
 -59 606 -28 590 -28 557 c 0
 -28 530 -50 508 -77 508 c 128
 -104 508 -126 529 -126 558 c 0
 -126 591 -96 606 -76 606 c 0
EndSplineSet
MinimumDistance: x1,-1 
EndChar
StartChar: uni0308
Encoding: 776 776 418
Width: 0
Flags: HW
HStem: 508 98<-178 -174 22 30>
VStem: -226 98<556 560> -26 98<556 560>
Fore
-176 606 m 0
 -159 606 -128 590 -128 557 c 0
 -128 530 -150 508 -177 508 c 128
 -204 508 -226 529 -226 558 c 0
 -226 591 -196 606 -176 606 c 0
24 606 m 0
 41 606 72 590 72 557 c 0
 72 530 50 508 23 508 c 128
 -4 508 -26 529 -26 558 c 0
 -26 591 4 606 24 606 c 0
EndSplineSet
EndChar
StartChar: hookabovecomb
Encoding: 777 777 419
Width: 0
Flags: HW
HStem: 691 19<8 23>
VStem: 37.044 47.0709<658 668>
Fore
-17 501 m 1
 -42 501 l 1
 -23 571 22 598 34 643 c 0
 41 667 39 691 8 691 c 0
 -9 691 -29 679 -32 666 c 0
 -35 655 -28 651 -33 636 c 0
 -35 629 -42 619 -53 619 c 0
 -69 619 -69 631 -65 645 c 0
 -54 685 -15 710 23 710 c 0
 48 710 97 696 81 639 c 0
 67 587 14 580 -17 501 c 1
EndSplineSet
EndChar
StartChar: uni030A
Encoding: 778 778 420
Width: 0
Flags: HW
HStem: 492 34<-82 -76> 657 34<-82 -76>
VStem: -178 34<588 593> -12 34<588 593>
Fore
-178 591 m 0
 -178 645 -136 691 -78 691 c 0
 -24 691 22 646 22 591 c 128
 22 536 -24 492 -78 492 c 0
 -135 492 -178 537 -178 591 c 0
-144 591 m 0
 -144 566 -125 526 -79 526 c 0
 -41 526 -12 554 -12 591 c 0
 -12 627 -41 657 -79 657 c 0
 -124 657 -144 616 -144 591 c 0
EndSplineSet
EndChar
StartChar: uni030B
Encoding: 779 779 421
Width: 0
Flags: HW
Fore
-34 600 m 2
 -205 494 l 1
 -240 494 l 1
 -78 654 l 2
 -72 660 -64 664 -53 664 c 0
 -32 664 -17 647 -17 629 c 0
 -17 614 -23 607 -34 600 c 2
136 600 m 2
 -35 494 l 1
 -70 494 l 1
 92 654 l 2
 98 660 106 664 117 664 c 0
 138 664 153 647 153 629 c 0
 153 614 147 607 136 600 c 2
EndSplineSet
EndChar
StartChar: uni030C
Encoding: 780 780 422
Width: 0
Flags: HW
HStem: 641 20G<-212 -175 57 93>
Fore
93 661 m 1
 -70 492 l 1
 -116 492 l 1
 -212 661 l 1
 -175 661 l 1
 -85 556 l 1
 57 661 l 1
 93 661 l 1
EndSplineSet
EndChar
StartChar: uni030D
Encoding: 781 781 423
Width: 0
Flags: HW
Fore
-17 507 m 1
 -34 507 l 1
 -30 551 -21 648 -15 671 c 0
 -9 692 13 703 29 703 c 0
 44 703 59 692 53 671 c 0
 47 648 3 551 -17 507 c 1
EndSplineSet
EndChar
StartChar: uni030E
Encoding: 782 782 424
Width: 0
Flags: HW
Fore
50 507 m 1
 33 507 l 1
 37 551 46 648 52 671 c 0
 58 692 80 703 96 703 c 0
 111 703 126 692 120 671 c 0
 114 648 70 551 50 507 c 1
-84 507 m 1
 -101 507 l 1
 -97 551 -88 648 -82 671 c 0
 -76 692 -54 703 -38 703 c 0
 -23 703 -8 692 -14 671 c 0
 -20 648 -64 551 -84 507 c 1
EndSplineSet
EndChar
StartChar: uni030F
Encoding: 783 783 425
Width: 0
Flags: HW
Fore
-27 507 m 1
 -154 604 l 2
 -163 611 -179 623 -173 646 c 0
 -172 650 -163 678 -131 678 c 0
 -117 678 -110 678 -93 655 c 2
 13 507 l 1
 -27 507 l 1
129 507 m 1
 2 604 l 2
 -7 611 -23 623 -17 646 c 0
 -16 650 -7 678 25 678 c 0
 39 678 46 678 63 655 c 2
 169 507 l 1
 129 507 l 1
EndSplineSet
EndChar
StartChar: uni0310
Encoding: 784 784 426
Width: 0
Flags: HW
HStem: 507 60<-27 -9> 617 100<1.03699 13> 644 20G<-123 -94 129 158>
VStem: -37 98<663 669>
Fore
129 664 m 1
 158 664 l 1
 147 633 100 507 -28 507 c 0
 -100 507 -155 555 -123 664 c 1
 -94 664 l 1
 -101 603 -74 567 -10 567 c 0
 66 567 96 614 129 664 c 1
-37 667 m 0
 -37 686 -22 717 11 717 c 0
 38 717 61 694 61 667 c 0
 61 639 38 617 11 617 c 0
 -23 617 -37 647 -37 667 c 0
EndSplineSet
EndChar
StartChar: uni0311
Encoding: 785 785 427
Width: 0
Flags: HW
HStem: 603 60<-1 17>
Fore
85 506 m 1
 80 556 76 603 0 603 c 0
 -64 603 -111 567 -138 506 c 1
 -167 506 l 1
 -138 615 -57 663 15 663 c 0
 143 663 120 537 114 506 c 1
 85 506 l 1
EndSplineSet
EndChar
StartChar: uni0312
Encoding: 786 786 428
Width: 0
Flags: HW
HStem: 523 80<-8 3> 709 29<41 69>
VStem: -85.817 153.199<583 587>
Fore
98 701 m 1
 84 707 69 709 46 709 c 0
 15 709 -23 684 -33 648 c 0
 -41 619 -34 603 -7 603 c 0
 7 603 14 608 30 608 c 0
 61 608 73 595 65 566 c 0
 57 536 26 523 1 523 c 0
 -68 523 -101 564 -81 634 c 0
 -66 689 -7 738 50 738 c 0
 73 738 95 734 113 725 c 1
 98 701 l 1
EndSplineSet
EndChar
StartChar: uni0313
Encoding: 787 787 429
Width: 0
Flags: HW
HStem: 523 29<-222 -197> 658 80<-155 -139>
Fore
-267 536 m 1
 -252 560 l 1
 -238 554 -222 552 -199 552 c 0
 -169 552 -130 577 -120 613 c 0
 -112 642 -120 658 -147 658 c 0
 -162 658 -167 653 -184 653 c 0
 -214 653 -227 666 -219 695 c 0
 -211 725 -179 738 -154 738 c 0
 -85 738 -54 697 -73 627 c 0
 -88 572 -147 523 -203 523 c 0
 -226 523 -249 527 -267 536 c 1
EndSplineSet
EndChar
StartChar: uni0314
Encoding: 788 788 430
Width: 0
Flags: HW
HStem: 523.01 28.9899<-175 -158> 653 84.0446<-124 -123>
VStem: -253.637 41.3724<595 603>
Fore
-108 560 m 1
 -106 536 l 1
 -130 527 -154 523 -177 523 c 0
 -234 523 -265 572 -250 627 c 0
 -231 697 -175 738 -106 738 c 0
 -81 738 -58 725 -66 695 c 0
 -74 666 -94 653 -125 653 c 0
 -141 653 -145 658 -159 658 c 0
 -186 658 -202 642 -210 613 c 0
 -220 577 -196 552 -165 552 c 0
 -142 552 -125 554 -108 560 c 1
EndSplineSet
EndChar
StartChar: uni0315
Encoding: 789 789 431
Width: 0
Flags: HW
HStem: 572 104<-118 -115>
VStem: -193.093 135.655<602 609>
Fore
-215 433 m 1
 -219 452 l 1
 -141 494 -112 539 -107 558 c 0
 -104 567 -110 572 -117 572 c 0
 -119 572 -123 571 -127 570 c 0
 -130 569 -135 568 -142 568 c 0
 -168 568 -202 578 -191 618 c 0
 -179 661 -142 676 -117 676 c 0
 -94 676 -39 663 -62 580 c 0
 -82 509 -182 443 -215 433 c 1
EndSplineSet
EndChar
StartChar: uni0316
Encoding: 790 790 432
Width: 0
Flags: HW
Fore
-142 -296 m 1
 -182 -296 l 1
 -309 -199 l 2
 -319 -191 -332 -177 -326 -156 c 0
 -326 -154 -317 -125 -286 -125 c 0
 -270 -125 -265 -124 -248 -148 c 2
 -142 -296 l 1
EndSplineSet
EndChar
StartChar: uni0317
Encoding: 791 791 433
Width: 0
Flags: HW
Fore
-364 -296 m 1
 -176 -148 l 2
 -146 -124 -142 -125 -126 -125 c 0
 -95 -125 -102 -154 -102 -156 c 0
 -108 -177 -129 -191 -143 -199 c 2
 -324 -296 l 1
 -364 -296 l 1
EndSplineSet
EndChar
StartChar: uni0318
Encoding: 792 792 434
Width: 0
Flags: W
HStem: -309 54<-357 -189>
DStem: -189 -309 -84 -127 -224 -438 -170 -438 -138 -127 -84 -127 -174 -255 -170 -438
Fore
-189 -309 m 1
 -357 -309 l 1
 -357 -255 l 1
 -174 -255 l 1
 -138 -127 l 1
 -84 -127 l 1
 -170 -438 l 1
 -224 -438 l 1
 -189 -309 l 1
EndSplineSet
EndChar
StartChar: uni0319
Encoding: 793 793 435
Width: 0
Flags: W
HStem: -309 54<-302 -134>
DStem: -320 -127 -266 -127 -406 -438 -302 -255 -320 -127 -317 -309 -406 -438 -352 -438
Fore
-317 -309 m 1
 -352 -438 l 1
 -406 -438 l 1
 -320 -127 l 1
 -266 -127 l 1
 -302 -255 l 1
 -134 -255 l 1
 -134 -309 l 1
 -317 -309 l 1
EndSplineSet
EndChar
StartChar: uni031A
Encoding: 794 794 436
Width: 0
Flags: W
HStem: 688 54<-79 89>
DStem: 89 688 158 742 38 505 92 505
Fore
158 742 m 1
 92 505 l 1
 38 505 l 1
 89 688 l 1
 -79 688 l 1
 -79 742 l 1
 158 742 l 1
EndSplineSet
EndChar
StartChar: uni031B
Encoding: 795 795 437
Width: 0
Flags: HW
HStem: 333 28<-170 -154>
VStem: -144.532 146.147<483 493>
Fore
-224 392 m 1
 -212 373 -189 361 -161 361 c 0
 -137 361 -110 370 -92 383 c 0
 -74 395 -65 412 -61 426 c 0
 -48 471 -163 427 -142 501 c 0
 -132 538 -100 564 -60 564 c 0
 -9 564 14 522 -3 460 c 0
 -23 390 -96 333 -167 333 c 0
 -178 333 -219 335 -234 358 c 1
 -224 392 l 1
EndSplineSet
EndChar
StartChar: uni031C
Encoding: 796 796 438
Width: 0
Flags: HW
HStem: -331 34<-239 -227> -166 34<-197 -181>
VStem: -312.917 36.6912<-259 -246>
Fore
-141 -143 m 1
 -165 -173 l 1
 -173 -168 -181 -166 -192 -166 c 0
 -237 -166 -268 -207 -275 -231 c 0
 -282 -256 -274 -297 -229 -297 c 0
 -218 -297 -207 -294 -196 -290 c 1
 -190 -320 l 1
 -205 -327 -222 -331 -238 -331 c 0
 -295 -331 -324 -286 -309 -232 c 128
 -294 -178 -239 -132 -183 -132 c 0
 -167 -132 -152 -136 -141 -143 c 1
EndSplineSet
EndChar
StartChar: uni031D
Encoding: 797 797 439
Width: 0
Flags: W
HStem: -366 54<-410 -114>
DStem: -230 -129 -176 -129 -281 -312 -227 -312
Fore
-281 -312 m 1
 -230 -129 l 1
 -176 -129 l 1
 -227 -312 l 1
 -114 -312 l 1
 -114 -366 l 1
 -410 -366 l 1
 -410 -312 l 1
 -281 -312 l 1
EndSplineSet
EndChar
StartChar: uni031E
Encoding: 798 798 440
Width: 0
Flags: W
HStem: -231 54<-372 -258 -372 -76>
DStem: -258 -231 -204 -231 -309 -414 -255 -414
Fore
-258 -231 m 1
 -372 -231 l 1
 -372 -177 l 1
 -76 -177 l 1
 -76 -231 l 1
 -204 -231 l 1
 -255 -414 l 1
 -309 -414 l 1
 -258 -231 l 1
EndSplineSet
EndChar
StartChar: uni031F
Encoding: 799 799 441
Width: 0
Flags: HW
HStem: -285 54<-359 -274 -203 -118> -285 156<-219 -204>
VStem: -360 243<-285 -231>
DStem: 60 -285 114 -285 32 -387 86 -387 103 -129 157 -129 75 -231 129 -231
Fore
-117 -231 m 1
 -117 -285 l 1
 -219 -285 l 1
 -247 -387 l 1
 -301 -387 l 1
 -273 -285 l 1
 -360 -285 l 1
 -360 -231 l 1
 -258 -231 l 1
 -230 -129 l 1
 -176 -129 l 1
 -204 -231 l 1
 -117 -231 l 1
EndSplineSet
MinimumDistance: x0,-1 
EndChar
StartChar: uni0320
Encoding: 800 800 442
Width: 0
Flags: HW
HStem: -231 54<-370 -76>
VStem: -371 296<-230 -178>
Fore
-371 -177 m 1
 -75 -177 l 1
 -75 -231 l 1
 -371 -231 l 1
 -371 -177 l 1
EndSplineSet
MinimumDistance: x1,-1 
EndChar
StartChar: uni0321
Encoding: 801 801 443
Width: 0
Flags: HW
HStem: -231 24<-108 -98> 0 23<-41 11>
DStem: -322 0 -287 35 -364 -152 -339 -152
Fore
11 0 m 1
 -46 0 l 1
 -40 23 l 1
 8 23 l 1
 21 31 30 39 38 46 c 1
 46 35 l 1
 -6 -152 l 2
 -18 -196 -62 -231 -106 -231 c 128
 -150 -231 -175 -196 -164 -156 c 0
 -158 -133 -135 -115 -112 -115 c 128
 -89 -115 -76 -133 -82 -156 c 0
 -88 -177 -108 -194 -129 -197 c 1
 -121 -203 -111 -207 -100 -207 c 0
 -70 -207 -39 -182 -31 -152 c 2
 11 0 l 1
EndSplineSet
EndChar
StartChar: uni0322
Encoding: 802 802 444
Width: 0
Flags: HW
HStem: -231 24<-20 -5> 0 23<8 50>
VStem: -77.071 26.8558<-175 -165>
DStem: -22 35 -7 0 -74 -152 -49 -152
Fore
-7 0 m 1
 -49 -152 l 2
 -57 -182 -40 -207 -10 -207 c 0
 1 -207 13 -203 23 -197 c 1
 4 -194 -6 -177 0 -156 c 0
 6 -133 29 -115 52 -115 c 128
 75 -115 88 -133 82 -156 c 0
 71 -196 26 -231 -18 -231 c 128
 -62 -231 -86 -196 -74 -152 c 2
 -22 35 l 1
 -8 46 l 1
 -4 39 1 31 8 23 c 1
 56 23 l 1
 50 0 l 1
 -7 0 l 1
EndSplineSet
MinimumDistance: x0,-1 
EndChar
StartChar: dotbelowcomb
Encoding: 803 803 445
Width: 0
Flags: HW
HStem: -225 100<-225.963 -214>
VStem: -264 98<-177 -173>
Fore
-264 -175 m 0
 -264 -156 -249 -125 -216 -125 c 0
 -189 -125 -166 -148 -166 -175 c 0
 -166 -203 -189 -225 -216 -225 c 0
 -250 -225 -264 -195 -264 -175 c 0
EndSplineSet
MinimumDistance: x2,-1 
EndChar
StartChar: uni0324
Encoding: 804 804 446
Width: 0
Flags: HW
HStem: -225 100<-325.963 -314 -124 -108>
VStem: -364 98<-177 -173> -165 98<-177 -173>
Fore
-364 -175 m 0
 -364 -156 -349 -125 -316 -125 c 0
 -289 -125 -266 -148 -266 -175 c 0
 -266 -203 -289 -225 -316 -225 c 0
 -350 -225 -364 -195 -364 -175 c 0
-165 -175 m 0
 -165 -156 -150 -125 -117 -125 c 0
 -90 -125 -67 -148 -67 -175 c 0
 -67 -203 -90 -225 -117 -225 c 0
 -151 -225 -165 -195 -165 -175 c 0
EndSplineSet
MinimumDistance: x6,-1 
EndChar
StartChar: uni0325
Encoding: 805 805 447
Width: 0
Flags: HW
HStem: -331 34<-234 -229> -166 34<-234 -229>
VStem: -330 34<-235 -229> -165 34<-235 -229>
Fore
-330 -232 m 0
 -330 -178 -287 -132 -231 -132 c 0
 -176 -132 -131 -177 -131 -232 c 0
 -131 -287 -176 -331 -231 -331 c 0
 -288 -331 -330 -286 -330 -232 c 0
-231 -166 m 0
 -276 -166 -296 -207 -296 -231 c 0
 -296 -256 -277 -297 -232 -297 c 0
 -194 -297 -165 -268 -165 -232 c 128
 -165 -196 -194 -166 -231 -166 c 0
EndSplineSet
MinimumDistance: x2,-1 
EndChar
StartChar: uni0326
Encoding: 806 806 448
Width: 0
Flags: HW
HStem: -231 104<-216 -208>
VStem: -286.154 134.742<-201 -194>
Fore
-309 -370 m 1
 -312 -351 l 1
 -235 -309 -206 -264 -201 -245 c 0
 -198 -236 -204 -231 -211 -231 c 0
 -213 -231 -216 -232 -221 -233 c 0
 -224 -234 -229 -235 -236 -235 c 0
 -262 -235 -295 -225 -284 -185 c 0
 -272 -142 -235 -127 -210 -127 c 0
 -187 -127 -133 -140 -156 -223 c 0
 -176 -294 -276 -360 -309 -370 c 1
EndSplineSet
EndChar
StartChar: uni0327
Encoding: 807 807 449
Width: 0
Flags: HW
HStem: -217 35<-283 -267> -20 20G<-252 -214>
VStem: -225 74<-139 -130>
Fore
-312 -96 m 1
 -252 0 l 1
 -214 0 l 1
 -258 -66 l 1
 -249 -64 -243 -63 -231 -63 c 0
 -187 -63 -151 -87 -151 -130 c 0
 -151 -198 -224 -217 -273 -217 c 0
 -297 -217 -331 -209 -363 -196 c 1
 -346 -167 l 1
 -328 -174 -305 -182 -280 -182 c 0
 -225 -182 -225 -150 -225 -138 c 0
 -225 -114 -247 -97 -271 -97 c 0
 -282 -97 -293 -100 -303 -104 c 1
 -312 -96 l 1
EndSplineSet
MinimumDistance: x5,-1 
EndChar
StartChar: uni0328
Encoding: 808 808 450
Width: 0
Flags: HW
HStem: -20 20G<-215 -169>
Fore
-124 -73 m 1
 -109 -89 l 1
 -144 -128 -195 -165 -240 -165 c 0
 -283 -165 -307 -137 -292 -84 c 0
 -283 -52 -242 -16 -215 0 c 1
 -169 0 l 1
 -191 -14 -224 -39 -232 -69 c 0
 -239 -94 -225 -109 -207 -109 c 0
 -177 -109 -152 -92 -124 -73 c 1
EndSplineSet
EndChar
StartChar: uni0329
Encoding: 809 809 451
Width: 0
Flags: HW
Fore
-194 -131 m 1
 -199 -175 -208 -272 -215 -295 c 0
 -221 -316 -242 -327 -257 -327 c 0
 -273 -327 -289 -316 -283 -295 c 0
 -276 -272 -232 -175 -211 -131 c 1
 -194 -131 l 1
EndSplineSet
EndChar
StartChar: uni032A
Encoding: 810 810 452
Width: 0
Flags: W
HStem: -231 54<-372 -130>
DStem: -387 -231 -333 -231 -420 -349 -366 -349 -130 -231 -76 -231 -163 -349 -109 -349
Fore
-130 -231 m 1
 -333 -231 l 1
 -366 -349 l 1
 -420 -349 l 1
 -387 -231 l 1
 -372 -177 l 1
 -61 -177 l 1
 -76 -231 l 1
 -109 -349 l 1
 -163 -349 l 1
 -130 -231 l 1
EndSplineSet
EndChar
StartChar: uni032B
Encoding: 811 811 453
Width: 0
Flags: HW
HStem: -372.092 36.0925<-177 -171>
VStem: -410.01 55.4208<-325 -317> -133.759 52.7213<-261 -244>
Fore
-221 -204 m 0
 -210 -205 -212 -211 -213 -228 c 0
 -214 -267 -220 -336 -177 -336 c 0
 -156 -336 -148 -325 -139 -292 c 128
 -130 -259 -130 -211 -149 -169 c 0
 -155 -156 -140 -148 -131 -157 c 1
 -91 -187 -71 -241 -86 -295 c 0
 -99 -343 -127 -373 -163 -373 c 128
 -199 -373 -236 -355 -250 -319 c 1
 -287 -355 -334 -373 -370 -373 c 128
 -406 -373 -418 -343 -405 -295 c 0
 -390 -241 -340 -188 -284 -157 c 0
 -269 -149 -258 -155 -272 -169 c 0
 -312 -210 -341 -259 -350 -292 c 128
 -359 -325 -357 -336 -336 -336 c 0
 -293 -336 -260 -267 -240 -228 c 0
 -232 -211 -230 -203 -221 -204 c 0
EndSplineSet
EndChar
StartChar: uni032C
Encoding: 812 812 454
Width: 0
Flags: HW
Fore
-57 -165 m 1
 -228 -332 l 1
 -290 -332 l 1
 -368 -165 l 1
 -334 -165 l 1
 -241 -268 l 1
 -91 -165 l 1
 -57 -165 l 1
EndSplineSet
EndChar
StartChar: uni032D
Encoding: 813 813 455
Width: 0
Flags: HW
Fore
-103 -333 m 1
 -137 -333 l 1
 -231 -230 l 1
 -380 -333 l 1
 -414 -333 l 1
 -244 -166 l 1
 -182 -166 l 1
 -103 -333 l 1
EndSplineSet
EndChar
StartChar: uni032E
Encoding: 814 814 456
Width: 0
Flags: HW
HStem: -311 60<-254 -236>
Fore
-98 -154 m 1
 -69 -154 l 1
 -80 -185 -127 -311 -255 -311 c 0
 -327 -311 -382 -263 -350 -154 c 1
 -321 -154 l 1
 -328 -215 -301 -251 -237 -251 c 0
 -161 -251 -131 -204 -98 -154 c 1
EndSplineSet
EndChar
StartChar: uni032F
Encoding: 815 815 457
Width: 0
Flags: HW
HStem: -215 60<-228 -210>
Fore
-142 -312 m 1
 -147 -262 -151 -215 -227 -215 c 0
 -291 -215 -338 -251 -365 -312 c 1
 -394 -312 l 1
 -365 -203 -284 -155 -212 -155 c 0
 -84 -155 -107 -281 -113 -312 c 1
 -142 -312 l 1
EndSplineSet
EndChar
StartChar: uni0330
Encoding: 816 816 458
Width: 0
Flags: HW
HStem: -281 56<-185 -151>
Fore
-80 -175 m 1
 -51 -175 l 1
 -69 -209 -107 -281 -185 -281 c 0
 -216 -281 -234 -271 -259 -257 c 2
 -279 -246 l 2
 -290 -240 -301 -235 -313 -235 c 0
 -351 -235 -370 -264 -381 -281 c 1
 -410 -281 l 1
 -390 -237 -344 -180 -277 -180 c 0
 -256 -180 -236 -186 -216 -198 c 2
 -195 -210 l 2
 -185 -216 -166 -225 -151 -225 c 0
 -124 -225 -108 -215 -80 -175 c 1
EndSplineSet
EndChar
StartChar: uni0331
Encoding: 817 817 459
Width: 0
Flags: HW
HStem: -231 54<-370 -76>
VStem: -371 296<-230 -178>
Fore
-371 -177 m 1
 -75 -177 l 1
 -75 -231 l 1
 -371 -231 l 1
 -371 -177 l 1
EndSplineSet
MinimumDistance: x1,-1 
EndChar
StartChar: uni0332
Encoding: 818 818 460
Width: 0
Flags: HW
HStem: -231 54<-537 -76>
VStem: -538 463<-230 -178>
Fore
-538 -177 m 1
 -75 -177 l 1
 -75 -231 l 1
 -538 -231 l 1
 -538 -177 l 1
EndSplineSet
MinimumDistance: x1,-1 
EndChar
StartChar: uni0333
Encoding: 819 819 461
Width: 0
Flags: HW
HStem: -339 54<-567 -106> -231 54<-537 -76>
Fore
-538 -177 m 1
 -75 -177 l 1
 -75 -231 l 1
 -538 -231 l 1
 -538 -177 l 1
-568 -285 m 1
 -105 -285 l 1
 -105 -339 l 1
 -568 -339 l 1
 -568 -285 l 1
EndSplineSet
EndChar
StartChar: uni0334
Encoding: 820 820 462
Width: 0
Flags: HW
HStem: 282 56<-46 -12>
Fore
60 388 m 1
 89 388 l 1
 70 354 32 282 -46 282 c 0
 -77 282 -95 292 -120 306 c 2
 -140 317 l 2
 -150 323 -162 328 -174 328 c 0
 -212 328 -231 299 -242 282 c 1
 -271 282 l 1
 -251 326 -205 383 -138 383 c 0
 -117 383 -97 376 -77 365 c 2
 -56 353 l 2
 -46 347 -27 338 -12 338 c 0
 15 338 32 348 60 388 c 1
EndSplineSet
EndChar
StartChar: uni0335
Encoding: 821 821 463
Width: 0
Flags: HW
HStem: 201 43<-239 -28>
VStem: -240 213<202 243>
Fore
-240 244 m 1
 -27 244 l 1
 -27 201 l 1
 -240 201 l 1
 -240 244 l 1
EndSplineSet
EndChar
StartChar: uni0336
Encoding: 822 822 464
Width: 0
Flags: HW
HStem: 201 43<-406 24>
VStem: -407 432<202 243>
Fore
-407 244 m 1
 25 244 l 1
 25 201 l 1
 -407 201 l 1
 -407 244 l 1
EndSplineSet
EndChar
StartChar: uni0337
Encoding: 823 823 465
Width: 0
Flags: W
DStem: 32 336 39 297 -422 148 -415 109
Fore
-422 148 m 1
 32 336 l 1
 39 297 l 1
 -415 109 l 1
 -422 148 l 1
EndSplineSet
EndChar
StartChar: uni0338
Encoding: 824 824 466
Width: 0
Flags: W
DStem: -1 395 21 364 -403 81 -380 50
Fore
-403 81 m 1
 -1 395 l 1
 21 364 l 1
 -380 50 l 1
 -403 81 l 1
EndSplineSet
EndChar
StartChar: uni0339
Encoding: 825 825 467
Width: 0
Flags: HW
HStem: -331 34<-278 -264> -166 34<-233 -221>
VStem: -182.898 34.9283<-217 -205>
Fore
-271 -143 m 1
 -256 -136 -239 -132 -223 -132 c 0
 -167 -132 -136 -178 -151 -232 c 128
 -166 -286 -221 -331 -278 -331 c 0
 -294 -331 -309 -327 -320 -320 c 1
 -296 -290 l 1
 -289 -294 -278 -297 -267 -297 c 0
 -222 -297 -192 -256 -185 -231 c 0
 -178 -207 -187 -166 -232 -166 c 0
 -243 -166 -253 -168 -263 -173 c 1
 -271 -143 l 1
EndSplineSet
EndChar
StartChar: uni033A
Encoding: 826 826 468
Width: 0
Flags: W
HStem: -285 54<-333 -91>
DStem: -354 -113 -300 -113 -387 -231 -333 -231 -97 -113 -43 -113 -130 -231 -76 -231
Fore
-130 -231 m 1
 -97 -113 l 1
 -43 -113 l 1
 -76 -231 l 1
 -91 -285 l 1
 -402 -285 l 1
 -387 -231 l 1
 -354 -113 l 1
 -300 -113 l 1
 -333 -231 l 1
 -130 -231 l 1
EndSplineSet
EndChar
StartChar: uni033B
Encoding: 827 827 469
Width: 0
Flags: HW
HStem: -438 55<-350 -198> -231 54<-309 -157>
DStem: -15 -177 246 -177 -87 -438 174 -438 -15 -177 24 -231 -87 -438 -18 -383 -15 -177 246 -177 -87 -438 174 -438 177 -231 246 -177 135 -383 174 -438
Fore
-198 -383 m 1
 -156 -231 l 1
 -309 -231 l 1
 -351 -383 l 1
 -198 -383 l 1
-348 -177 m 1
 -87 -177 l 1
 -159 -438 l 1
 -420 -438 l 1
 -348 -177 l 1
EndSplineSet
MinimumDistance: x5,-1 
EndChar
StartChar: uni033C
Encoding: 828 828 470
Width: 0
Flags: HW
Fore
-263 -342 m 0
 -275 -342 -274 -331 -273 -324 c 0
 -268 -290 -254 -235 -310 -229 c 0
 -328 -227 -355 -231 -374 -237 c 0
 -392 -243 -385 -225 -379 -222 c 1
 -339 -178 -304 -164 -280 -165 c 0
 -255 -166 -235 -191 -236 -249 c 1
 -204 -191 -167 -166 -142 -165 c 0
 -116 -164 -82 -175 -78 -222 c 0
 -77 -228 -75 -243 -91 -237 c 0
 -106 -231 -131 -228 -151 -229 c 0
 -208 -231 -222 -291 -240 -324 c 0
 -244 -331 -248 -342 -263 -342 c 0
EndSplineSet
EndChar
StartChar: uni033D
Encoding: 829 829 471
Width: 0
Flags: HW
DStem: 243 703 291 742 301 622 350 660 301 622 329 583 198 542 230 506 329 583 377 622 384 506 436 543 455 742 480 702 350 660 377 622
Fore
-135 542 m 1
 -32 622 l 1
 -90 703 l 1
 -42 742 l 1
 17 660 l 1
 122 742 l 1
 147 702 l 1
 44 622 l 1
 103 543 l 1
 51 506 l 1
 -4 583 l 1
 -103 506 l 1
 -135 542 l 1
EndSplineSet
EndChar
StartChar: uni033E
Encoding: 830 830 472
Width: 0
Flags: HW
Fore
-24 609 m 0
 -39 627 -46 641 -40 663 c 0
 -29 702 5 724 90 749 c 1
 94 733 l 1
 43 713 31 696 26 678 c 128
 21 660 26 649 35 637 c 0
 50 616 57 602 51 580 c 0
 40 541 -14 519 -79 494 c 1
 -84 510 l 1
 -32 530 -20 547 -15 565 c 128
 -10 583 -13 596 -24 609 c 0
EndSplineSet
EndChar
StartChar: uni033F
Encoding: 831 831 473
Width: 0
Flags: HW
HStem: 547 54<-321 140> 655 54<-291 170>
Fore
-322 601 m 1
 141 601 l 1
 141 547 l 1
 -322 547 l 1
 -322 601 l 1
-292 709 m 1
 171 709 l 1
 171 655 l 1
 -292 655 l 1
 -292 709 l 1
EndSplineSet
EndChar
StartChar: uni0360
Encoding: 864 864 474
Width: 0
Flags: HW
HStem: 636 68<150 214>
Fore
533 510 m 1
 515 503 l 1
 474 561 418 636 171 636 c 0
 71 636 -142 636 -285 503 c 1
 -298 512 l 1
 -233 580 -58 704 183 704 c 0
 351 704 477 631 533 510 c 1
EndSplineSet
EndChar
StartChar: uni0361
Encoding: 865 865 475
Width: 0
Flags: HW
Fore
176 622 m 0
 242 601 324 578 386 584 c 0
 449 590 544 632 595 687 c 1
 612 682 l 1
 566 619 483 534 376 523 c 128
 269 512 217 540 136 563 c 0
 64 583 -16 610 -77 604 c 0
 -140 598 -236 556 -286 501 c 1
 -304 506 l 1
 -257 569 -175 654 -68 665 c 128
 39 676 91 648 176 622 c 0
EndSplineSet
EndChar
StartChar: uni0374
Encoding: 884 884 476
Width: 199
Flags: W
Fore
48 557 m 1
 31 567 l 1
 57 610 144 780 193 780 c 0
 212 780 229 767 229 747 c 0
 229 712 81 587 48 557 c 1
EndSplineSet
EndChar
StartChar: uni0375
Encoding: 885 885 477
Width: 199
Flags: W
Fore
198 -10 m 1
 172 -53 84 -223 35 -223 c 0
 16 -223 0 -210 0 -190 c 0
 0 -155 148 -30 181 0 c 1
 198 -10 l 1
EndSplineSet
EndChar
StartChar: uni037A
Encoding: 890 890 478
Width: 332
Flags: W
Fore
177 -165 m 5
 163 -223 121 -253 62 -253 c 4
 29 -253 4 -242 4 -205 c 4
 4 -163 22 -116 32 -75 c 5
 108 -75 l 5
 99 -112 81 -157 81 -196 c 4
 81 -208 87 -216 100 -216 c 4
 128 -216 146 -189 152 -165 c 5
 177 -165 l 5
EndSplineSet
EndChar
StartChar: tonos
Encoding: 900 900 479
Width: 186
Flags: W
Fore
163 547 m 1
 146 547 l 1
 150 593 138 743 204 743 c 0
 218 743 230 733 230 719 c 0
 230 690 177 580 163 547 c 1
EndSplineSet
EndChar
StartChar: dieresistonos
Encoding: 901 901 480
Width: 332
Flags: W
VStem: 95 100<593 617> 290 100<593 617>
Fore
328 557 m 0
 307 557 290 571 290 593 c 0
 290 624 321 653 352 653 c 0
 373 653 390 639 390 617 c 0
 390 586 359 557 328 557 c 0
241 557 m 1
 224 557 l 1
 227 603 216 753 282 753 c 0
 296 753 308 743 308 729 c 0
 308 700 255 590 241 557 c 1
133 557 m 0
 112 557 95 571 95 593 c 0
 95 624 126 653 157 653 c 0
 178 653 195 639 195 617 c 0
 195 586 164 557 133 557 c 0
EndSplineSet
EndChar
StartChar: anoteleia
Encoding: 903 903 482
Width: 250
Flags: W
Fore
184 411 m 0
 184 378 158 352 125 352 c 128
 92 352 66 378 66 411 c 128
 66 444 92 470 125 470 c 128
 158 470 184 444 184 411 c 0
EndSplineSet
EndChar
StartChar: iotadieresistonos
Encoding: 912 912 489
Width: 267
Flags: W
HStem: -10 36<81 115> 431 20G<93 177> 557 96<64.9489 83 261.949 275>
VStem: 0 81<53 60> 27 96<597 615> 224 96<597 615>
Fore
320 605 m 0
 320 578 299 557 272 557 c 128
 245 557 224 578 224 605 c 128
 224 632 245 653 272 653 c 128
 299 653 320 632 320 605 c 0
170 557 m 1
 153 557 l 1
 156 603 145 753 211 753 c 0
 225 753 237 743 237 729 c 0
 237 700 184 590 170 557 c 1
123 605 m 0
 123 578 102 557 75 557 c 128
 48 557 27 578 27 605 c 128
 27 632 48 653 75 653 c 128
 102 653 123 632 123 605 c 0
223 145 m 1
 203 61 183 -10 81 -10 c 0
 34 -10 0 7 0 58 c 0
 0 74 3 90 7 106 c 2
 93 451 l 1
 177 451 l 1
 165 403 81 85 81 58 c 0
 81 38 95 26 115 26 c 0
 176 26 188 100 199 145 c 1
 223 145 l 1
EndSplineSet
EndChar
StartChar: Alpha
Encoding: 913 913 490
Width: 641
Flags: W
HStem: 0 16<173 186 368 380 601 614> 226 36<225 418> 648 20G<418 444>
DStem: 375 521 444 668 419 262 538 102 418 668 374 521 128 168 225 262
Fore
614 0 m 1
 368 0 l 1
 368 16 l 1
 404 19 446 20 446 66 c 0
 446 119 432 174 424 226 c 1
 204 226 l 1
 187 192 127 96 127 51 c 0
 127 17 160 18 186 16 c 1
 186 0 l 1
 -1 0 l 1
 -1 16 l 1
 62 31 98 117 128 168 c 2
 418 668 l 1
 444 668 l 1
 538 102 l 2
 548 42 549 21 614 16 c 1
 614 0 l 1
419 262 m 1
 375 521 l 1
 374 521 l 1
 225 262 l 1
 419 262 l 1
EndSplineSet
MinimumDistance: x14,-1 
EndChar
StartChar: Beta
Encoding: 914 914 491
Width: 581
Flags: W
HStem: 0 30<205 240> 623 30<349 383> 637 16<120 135.5>
VStem: 421 108<191 210> 477 101<502 521>
DStem: 186 532 303 595 63 90 238 363
Fore
578 504 m 0
 578 407 487 368 406 352 c 1
 406 350 l 1
 478 319 529 286 529 199 c 0
 529 58 385 0 264 0 c 2
 -18 0 l 1
 -18 16 l 1
 37 25 48 35 63 90 c 2
 186 532 l 1
 192 552 197 573 197 594 c 0
 197 636 151 635 120 637 c 1
 120 653 l 1
 378 653 l 2
 477 653 578 621 578 504 c 0
477 519 m 0
 477 591 435 623 365 623 c 0
 338 623 311 624 303 595 c 2
 238 363 l 1
 270 362 l 2
 379 360 477 390 477 519 c 0
421 208 m 0
 421 332 320 330 228 331 c 1
 217 285 161 103 161 75 c 0
 161 38 192 30 223 30 c 0
 339 30 421 86 421 208 c 0
EndSplineSet
MinimumDistance: x0,-1 
EndChar
StartChar: Gamma
Encoding: 915 915 492
Width: 611
Flags: W
HStem: 0 16<244 253> 620 33<360 506> 637 16<147 162.5>
DStem: 213 532 329 594 90 90 196 120
Fore
644 653 m 1
 613 500 l 1
 592 502 l 1
 593 516 594 529 594 543 c 0
 594 635 474 620 409 620 c 0
 381 620 338 627 329 594 c 2
 196 120 l 2
 190 99 185 78 185 56 c 0
 185 19 226 19 253 16 c 1
 253 0 l 1
 9 0 l 1
 9 16 l 1
 64 26 74 34 90 90 c 1
 213 532 l 2
 218 550 224 574 224 593 c 0
 224 635 178 635 147 637 c 1
 147 653 l 1
 644 653 l 1
EndSplineSet
MinimumDistance: x5,-1 
EndChar
StartChar: uni0394
Encoding: 916 916 493
Width: 660
Flags: W
HStem: 0 34<61 501> 646 20G<467 476>
DStem: 401 505 476 666 501 34 617 0 467 666 401 505 -5 0 61 34
Fore
617 0 m 1
 -5 0 l 1
 467 666 l 1
 476 666 l 1
 617 0 l 1
501 34 m 1
 401 505 l 1
 61 34 l 1
 501 34 l 1
EndSplineSet
MinimumDistance: x0,-1 
EndChar
StartChar: Epsilon
Encoding: 917 917 494
Width: 611
Flags: W
HStem: 0 33<212 294> 620 33<340 486> 637 16<127 142.5>
DStem: 193 532 309 594 70 90 243 361
Fore
624 653 m 1
 593 500 l 1
 572 502 l 1
 573 516 574 529 574 543 c 0
 574 635 454 620 389 620 c 0
 361 620 318 627 309 594 c 1
 243 361 l 1
 298 362 397 350 432 403 c 0
 443 420 452 439 460 458 c 1
 478 454 l 1
 410 222 l 1
 390 227 l 1
 394 242 397 258 397 274 c 0
 397 285 398 299 391 309 c 1
 374 329 258 327 234 328 c 1
 225 295 166 99 166 67 c 128
 166 35 212 33 235 33 c 0
 387 33 453 45 542 170 c 1
 558 162 l 1
 496 0 l 1
 -11 0 l 1
 -11 16 l 1
 44 26 54 34 70 90 c 1
 193 532 l 2
 198 550 204 574 204 593 c 0
 204 635 158 635 127 637 c 1
 127 653 l 1
 624 653 l 1
EndSplineSet
MinimumDistance: x5,-1 
EndChar
StartChar: Zeta
Encoding: 918 918 495
Width: 606
Flags: W
HStem: 0 36<123 331> 617 36<265 473>
DStem: 473 617 606 639 -6 14 123 36
Fore
606 639 m 1
 123 36 l 1
 284 36 l 2
 417 36 475 47 534 171 c 1
 553 168 l 1
 499 0 l 1
 -6 0 l 1
 -6 14 l 1
 473 617 l 1
 302 617 l 2
 189 617 142 603 93 502 c 1
 74 507 l 1
 120 653 l 1
 606 653 l 1
 606 639 l 1
EndSplineSet
EndChar
StartChar: Eta
Encoding: 919 919 496
Width: 742
Flags: W
HStem: 0 16<385 392.857 648.333 658> 326 42<278 550> 637 16<160 175 420 433 550 560>
DStem: 226 532 332 563 103 90 278 368
Fore
797 637 m 1
 741 627 731 620 715 563 c 0
 697 496 579 99 579 58 c 0
 579 18 629 19 658 16 c 1
 658 0 l 1
 385 0 l 1
 385 16 l 1
 440 23 470 31 486 90 c 2
 551 326 l 1
 266 326 l 1
 252 273 196 102 196 58 c 0
 196 21 241 20 268 16 c 1
 268 0 l 1
 22 0 l 1
 22 16 l 1
 77 26 87 34 103 90 c 1
 226 532 l 1
 232 552 237 573 237 594 c 0
 237 635 190 635 160 637 c 1
 160 653 l 1
 433 653 l 1
 433 637 l 1
 381 633 347 618 332 563 c 2
 278 368 l 1
 563 368 l 1
 578 422 620 532 620 594 c 0
 620 633 580 634 550 637 c 1
 550 653 l 1
 797 653 l 1
 797 637 l 1
EndSplineSet
MinimumDistance: x22,-1 
EndChar
StartChar: Theta
Encoding: 920 920 497
Width: 672
Flags: W
HStem: -18 33<257 281> 293 71<292 424> 633 33<438 463>
VStem: 40 105<180 227> 574 105<422 472>
Fore
679 423 m 0
 679 213 475 -18 259 -18 c 0
 118 -18 40 94 40 227 c 0
 40 422 244 666 447 666 c 0
 592 666 679 565 679 423 c 0
574 472 m 0
 574 559 541 633 443 633 c 0
 257 633 145 335 145 181 c 0
 145 97 177 15 275 15 c 0
 462 15 574 317 574 472 c 0
526 426 m 1
 478 233 l 1
 461 233 l 1
 463 240 465 248 465 256 c 0
 465 276 441 293 422 293 c 2
 276 293 l 2
 249 293 218 258 212 233 c 1
 196 233 l 1
 244 426 l 1
 261 426 l 1
 260 422 259 417 259 413 c 0
 259 393 270 364 294 364 c 2
 440 364 l 2
 474 364 504 393 509 426 c 1
 526 426 l 1
EndSplineSet
EndChar
StartChar: Iota
Encoding: 921 921 498
Width: 333
Flags: W
HStem: 0 16<227 236> 637 16<137 147>
DStem: 196 532 302 563 73 90 179 120
Fore
384 637 m 1
 328 627 318 620 302 563 c 2
 179 120 l 2
 173 99 168 78 168 56 c 0
 168 19 209 19 236 16 c 1
 236 0 l 1
 -8 0 l 1
 -8 16 l 1
 47 26 57 34 73 90 c 1
 196 532 l 1
 202 552 207 573 207 594 c 0
 207 633 167 634 137 637 c 1
 137 653 l 1
 384 653 l 1
 384 637 l 1
EndSplineSet
MinimumDistance: x1,-1 
EndChar
StartChar: Kappa
Encoding: 922 922 499
Width: 667
Flags: W
HStem: 0 16<236.25 245 333 342.5 598.667 608> 637 16<136 151 398.6 409 490 499>
DStem: 202 532 308 563 79 90 257 375
Fore
712 637 m 1
 685 633 659 617 637 601 c 2
 337 375 l 1
 511 72 l 2
 540 22 552 22 608 16 c 1
 608 0 l 1
 333 0 l 1
 333 16 l 1
 352 18 408 17 408 46 c 0
 408 98 263 324 255 338 c 1
 247 339 l 1
 237 302 173 102 173 62 c 0
 173 17 210 20 245 16 c 1
 245 0 l 1
 -3 0 l 1
 -3 16 l 1
 55 26 63 32 79 90 c 2
 202 532 l 1
 208 552 213 573 213 594 c 0
 213 635 166 635 136 637 c 1
 136 653 l 1
 409 653 l 1
 409 637 l 1
 357 632 323 618 308 563 c 2
 257 375 l 1
 263 374 l 1
 269 378 551 562 551 612 c 0
 551 638 508 635 490 637 c 1
 490 653 l 1
 712 653 l 1
 712 637 l 1
EndSplineSet
MinimumDistance: x23,-1 
EndChar
StartChar: Lambda
Encoding: 923 923 500
Width: 641
Flags: W
HStem: 0 16<163 176 358 370 591 604> 648 20G<408 434>
DStem: 365 521 434 668 434 95 528 102 408 668 364 521 118 168 137 113
Fore
604 0 m 1
 358 0 l 1
 358 16 l 1
 394 19 436 20 436 66 c 0
 436 76 436 85 434 95 c 1
 365 521 l 1
 364 521 l 1
 137 113 l 2
 126 93 117 75 117 51 c 0
 117 17 150 18 176 16 c 1
 176 0 l 1
 -11 0 l 1
 -11 16 l 1
 52 31 88 117 118 168 c 2
 408 668 l 1
 434 668 l 1
 528 102 l 2
 538 42 539 21 604 16 c 1
 604 0 l 1
EndSplineSet
MinimumDistance: x16,-1 
EndChar
StartChar: Mu
Encoding: 924 924 501
Width: 833
Flags: W
HStem: 0 16<164.5 180 461 472.4 722.667 734> 637 16<134.031 153.381>
DStem: 186 518 233 536 80 146 118 113 237 536 315 653 297 0 370 164 689 553 791 563 562 91 668 120 706 653 686 553 373 164 314 0
Fore
873 637 m 1
 815 627 807 621 791 563 c 2
 668 120 l 1
 663 100 657 80 657 60 c 0
 657 15 700 19 734 16 c 1
 734 0 l 1
 461 0 l 1
 461 16 l 1
 518 21 546 34 562 91 c 1
 689 553 l 1
 686 553 l 1
 314 0 l 1
 297 0 l 1
 237 536 l 1
 233 536 l 1
 118 113 l 2
 114 98 109 79 109 63 c 0
 109 23 149 18 180 16 c 1
 180 0 l 1
 -18 0 l 1
 -18 16 l 1
 53 27 62 84 80 146 c 1
 186 518 l 2
 190 532 208 587 208 598 c 0
 208 632 159 637 134 637 c 1
 134 653 l 1
 315 653 l 1
 370 164 l 1
 373 164 l 1
 706 653 l 1
 873 653 l 1
 873 637 l 1
EndSplineSet
MinimumDistance: x1,-1 
EndChar
StartChar: Nu
Encoding: 925 925 502
Width: 657
Flags: W
HStem: -15 21G<461 479> 0 16<-20 -12.9091 163 178> 637 16<116 130.333 528 541.333>
DStem: 202 581 229 529 83 164 117 113 233 529 277 653 461 -15 483 158 587 534 623 488 486 158 479 -15
Fore
727 637 m 1
 645 620 644 561 623 488 c 2
 479 -15 l 1
 461 -15 l 1
 233 529 l 1
 229 529 l 1
 117 113 l 1
 113 96 108 78 108 61 c 0
 108 22 148 18 178 16 c 1
 178 0 l 1
 -20 0 l 1
 -20 16 l 1
 58 27 64 97 83 164 c 2
 202 581 l 1
 184 621 159 634 116 637 c 1
 116 653 l 1
 277 653 l 1
 483 158 l 1
 486 158 l 1
 587 534 l 1
 591 550 598 567 598 584 c 0
 598 631 568 634 528 637 c 1
 528 653 l 1
 727 653 l 1
 727 637 l 1
EndSplineSet
MinimumDistance: x1,-1 
EndChar
StartChar: Xi
Encoding: 926 926 503
Width: 678
Flags: W
HStem: 0 84<122 469> 284 88<268.287 428> 414 20G<222 236 517 531> 569 84<231 572>
Fore
684 653 m 1
 640 478 l 1
 626 478 l 1
 629 491 632 503 632 516 c 0
 632 558 601 569 564 569 c 2
 251 569 l 2
 181 569 167 537 145 478 c 1
 130 478 l 1
 174 653 l 1
 684 653 l 1
531 434 m 1
 477 218 l 1
 463 218 l 1
 465 226 467 234 467 242 c 0
 467 270 448 284 421 284 c 2
 258 284 l 2
 219 284 189 255 182 218 c 1
 168 218 l 1
 222 434 l 1
 236 434 l 1
 236 432 l 2
 236 426 233 419 233 412 c 0
 233 385 255 372 280 372 c 2
 443 372 l 2
 474 372 517 400 517 434 c 1
 531 434 l 1
565 175 m 1
 521 0 l 1
 11 0 l 1
 55 175 l 1
 70 175 l 1
 67 163 65 151 65 139 c 0
 65 96 95 84 133 84 c 2
 456 84 l 2
 507 84 542 129 551 175 c 1
 565 175 l 1
EndSplineSet
MinimumDistance: x9,-1 x9,23 y22,9 y22,23 
EndChar
StartChar: Omicron
Encoding: 927 927 504
Width: 682
Flags: W
HStem: -18 33<267 291> 633 33<449 467>
VStem: 50 105<180 227> 584 105<422 472>
Fore
689 423 m 0
 689 213 485 -18 269 -18 c 0
 128 -18 50 94 50 227 c 0
 50 422 254 666 457 666 c 0
 602 666 689 565 689 423 c 0
584 472 m 0
 584 559 551 633 453 633 c 0
 267 633 155 335 155 181 c 0
 155 97 187 15 285 15 c 0
 472 15 584 317 584 472 c 0
EndSplineSet
EndChar
StartChar: Pi
Encoding: 928 928 505
Width: 749
Flags: W
HStem: 0 16<365 372.857 628.333 638> 623 30<401 547> 637 16<140 155>
Fore
777 637 m 1
 721 627 711 620 695 563 c 0
 677 496 559 99 559 58 c 0
 559 18 609 19 638 16 c 1
 638 0 l 1
 365 0 l 1
 365 16 l 1
 420 23 450 31 466 90 c 1
 585 518 l 1
 591 538 596 559 596 580 c 0
 596 623 560 623 526 623 c 2
 409 623 l 2
 357 623 322 601 308 549 c 0
 290 483 176 99 176 58 c 0
 176 21 221 20 248 16 c 1
 248 0 l 1
 2 0 l 1
 2 16 l 1
 57 26 67 34 83 90 c 1
 206 532 l 1
 212 552 217 573 217 594 c 0
 217 635 170 635 140 637 c 1
 140 653 l 1
 777 653 l 1
 777 637 l 1
EndSplineSet
EndChar
StartChar: Rho
Encoding: 929 929 506
Width: 611
Flags: W
HStem: 0 16<237 245> 623 30<349 385> 637 16<146 156.333>
VStem: 502 103<495 517>
DStem: 200 515 322 595 82 90 251 347
Fore
605 501 m 0
 605 363 467 305 348 305 c 0
 312 305 277 305 242 313 c 1
 226 256 177 115 177 59 c 0
 177 18 213 20 245 16 c 1
 245 0 l 1
 0 0 l 1
 0 16 l 1
 57 25 66 32 82 90 c 2
 200 515 l 2
 205 534 217 574 217 592 c 0
 217 633 177 634 146 637 c 1
 146 653 l 1
 399 653 l 2
 499 653 605 621 605 501 c 0
502 507 m 0
 502 601 448 623 362 623 c 0
 341 623 328 616 322 595 c 2
 251 347 l 1
 266 345 281 342 296 342 c 0
 414 342 502 368 502 507 c 0
EndSplineSet
MinimumDistance: x0,-1 
EndChar
StartChar: Sigma
Encoding: 931 931 507
Width: 657
Flags: W
HStem: 0 86<149 471> 623 30<325 503>
DStem: 398 328 490 350 -26 0 149 86
Fore
688 653 m 1
 657 478 l 1
 640 478 l 1
 641 485 641 492 641 498 c 0
 641 579 573 623 498 623 c 2
 330 623 l 2
 320 623 293 618 293 604 c 0
 293 586 464 381 490 350 c 1
 149 86 l 1
 462 86 l 2
 512 86 555 128 563 177 c 1
 582 177 l 1
 538 0 l 1
 -26 0 l 1
 398 328 l 1
 139 653 l 1
 688 653 l 1
EndSplineSet
MinimumDistance: x7,-1 
EndChar
StartChar: Tau
Encoding: 932 932 508
Width: 596
Flags: W
HStem: 0 16<75 86 351.667 365> 618 35<260 325 426.062 509.277>
DStem: 325 618 426 618 181 90 287 120
Fore
643 653 m 1
 599 490 l 1
 582 492 l 1
 584 505 585 518 585 531 c 0
 585 632 499 618 426 618 c 1
 287 120 l 2
 282 102 275 82 275 63 c 0
 275 11 325 19 365 16 c 1
 365 0 l 1
 75 0 l 1
 75 16 l 1
 130 21 165 30 181 90 c 1
 325 618 l 1
 199 618 146 619 87 495 c 1
 69 499 l 1
 111 653 l 1
 643 653 l 1
EndSplineSet
MinimumDistance: x4,-1 
EndChar
StartChar: Upsilon
Encoding: 933 933 509
Width: 676
Flags: W
HStem: 0 16<385 394> 631 41<203 219 590 625>
VStem: 82 108<543 553> 312 54<424 463> 571 125<529 595> 625 71<595 609>
Fore
607 488 m 0
 585 488 571 508 571 529 c 0
 571 570 625 590 625 609 c 128
 625 628 605 631 590 631 c 0
 490 631 406 372 386 299 c 0
 370 239 326 121 326 56 c 0
 326 19 367 19 394 16 c 1
 394 0 l 1
 150 0 l 1
 150 16 l 1
 205 26 216 34 231 90 c 2
 286 291 l 2
 301 347 312 405 312 463 c 0
 312 519 292 631 217 631 c 0
 199 631 169 625 169 602 c 0
 169 587 190 575 190 550 c 0
 190 521 156 488 128 488 c 0
 94 488 82 517 82 547 c 0
 82 606 141 672 202 672 c 0
 328 672 365 526 366 425 c 1
 420 518 500 672 625 672 c 0
 667 672 696 635 696 595 c 0
 696 550 655 488 607 488 c 0
EndSplineSet
EndChar
StartChar: Phi
Encoding: 934 934 510
Width: 722
Flags: W
HStem: 0 16<405 414> 0 141<256 265> 529 31<347 372 479 484> 529 124<471.063 490.099> 637 16<315 325>
VStem: 19 103<267 289> 619 107<383 401>
DStem: 373 529 471 529 265 141 363 141
Fore
355 113 m 1
 350 94 346 75 346 56 c 0
 346 19 387 19 414 16 c 1
 414 0 l 1
 170 0 l 1
 170 16 l 1
 239 28 240 47 257 112 c 1
 148 112 19 153 19 283 c 0
 19 469 214 574 381 559 c 1
 383 570 385 582 385 594 c 0
 385 633 345 634 315 637 c 1
 315 653 l 1
 562 653 l 1
 562 637 l 1
 505 627 495 618 479 560 c 1
 583 560 726 524 726 395 c 0
 726 215 520 92 355 113 c 1
619 398 m 0
 619 486 553 528 471 529 c 1
 363 141 l 1
 507 141 619 252 619 398 c 0
373 529 m 1
 218 529 122 422 122 269 c 0
 122 178 180 142 265 141 c 1
 373 529 l 1
EndSplineSet
EndChar
StartChar: Chi
Encoding: 935 935 511
Width: 611
Flags: W
HStem: 0 16<162 185 294 309.5 559 567> 637 16<76 93 330.333 340 447 459>
Fore
655 637 m 1
 601 619 567 585 530 542 c 2
 361 348 l 1
 463 90 l 2
 488 27 503 24 567 16 c 1
 567 0 l 1
 294 0 l 1
 294 16 l 1
 325 18 370 14 370 56 c 0
 370 106 310 224 292 269 c 1
 141 97 l 2
 130 84 120 68 120 51 c 0
 120 16 160 16 185 16 c 1
 185 0 l 1
 -29 0 l 1
 -29 16 l 1
 0 22 16 32 39 50 c 0
 99 96 223 254 274 313 c 1
 168 576 l 2
 148 625 127 634 76 637 c 1
 76 653 l 1
 340 653 l 1
 340 637 l 1
 311 634 269 631 269 593 c 0
 269 561 333 417 343 393 c 1
 369 422 508 564 508 601 c 0
 508 633 471 635 447 637 c 1
 447 653 l 1
 655 653 l 1
 655 637 l 1
EndSplineSet
EndChar
StartChar: Psi
Encoding: 936 936 512
Width: 863
Flags: W
HStem: 0 16<489 498> 637 16<399 409>
VStem: 127 89<331 353> 171 84<559 581>
DStem: 458 532 564 563 374 229 471 229
Fore
944 649 m 1
 941 637 l 1
 927 635 912 635 898 631 c 128
 884 627 876 618 868 607 c 0
 844 574 831 526 821 487 c 0
 782 332 762 259 595 211 c 0
 553 199 505 195 461 193 c 1
 449 150 430 101 430 56 c 0
 430 19 471 19 498 16 c 1
 498 0 l 1
 254 0 l 1
 254 16 l 1
 309 26 319 34 335 90 c 2
 364 193 l 1
 266 199 127 220 127 346 c 0
 127 426 171 499 171 578 c 0
 171 632 153 630 109 637 c 1
 112 649 l 1
 134 649 l 2
 196 649 255 650 255 570 c 128
 255 490 216 413 216 333 c 0
 216 232 295 231 374 229 c 1
 458 532 l 1
 464 552 469 573 469 594 c 0
 469 633 429 634 399 637 c 1
 399 653 l 1
 646 653 l 1
 646 637 l 1
 590 627 580 620 564 563 c 2
 471 229 l 1
 503 230 541 229 572 238 c 0
 767 293 679 593 841 641 c 0
 867 649 895 649 922 649 c 2
 944 649 l 1
EndSplineSet
MinimumDistance: x28,-1 
EndChar
StartChar: uni03A9
Encoding: 937 937 513
Width: 744
Flags: W
HStem: 0 81<89 229 452 603> 641 36<489 512>
DStem: 240 124 281 147 229 81 250 0 441 147 469 124 387 0 452 81
Fore
14 153 m 1
 -22 0 l 1
 250 0 l 1
 281 147 l 1
 237 165 212 196 208 240 c 0
 203 285 208 334 222 387 c 0
 243 462 279 523 331 570 c 0
 383 618 439 641 498 641 c 0
 553 641 594 618 623 573 c 0
 651 528 651 465 627 380 c 0
 592 251 532 174 441 147 c 1
 387 0 l 1
 659 0 l 1
 707 153 l 1
 683 153 l 1
 672 117 647 81 586 81 c 2
 452 81 l 1
 469 124 l 1
 604 160 708 258 745 393 c 0
 768 476 760 543 715 596 c 0
 671 649 603 677 510 677 c 0
 415 677 329 649 254 592 c 0
 180 536 131 468 109 389 c 0
 89 317 93 257 123 210 c 128
 153 163 192 134 240 124 c 1
 229 81 l 1
 98 81 l 2
 43 81 28 106 38 153 c 1
 14 153 l 1
EndSplineSet
MinimumDistance: x17,-1 
EndChar
StartChar: Iotadieresis
Encoding: 938 938 514
Width: 333
Flags: W
HStem: 0 16<227 236> 637 16<137 147> 713 96<231 239 375 393>
VStem: 186 96<751 769> 338 96<751 769>
DStem: 196 532 302 563 73 90 179 120
Fore
434 761 m 0
 434 734 413 713 386 713 c 128
 359 713 338 734 338 761 c 128
 338 788 359 809 386 809 c 128
 413 809 434 788 434 761 c 0
282 761 m 0
 282 734 261 713 234 713 c 128
 207 713 186 734 186 761 c 128
 186 788 207 809 234 809 c 128
 261 809 282 788 282 761 c 0
384 637 m 1
 328 627 318 620 302 563 c 2
 179 120 l 2
 173 99 168 78 168 56 c 0
 168 19 209 19 236 16 c 1
 236 0 l 1
 -8 0 l 1
 -8 16 l 1
 47 26 57 34 73 90 c 1
 196 532 l 1
 202 552 207 573 207 594 c 0
 207 633 167 634 137 637 c 1
 137 653 l 1
 384 653 l 1
 384 637 l 1
EndSplineSet
EndChar
StartChar: Upsilondieresis
Encoding: 939 939 515
Width: 696
Flags: W
HStem: 0 16<435 444> 631 41<253 269 640 675> 711 96<387 394 579 585>
VStem: 132 108<543 553> 362 54<424 463> 534 96<751 769> 621 125<529 595> 675 71<595 609>
Fore
630 759 m 0
 630 732 609 711 582 711 c 128
 555 711 534 732 534 759 c 128
 534 786 555 807 582 807 c 128
 609 807 630 786 630 759 c 0
440 759 m 0
 440 732 419 711 392 711 c 128
 365 711 344 732 344 759 c 128
 344 786 365 807 392 807 c 128
 419 807 440 786 440 759 c 0
657 488 m 0
 635 488 621 508 621 529 c 0
 621 570 675 590 675 609 c 128
 675 628 655 631 640 631 c 0
 540 631 456 372 436 299 c 0
 420 239 376 121 376 56 c 0
 376 19 417 19 444 16 c 1
 444 0 l 1
 200 0 l 1
 200 16 l 1
 255 26 266 34 281 90 c 2
 336 291 l 2
 351 347 362 405 362 463 c 0
 362 519 342 631 267 631 c 0
 249 631 219 625 219 602 c 0
 219 587 240 575 240 550 c 0
 240 521 206 488 178 488 c 0
 144 488 132 517 132 547 c 0
 132 606 191 672 252 672 c 0
 378 672 415 526 416 425 c 1
 470 518 550 672 675 672 c 0
 717 672 746 635 746 595 c 0
 746 550 705 488 657 488 c 0
EndSplineSet
EndChar
StartChar: upsilondieresistonos
Encoding: 944 944 519
Width: 534
Flags: W
HStem: -10 36<190 217> 557 96<234.949 248 436 444>
VStem: 71 81<85 102> 143 77<378 396> 197 96<597 615> 378 100<373 403> 393 96<597 615>
Fore
489 605 m 0
 489 578 468 557 441 557 c 128
 414 557 393 578 393 605 c 128
 393 632 414 653 441 653 c 128
 468 653 489 632 489 605 c 0
338 557 m 1
 321 557 l 1
 324 603 313 753 379 753 c 0
 393 753 405 743 405 729 c 0
 405 700 352 590 338 557 c 1
293 605 m 0
 293 578 272 557 245 557 c 128
 218 557 197 578 197 605 c 128
 197 632 218 653 245 653 c 128
 272 653 293 632 293 605 c 0
190 -10 m 0
 119 -10 71 26 71 100 c 0
 71 188 143 327 143 394 c 0
 143 410 138 425 119 425 c 0
 77 425 56 366 48 333 c 1
 24 333 l 1
 40 400 72 461 150 461 c 0
 201 461 220 424 220 378 c 0
 220 280 152 186 152 87 c 0
 152 45 175 26 217 26 c 0
 316 26 395 146 395 236 c 0
 395 283 378 327 378 373 c 0
 378 409 393 461 438 461 c 0
 471 461 478 430 478 403 c 0
 478 370 470 337 462 305 c 0
 428 170 356 -10 190 -10 c 0
EndSplineSet
MinimumDistance: x0,-1 
EndChar
StartChar: alpha
Encoding: 945 945 520
Width: 587
Flags: W
HStem: -10 29<157 180> 431 20G<465 549> 432 29<268.179 287>
VStem: 9 87<128 153>
Fore
549 451 m 1
 515 370 476 291 433 214 c 0
 422 194 405 172 398 151 c 0
 397 147 397 143 397 139 c 0
 397 117 411 63 439 63 c 0
 463 63 482 85 488 107 c 1
 507 107 l 1
 496 66 473 -10 421 -10 c 0
 357 -10 368 76 370 118 c 1
 368 118 l 1
 325 49 242 -10 158 -10 c 0
 60 -10 9 61 9 153 c 0
 9 295 135 461 285 461 c 0
 382 461 400 369 392 291 c 1
 394 291 l 1
 465 451 l 1
 549 451 l 1
368 314 m 0
 368 372 350 432 282 432 c 0
 166 432 96 224 96 129 c 0
 96 73 115 19 180 19 c 0
 299 19 368 216 368 314 c 0
EndSplineSet
MinimumDistance: x18,-1 
EndChar
StartChar: beta
Encoding: 946 946 521
Width: 534
Flags: W
HStem: -8.01172 22.9316<259.18 283> 353.17 62.107<280 295> 369.413 27.71<344 354>
DStem: 132.423 396.167 229.692 466.875 0.0771484 -201 81.6768 -201
Fore
508.58 195.512 m 0
 483.592 82.7607 392.561 -8.01172 273.075 -8.01172 c 0
 217.704 -8.01172 167.166 22.5645 171.341 80.8496 c 1
 199.513 80.8496 l 1
 192.985 42.6299 235.415 14.9199 271.358 14.9199 c 0
 355.871 14.9199 403.962 126.714 418.362 191.689 c 0
 432.762 256.663 426.663 369.413 344.093 369.413 c 0
 319.807 369.413 298.721 353.17 281.235 353.17 c 0
 259.864 353.17 252.69 364.637 257.35 385.657 c 0
 261.161 402.856 278.485 415.277 295 415.277 c 0
 317.342 415.277 333.719 397.123 352.177 397.123 c 0
 408.52 397.123 444.852 482.163 454.169 524.205 c 0
 467.51 584.402 448.458 647.466 379.485 647.466 c 0
 279.429 647.466 246.209 541.404 229.692 466.875 c 2
 81.6768 -201 l 1
 0.0771484 -201 l 1
 132.423 396.167 l 2
 161.222 526.116 236.999 675.176 396.312 675.176 c 0
 485.685 675.176 559.273 630.266 537.675 532.805 c 0
 519.675 451.587 442.57 410.5 367.12 385.657 c 1
 366.697 383.746 l 1
 471.349 369.413 533.567 308.261 508.58 195.512 c 0
EndSplineSet
MinimumDistance: x13,-1 
EndChar
StartChar: gamma
Encoding: 947 947 521
Width: 480
Flags: W
HStem: 369 92<98 131>
VStem: 187 21<88.0614 129>
Fore
112 -224 m 0
 87 -224 79 -202 79 -180 c 0
 79 -91 174 13 185 57 c 0
 188 69 187 84 187 97 c 0
 187 154 176 369 98 369 c 0
 64 369 43 334 36 305 c 1
 17 305 l 1
 31 361 59 461 131 461 c 0
 232 461 208 153 208 88 c 1
 210 88 l 1
 264 163 314 241 352 325 c 0
 364 352 374 381 386 408 c 0
 399 436 425 461 457 461 c 0
 477 461 487 447 487 428 c 0
 487 350 218 92 208 54 c 0
 191 -9 215 -224 112 -224 c 0
EndSplineSet
MinimumDistance: x8,-1 
EndChar
StartChar: delta
Encoding: 948 948 522
Width: 534
Flags: W
HStem: -10.3604 27.6954<186 205> 377.37 27.695<268 285> 649.545 22.92<316 340>
VStem: 13 93<132 166> 188 57<548.315 588.425> 381 97<260 283>
Fore
185 -10.3604 m 0
 83 -10.3604 13 47.8945 13 147.215 c 0
 13 280.915 136 405.065 277 405.065 c 0
 297 405.065 316 402.2 335 397.425 c 1
 337 399.335 l 1
 287 437.535 188 475.735 188 548.315 c 0
 188 618.985 259 672.465 329 672.465 c 0
 400 672.465 452 621.85 458 555.955 c 1
 432 555.955 l 1
 424 607.525 384 649.545 327 649.545 c 0
 292 649.545 245 625.67 245 588.425 c 0
 245 520.62 478 465.23 478 281.87 c 0
 478 132.89 345 -10.3604 185 -10.3604 c 0
381 269.455 m 0
 381 330.575 354 377.37 283 377.37 c 0
 155 377.37 106 241.76 106 139.575 c 0
 106 77.5 127 17.335 203 17.335 c 0
 323 17.335 381 173.955 381 269.455 c 0
EndSplineSet
MinimumDistance: x11,-1 
EndChar
StartChar: epsilon
Encoding: 949 949 523
Width: 426
Flags: W
HStem: 210 66<259 277> 228 24<181 199> 437 24<245 263>
VStem: -10 95<90 108> 53 90<310 327>
Fore
349 341 m 0
 290 341 332 437 253 437 c 0
 188 437 143 372 143 311 c 0
 143 281 157 252 191 252 c 0
 228 252 251 276 277 276 c 0
 292 276 303 267 303 251 c 0
 303 228 282 210 259 210 c 0
 235 210 217 228 193 228 c 0
 128 228 85 163 85 103 c 0
 85 50 122 26 172 26 c 0
 243 26 288 63 326 119 c 1
 348 108 l 1
 298 26 226 -10 131 -10 c 0
 68 -10 -10 18 -10 92 c 0
 -10 172 68 230 141 241 c 1
 142 243 l 1
 100 247 53 274 53 322 c 0
 53 417 175 461 254 461 c 0
 296 461 395 452 395 393 c 0
 395 367 377 341 349 341 c 0
EndSplineSet
MinimumDistance: x2,-1 
EndChar
StartChar: zeta
Encoding: 950 950 524
Width: 480
Flags: W
HStem: -174.125 63.03<127 144> -10.8203 82.1299<178 196 288 290> 647.175 22.92<267 292>
VStem: 19.7402 58.8594<101.87 153.44> 114.57 71.94<565 578>
Fore
352.19 479.095 m 0
 323.85 479.095 295.51 479.095 267.17 483.87 c 1
 177.79 417.02 78.5996 258.49 78.5996 153.44 c 0
 78.5996 49.3447 209.4 71.3096 290.06 71.3096 c 0
 342.38 71.3096 401.24 65.5801 401.24 7.3252 c 0
 401.24 -108.23 259.54 -174.125 142.91 -174.125 c 0
 121.11 -174.125 78.5996 -172.215 78.5996 -146.43 c 0
 78.5996 -120.645 104.76 -111.095 129.83 -111.095 c 0
 165.8 -111.095 199.59 -128.285 236.65 -128.285 c 0
 287.88 -128.285 350.01 -91.9951 350.01 -43.29 c 0
 350.01 9.23535 217.03 -10.8203 177.79 -10.8203 c 0
 86.2305 -10.8203 19.7402 10.1904 19.7402 101.87 c 0
 19.7402 240.345 127.65 396.01 239.92 487.69 c 1
 191.96 494.375 114.57 523.98 114.57 574.595 c 0
 114.57 643.355 213.76 670.095 278.07 670.095 c 0
 291.15 670.095 305.32 669.14 318.4 667.23 c 1
 311.86 644.31 l 1
 302.05 646.22 291.15 647.175 281.34 647.175 c 0
 235.56 647.175 186.51 614.705 186.51 572.685 c 0
 186.51 537.35 230.11 511.565 266.08 506.79 c 1
 321.67 544.99 376.17 566.955 447.02 566.955 c 0
 465.55 566.955 499.34 562.18 499.34 541.17 c 0
 499.34 494.375 392.52 479.095 352.19 479.095 c 0
EndSplineSet
MinimumDistance: x18,-1 
EndChar
StartChar: eta
Encoding: 951 951 525
Width: 534
Flags: W
HStem: 0 21G<40 125> 425 36<357 385>
VStem: 136 75<383 401> 401 81<357 385>
DStem: 394 326 470 293 257 -224 341 -224
Fore
341 -224 m 1
 257 -224 l 1
 394 326 l 1
 398 341 401 357 401 373 c 0
 401 402 390 425 357 425 c 0
 209 425 147 88 125 0 c 1
 40 0 l 1
 130 359 l 2
 133 370 136 382 136 394 c 0
 136 409 129 420 112 420 c 0
 74 420 53 350 45 320 c 1
 21 320 l 1
 37 383 71 461 147 461 c 0
 192 461 211 436 211 393 c 0
 211 360 203 329 196 297 c 1
 199 297 l 1
 232 371 295 461 385 461 c 0
 446 461 482 436 482 372 c 0
 482 345 476 319 470 293 c 1
 341 -224 l 1
EndSplineSet
MinimumDistance: x17,-1 
EndChar
StartChar: theta
Encoding: 952 952 526
Width: 534
Flags: W
HStem: -10 24<178 196> 334 24<154 396> 648 24<338 360>
VStem: 35 77<126 176> 430 77<475 534>
Fore
187 -10 m 0
 71 -10 35 74 35 176 c 0
 35 352 142 672 357 672 c 0
 473 672 507 574 507 475 c 0
 507 299 400 -10 187 -10 c 0
402 358 m 1
 416 415 430 474 430 534 c 0
 430 587 417 648 351 648 c 0
 231 648 177 450 154 358 c 1
 402 358 l 1
396 334 m 1
 148 334 l 1
 131 267 112 197 112 127 c 0
 112 73 126 14 192 14 c 0
 322 14 372 236 396 334 c 1
EndSplineSet
MinimumDistance: x3,-1 
EndChar
StartChar: iota
Encoding: 953 953 527
Width: 267
Flags: W
HStem: -10 36<81 115> 431 20G<93 177>
VStem: 0 81<53 60>
Fore
223 145 m 1
 203 61 183 -10 81 -10 c 0
 34 -10 0 7 0 58 c 0
 0 74 3 90 7 106 c 2
 93 451 l 1
 177 451 l 1
 165 403 81 85 81 58 c 0
 81 38 95 26 115 26 c 0
 176 26 188 100 199 145 c 1
 223 145 l 1
EndSplineSet
MinimumDistance: x1,-1 
EndChar
StartChar: kappa
Encoding: 954 954 528
Width: 534
Flags: W
HStem: -10 85<338 364> 382 79<128 150>
Fore
348 262 m 5
 338 219 319 172 319 127 c 4
 319 97 331 75 364 75 c 4
 406 75 429 115 441 150 c 5
 460 150 l 5
 444 83 424 -10 338 -10 c 4
 291 -10 279 26 279 66 c 4
 279 125 299 183 315 239 c 5
 258 203 200 167 148 124 c 5
 128 82 91 -10 35 -10 c 4
 14 -10 5 5 5 24 c 4
 5 94 93 157 143 195 c 5
 154 237 173 287 173 330 c 4
 173 361 161 382 128 382 c 4
 85 382 59 342 50 305 c 5
 31 305 l 5
 46 366 71 461 150 461 c 4
 198 461 211 422 211 381 c 4
 211 326 193 268 177 216 c 5
 229 255 283 290 338 325 c 5
 354 366 397 461 449 461 c 4
 468 461 481 449 481 430 c 4
 481 368 395 294 348 262 c 5
EndSplineSet
EndChar
